<svg width="22" height="21" viewBox="0 0 22 21" fill="none" xmlns="http://www.w3.org/2000/svg">
<path fill-rule="evenodd" clip-rule="evenodd" d="M11.2939 0.31665C10.7092 0.31665 10.13 0.430441 9.58941 0.651699C9.04879 0.872963 8.5571 1.19746 8.1426 1.60701C7.72809 2.01658 7.39889 2.5032 7.17416 3.03928C7.01533 3.41815 6.91093 3.81637 6.86335 4.22233H4.54395C3.43938 4.22233 2.54395 5.11776 2.54395 6.22233V18.4964C2.54395 19.601 3.43938 20.4964 4.54395 20.4964H18.0439C19.1485 20.4964 20.0439 19.601 20.0439 18.4964V6.22233C20.0439 5.11776 19.1485 4.22233 18.0439 4.22233H15.7245C15.677 3.81637 15.5726 3.41814 15.4137 3.03927C15.189 2.5032 14.8598 2.01658 14.4453 1.60701C14.0308 1.19746 13.5391 0.872963 12.9985 0.651699C12.4579 0.430441 11.8787 0.31665 11.2939 0.31665ZM14.5132 4.22233C14.4732 3.97616 14.4041 3.73479 14.3071 3.50322C14.1438 3.11376 13.9043 2.75942 13.6019 2.46062C13.2995 2.1618 12.94 1.92439 12.544 1.76229C12.1479 1.60018 11.7231 1.51665 11.2939 1.51665C10.8648 1.51665 10.44 1.60018 10.0439 1.76229C9.64787 1.92439 9.28845 2.1618 8.98602 2.46062C8.68361 2.75942 8.44411 3.11376 8.28085 3.50322C8.18377 3.73479 8.11474 3.97616 8.07472 4.22233H14.5132ZM4.54395 5.42233H18.0439C18.4858 5.42233 18.8439 5.7805 18.8439 6.22233V18.4964C18.8439 18.9383 18.4858 19.2964 18.0439 19.2964H4.54395C4.10212 19.2964 3.74395 18.9383 3.74395 18.4964V6.22233C3.74395 5.7805 4.10212 5.42233 4.54395 5.42233Z" fill="black"/>
</svg>
