<svg width="21" height="21" viewBox="0 0 21 21" fill="none" xmlns="http://www.w3.org/2000/svg">
<g opacity="0.8">
<path d="M7.87968 17.8101C5.85781 17.8101 3.97308 17.222 2.38672 16.2073C3.73359 16.2945 6.11051 16.0858 7.58896 14.6756C5.36489 14.5735 4.36188 12.8677 4.23106 12.1388C4.42003 12.2117 5.32128 12.2992 5.83006 12.095C3.27166 11.4536 2.87917 9.20839 2.96639 8.52317C3.44609 8.85849 4.26013 8.97512 4.57993 8.94596C2.19596 7.24021 3.05361 4.67428 3.47516 4.12028C5.18598 6.49047 7.74997 7.82166 10.922 7.89571C10.8622 7.63341 10.8306 7.36032 10.8306 7.07984C10.8306 5.06688 12.4576 3.43506 14.4647 3.43506C15.5133 3.43506 16.4582 3.88053 17.1215 4.59308C17.8223 4.42887 18.8769 4.04448 19.3925 3.71206C19.1326 4.64512 18.3236 5.42349 17.8342 5.71198C17.8382 5.7218 17.8302 5.70212 17.8342 5.71198C18.264 5.64696 19.4272 5.42341 19.8867 5.11166C19.6595 5.63584 18.8017 6.50739 18.0978 6.99532C18.2288 12.7713 13.8095 17.8101 7.87968 17.8101Z" fill="#666666"/>
</g>
</svg>
