<svg width="270" height="112" viewBox="0 0 270 112" fill="none" xmlns="http://www.w3.org/2000/svg">
<path fill-rule="evenodd" clip-rule="evenodd" d="M222.974 72.8878V68.4957H227.824V72.8878C227.824 73.0485 227.875 73.0485 228.028 73.0485H228.64C228.793 73.0485 228.844 72.995 228.844 72.8878V63.7822C228.844 63.6215 228.793 63.6215 228.64 63.6215H228.028C227.875 63.6215 227.824 63.675 227.824 63.7822V67.6387H222.974V63.7822C222.974 63.6215 222.923 63.6215 222.77 63.6215H222.107C222.005 63.6215 221.902 63.675 221.902 63.7822V72.8878C221.902 73.0485 221.954 73.0485 222.107 73.0485H222.77C222.923 73.0485 222.974 72.995 222.974 72.8878ZM236.603 72.7807V72.2986C236.603 72.138 236.552 72.0308 236.399 72.0308H232.826C232.009 72.0308 231.703 71.6023 231.703 70.906V68.3886H235.889C236.042 68.3886 236.093 68.2814 236.093 68.1743V67.7994C236.093 67.6387 236.042 67.5851 235.889 67.5851H231.703V65.6569C231.703 64.907 232.06 64.4785 232.826 64.4785H236.297C236.45 64.4785 236.501 64.4249 236.501 64.2642V63.7822C236.501 63.6215 236.45 63.5143 236.297 63.5143H232.826C231.295 63.5143 230.733 64.532 230.733 65.764V70.7989C230.733 72.0308 231.244 73.0485 232.826 73.0485H236.399C236.603 73.0485 236.603 72.9414 236.603 72.7807ZM242.32 67.9601V67.9065C242.933 67.5851 243.239 66.9959 243.443 66.1925L244.056 63.7822C244.107 63.675 244.107 63.5679 243.903 63.5679H243.29C243.188 63.5679 243.137 63.5679 243.086 63.7286L242.473 66.1389C242.167 67.3173 241.503 67.5851 240.84 67.5851H239.002V63.7822C239.002 63.6215 238.951 63.6215 238.849 63.6215H238.237C238.135 63.6215 238.032 63.675 238.032 63.7822V72.8878C238.032 73.0485 238.083 73.0485 238.237 73.0485H238.849C239.002 73.0485 239.053 72.995 239.053 72.8878V68.4957H241.044C241.912 68.4957 242.422 68.7635 242.728 69.8883L243.494 72.9414C243.545 73.1021 243.647 73.1021 243.749 73.1021H244.362C244.515 73.1021 244.566 72.995 244.515 72.8878L243.698 69.7276C243.494 68.8171 243.188 68.2279 242.32 67.9601ZM248.803 72.8878V64.532H251.457C251.61 64.532 251.61 64.4785 251.61 64.3713V63.8357C251.61 63.675 251.559 63.6215 251.457 63.6215H245.179C245.025 63.6215 245.025 63.675 245.025 63.8357V64.3713C245.025 64.532 245.025 64.532 245.179 64.532H247.782V72.8878C247.782 73.0485 247.833 73.0485 247.986 73.0485H248.65C248.752 73.0485 248.803 72.995 248.803 72.8878ZM258.042 73.0485C257.889 73.0485 257.838 73.0485 257.787 72.8878L257.123 70.7989H253.295C253.193 71.0667 252.733 72.62 252.631 72.8878C252.58 72.995 252.529 73.0485 252.376 73.0485H251.661C251.508 73.0485 251.457 72.9414 251.508 72.8343L254.469 63.9964C254.622 63.6215 254.673 63.5143 255.03 63.5143H255.387C255.796 63.5143 255.847 63.6215 256 63.9964L258.961 72.8343C259.012 72.9414 258.961 73.0485 258.807 73.0485H258.042ZM255.847 66.7281L255.234 64.6927H255.183L254.571 66.6746L253.601 69.8348H256.868L255.847 66.7281ZM260.032 64.1571V72.8878C260.032 73.0485 260.084 73.0485 260.186 73.0485H260.798C260.951 73.0485 261.002 73.0485 261.002 72.8878V69.1384H263.503C265.8 69.1384 266.311 67.3173 266.311 66.2996C266.311 64.6927 265.239 63.5143 263.606 63.5143H260.645C260.186 63.5143 260.032 63.7286 260.032 64.1571ZM261.053 68.2279V64.4785H263.401C264.882 64.4785 265.29 65.5497 265.29 66.3532C265.29 67.5316 264.575 68.2279 263.401 68.2279H261.053ZM223.842 75.191C224.914 75.191 225.884 75.566 225.884 76.6908C225.884 77.7085 225.016 78.3512 223.842 78.3512H223.179C222.923 78.3512 222.821 78.4584 222.821 78.7262V78.994C222.821 79.2082 222.974 79.3689 223.23 79.3689H223.944C225.425 79.3689 226.241 80.1188 226.241 81.1365C226.241 82.3149 225.476 83.1719 223.587 83.1719C222.821 83.1719 221.902 82.9576 221.29 82.6363C221.137 82.5827 221.086 82.6363 221.035 82.7434L220.831 83.1719C220.728 83.3326 220.78 83.3861 220.882 83.4933C221.749 84.0289 222.974 84.136 223.791 84.136C226.088 84.136 227.364 82.9041 227.364 81.2436C227.364 80.1188 226.599 79.1547 225.425 78.9404V78.8869C226.394 78.5119 227.058 77.7085 227.058 76.6908C227.058 75.1375 225.833 74.334 224.046 74.334C223.179 74.334 222.209 74.4947 221.341 74.9768C221.239 75.0303 221.188 75.0839 221.29 75.2446L221.494 75.7267C221.545 75.8338 221.596 75.8874 221.749 75.8338C222.311 75.3517 223.076 75.191 223.842 75.191ZM234.715 83.6004V83.1183C234.715 82.9576 234.664 82.8505 234.51 82.8505H230.937C230.121 82.8505 229.814 82.422 229.814 81.7257V79.2082H234C234.153 79.2082 234.204 79.1011 234.204 78.994V78.5655C234.204 78.4048 234.153 78.3512 234 78.3512H229.814V76.423C229.814 75.6731 230.172 75.2446 230.937 75.2446H234.408C234.561 75.2446 234.612 75.191 234.612 75.0303V74.5483C234.612 74.3876 234.561 74.2805 234.408 74.2805H230.937C229.406 74.2805 228.844 75.2982 228.844 76.5301V81.565C228.844 82.797 229.355 83.8146 230.937 83.8146H234.51C234.664 83.8682 234.715 83.8146 234.715 83.6004ZM240.329 81.7793H240.278C240.125 81.4579 239.666 80.1188 239.513 79.7974C239.257 79.2082 237.675 75.1375 237.573 74.8697C237.42 74.4412 237.318 74.3876 236.961 74.3876H236.654C236.195 74.3876 236.093 74.6018 236.093 74.9768V83.7075C236.093 83.8682 236.144 83.8682 236.297 83.8682H236.909C237.063 83.8682 237.114 83.8146 237.114 83.7075V76.3159H237.216L237.828 77.8156C238.237 78.7262 239.258 81.3508 239.615 82.3149C239.768 82.6898 239.87 82.797 240.227 82.797H240.585C240.942 82.797 241.044 82.6898 241.146 82.3149C241.554 81.4043 242.524 78.7797 242.933 77.8692L243.596 76.2087H243.647V83.7075C243.647 83.8682 243.698 83.8682 243.851 83.8682H244.464C244.566 83.8682 244.668 83.8146 244.668 83.7075V74.9768C244.668 74.6018 244.566 74.3876 244.107 74.3876H243.8C243.494 74.3876 243.341 74.4412 243.188 74.8697C242.882 75.6731 241.708 78.7262 241.248 79.851C240.993 80.1188 240.483 81.4579 240.329 81.7793ZM247.782 75.1375L247.68 76.7979C247.425 80.9223 247.425 82.3685 245.74 83.1183C245.638 83.1719 245.587 83.1719 245.638 83.3862L245.74 83.8682C245.791 84.0289 245.893 84.0825 245.995 84.0289C248.292 83.279 248.343 81.1365 248.65 76.9586L248.752 75.2982H252.223V83.654C252.223 83.8147 252.274 83.8146 252.427 83.8146H253.09C253.244 83.8146 253.295 83.7611 253.295 83.654V75.0839C253.295 74.6018 253.039 74.334 252.631 74.334H248.599C248.037 74.3876 247.782 74.6018 247.782 75.1375ZM260.951 75.7802H261.002V83.7075C261.002 83.8682 261.053 83.8682 261.206 83.8682H261.819C261.972 83.8682 262.023 83.8146 262.023 83.7075V74.9768C262.023 74.6018 261.921 74.3876 261.462 74.3876H261.155C260.798 74.3876 260.747 74.4947 260.543 74.8697L257.174 80.6544L256.153 82.422H256.102V74.5483C256.102 74.3876 256.051 74.3876 255.898 74.3876H255.285C255.183 74.3876 255.081 74.4412 255.081 74.5483V83.279C255.081 83.654 255.234 83.8682 255.643 83.8682H255.949C256.255 83.8682 256.357 83.7075 256.561 83.3862L259.828 77.7621L260.951 75.7802Z" fill="#535456"/>
<path d="M213.124 53.4445V92.3311" stroke="black" stroke-width="1.00373" stroke-miterlimit="22.9256"/>
<path fill-rule="evenodd" clip-rule="evenodd" d="M146.203 66.5671C147.582 72.5126 149.572 78.0296 152.176 83.1181C158.709 81.5647 164.63 78.9937 169.837 75.6728C165.039 65.4423 163.099 53.6585 163.405 41.6604C159.22 51.7302 153.503 59.9789 146.203 66.5671Z" fill="#836886"/>
<path fill-rule="evenodd" clip-rule="evenodd" d="M191.43 50.1771C189.439 45.9457 187.091 41.8213 184.692 37.9112L170.961 15.6291C170.145 20.1819 169.124 24.5741 167.95 28.6984C166.47 43.696 168.869 58.9614 175.862 71.1202C182.293 65.6568 187.5 58.5329 191.43 50.1771Z" fill="#D36601"/>
<path fill-rule="evenodd" clip-rule="evenodd" d="M194.441 89.8671C199.648 78.8331 198.116 66.9957 193.829 55.8011C190.102 63.8891 185.253 70.8523 179.332 76.5299C183.262 81.9398 188.316 86.4926 194.441 89.8671Z" fill="#FAB600"/>
<path fill-rule="evenodd" clip-rule="evenodd" d="M175.146 107.811C180.506 105.882 185.406 102.776 189.234 98.1158L189.387 97.9552C182.547 93.6166 177.188 88.0996 173.206 81.7256C168.153 85.3143 162.538 88.046 156.26 89.9207C161.058 96.991 167.387 102.99 175.146 107.811Z" fill="#005287"/>
<path fill-rule="evenodd" clip-rule="evenodd" d="M127.268 78.619C127.932 85.1001 130.331 91.5276 135.231 97.6338C142.02 106.15 152.28 109.953 162.54 109.953C163.203 109.953 163.969 109.953 164.632 109.9C152.994 99.9905 145.491 86.4391 142.173 70.0489C137.783 73.3163 132.832 76.2086 127.268 78.619Z" fill="#5AC0CA"/>
<path fill-rule="evenodd" clip-rule="evenodd" d="M140.64 37.1614L140.13 37.9113C133.698 48.3024 127.981 60.0327 127.165 71.8701C132.32 69.7276 136.965 67.0494 141.151 63.7285C140.028 55.5334 139.824 46.642 140.64 37.1614Z" fill="#A2C62D"/>
<path fill-rule="evenodd" clip-rule="evenodd" d="M162.385 1.86343L144.877 30.2517C143.601 41.1786 143.652 51.1948 145.03 60.354C154.525 51.3555 161.416 38.6075 166.163 21.0389C166.52 19.5927 166.826 18.2001 167.235 16.7539C167.643 15.0399 168 13.3259 168.409 11.5047L162.385 1.86343Z" fill="#535456"/>
<path fill-rule="evenodd" clip-rule="evenodd" d="M5.93585 66.9958V41.3928C5.93585 40.9643 5.83376 40.8572 5.42541 40.8572H3.63886C3.23051 40.8572 3.12842 40.9107 3.12842 41.3928V67.0494C3.12842 67.4779 3.23051 67.585 3.63886 67.585H5.47645C5.83376 67.5315 5.93585 67.4243 5.93585 66.9958ZM27.0171 66.9958V56.7118C27.0171 49.8022 24.5159 47.124 18.2885 47.124C17.1145 47.124 14.7154 47.3383 13.5414 47.499C12.2143 47.7132 11.6017 48.5702 11.6017 50.0164V67.0494C11.6017 67.4779 11.8059 67.585 12.1122 67.585H13.7456C14.154 67.585 14.256 67.5315 14.256 67.0494V49.9629C15.9915 49.5879 17.5229 49.5879 18.1354 49.5879C23.0867 49.5879 24.3117 51.9983 24.3117 56.8189V66.9958C24.3117 67.4243 24.5159 67.5315 24.8222 67.5315H26.5066C26.915 67.5315 27.0171 67.4243 27.0171 66.9958ZM30.5391 49.7486H33.2445V62.8179C33.2445 66.246 34.5206 67.8528 38.1958 67.8528C38.8593 67.8528 40.5438 67.7993 41.8709 67.3172C42.2282 67.1565 42.1772 66.9958 42.1262 66.728L41.8199 65.2818C41.7688 65.014 41.7688 64.9605 41.3095 65.014C40.4417 65.2283 39.1146 65.3354 38.502 65.3354C36.4603 65.3354 35.8477 64.4248 35.8477 62.4966V49.695H40.1354C40.5438 49.695 40.5948 49.5344 40.5948 49.213V47.9275C40.5948 47.6061 40.5438 47.3918 40.1354 47.3918H35.8988V42.839C35.8988 42.4641 35.6946 42.3034 35.3883 42.4105L34.4185 42.7854C34.0101 42.9461 33.908 42.9997 33.857 43.4282L33.3466 47.124L30.4881 47.6597C30.0797 47.7668 30.0287 47.8739 30.0287 48.2489V49.1594C30.0797 49.5344 30.0797 49.7486 30.5391 49.7486ZM52.335 47.0705C47.5368 47.0705 44.0658 50.7663 44.0658 57.5688C44.0658 64.7462 47.2816 67.8528 52.6413 67.8528C54.4788 67.8528 56.4696 67.5315 58.2051 66.4602C58.4603 66.3531 58.5624 66.0853 58.4092 65.8175L57.7967 64.4784C57.6946 64.2106 57.4394 64.157 57.1842 64.3177C56.1633 64.9605 54.4788 65.389 52.8965 65.389C49.5276 65.389 46.8222 63.4607 46.8222 58.158H57.8988C59.226 58.158 60.3489 57.6223 60.3489 55.5334C60.2468 50.6592 57.8478 47.0705 52.335 47.0705ZM57.6946 56.0155H46.8733C47.0774 52.4268 48.915 49.4808 52.386 49.4808C56.5717 49.4808 57.6946 52.4803 57.6946 56.0155ZM75.407 51.784L76.5299 50.2307C76.6831 50.0164 76.6831 49.8557 76.4789 49.695C74.5903 47.9275 72.1912 47.0705 69.3838 47.0705C68.516 47.0705 67.4951 47.124 66.3721 47.2847C64.7898 47.5525 64.4835 48.1953 64.4835 49.8022V66.9958C64.4835 67.4243 64.6366 67.5315 64.9939 67.5315H66.6274C67.0357 67.5315 67.1378 67.4779 67.1378 66.9958V49.8557C68.0056 49.5879 68.8733 49.5879 69.5369 49.5879C71.6807 49.5879 73.5183 50.4449 74.8455 51.784C75.0496 51.9982 75.1517 52.1054 75.407 51.784ZM94.1402 57.4081C94.1402 50.8734 91.2307 47.124 85.871 47.124C80.9708 47.124 77.4998 50.8199 77.4998 57.5688C77.4998 64.3713 80.4093 67.96 85.7689 67.96C91.1286 67.9064 94.1402 64.2106 94.1402 57.4081ZM91.4859 57.5152C91.4859 61.4789 90.1587 65.6032 85.82 65.6032C81.5323 65.6032 80.2051 62.1752 80.2051 57.4081C80.2051 53.1231 81.8896 49.4272 85.9221 49.4272C90.3119 49.4808 91.4859 53.3909 91.4859 57.5152ZM102.052 42.0356C102.052 40.9643 101.286 40.1073 100.214 40.1073C99.2446 40.1073 98.3768 40.9643 98.3768 42.0356C98.3768 43.1068 99.1935 43.9103 100.214 43.9103C101.286 43.9103 102.052 43.1068 102.052 42.0356ZM101.542 66.9958V48.0346C101.542 47.6061 101.439 47.499 101.031 47.499H99.3977C99.0404 47.499 98.8873 47.5525 98.8873 48.0346V66.9958C98.8873 67.4243 99.0915 67.5315 99.3977 67.5315H101.031C101.439 67.5315 101.542 67.4243 101.542 66.9958ZM113.384 66.8351L113.18 65.6032C113.129 65.3354 112.975 65.2283 112.72 65.2818C112.312 65.3354 111.904 65.389 111.393 65.389C110.372 65.389 110.066 64.8533 110.066 63.4607V40.2144C110.066 39.7859 109.964 39.6788 109.556 39.6788H107.871C107.463 39.6788 107.361 39.7324 107.361 40.2144V64.2641C107.361 66.6745 108.126 67.8528 110.474 67.8528C111.189 67.8528 112.21 67.7993 113.027 67.4243C113.384 67.3172 113.435 67.2637 113.384 66.8351Z" fill="#535456"/>
<path fill-rule="evenodd" clip-rule="evenodd" d="M23.3909 74.3874C22.6763 74.3874 21.9617 74.6553 21.4512 75.0302C20.9918 74.6017 20.5325 74.3874 19.6647 74.3874C19.3584 74.3874 18.848 74.441 18.4907 74.4946C18.0823 74.5481 17.9292 74.816 17.9292 75.1909V80.0115C17.9292 80.1187 17.9802 80.1722 18.0823 80.1722H18.5417C18.6438 80.1722 18.6949 80.1722 18.6949 80.0115V75.1909C19.2053 75.0838 19.5116 75.0838 19.7157 75.0838C21.0429 75.0838 21.4002 75.7801 21.4002 77.0656V80.0115C21.4002 80.1187 21.4512 80.1722 21.5533 80.1722H22.0127C22.1148 80.1722 22.1659 80.1722 22.1659 80.0115V77.0656C22.1659 76.4228 22.1148 75.8872 21.9106 75.4587C22.319 75.1909 22.9826 75.0302 23.3909 75.0302C24.5649 75.0302 24.9733 75.673 24.9733 77.0656V79.958C24.9733 80.0651 25.0243 80.1187 25.1264 80.1187H25.5858C25.6879 80.1187 25.739 80.1187 25.739 79.958V76.9049C25.5348 75.4587 25.0243 74.3874 23.3909 74.3874ZM30.9965 79.6902V76.2621C30.9965 75.0838 30.384 74.441 29.0568 74.441C28.4443 74.441 27.7807 74.5481 27.2703 74.7624C27.2192 74.8159 27.1682 74.8695 27.1682 74.9231L27.2703 75.3516C27.3213 75.4587 27.3724 75.4587 27.4745 75.4051C27.8828 75.2444 28.4443 75.1373 28.9037 75.1373C29.9756 75.1373 30.2308 75.673 30.2308 76.3693V76.6907H28.8527C27.3213 76.6907 26.6578 77.4941 26.6578 78.6189C26.6578 79.5295 27.1171 80.3865 28.8527 80.3865C29.4652 80.3865 30.2308 80.2794 30.8434 80.0115C30.9455 79.9044 30.9965 79.7973 30.9965 79.6902ZM30.2308 77.3334V79.4224C29.7204 79.583 29.1079 79.6366 28.8527 79.6366C28.138 79.6366 27.4234 79.3688 27.4234 78.5118C27.4234 77.387 28.3933 77.2798 28.9037 77.2798L30.2308 77.3334ZM35.5394 75.7265L35.8457 75.298C35.8967 75.2445 35.8967 75.1909 35.8457 75.1373C35.2842 74.6017 34.6206 74.441 33.855 74.441C33.5998 74.441 33.2935 74.441 33.0383 74.4946C32.5789 74.5481 32.4768 74.7624 32.4768 75.1909V80.0651C32.4768 80.1722 32.5278 80.2258 32.6299 80.2258H33.0893C33.1914 80.2258 33.2425 80.2258 33.2425 80.0651V75.2444C33.5487 75.1909 33.7529 75.1909 33.906 75.1909C34.5186 75.1909 35.029 75.4587 35.4373 75.8336C35.4373 75.7801 35.4884 75.7801 35.5394 75.7265ZM37.2749 77.4405L37.2239 72.4592C37.2239 72.3521 37.2239 72.2985 37.0708 72.2985H36.5603C36.4582 72.2985 36.4072 72.2985 36.4072 72.4592V80.0651C36.4072 80.1722 36.4582 80.2258 36.5603 80.2258H37.0708C37.1729 80.2258 37.2239 80.2258 37.2239 80.0651V78.5654L38.5 77.012L39.8272 80.0651C39.8782 80.1187 39.9292 80.1722 40.0313 80.1722H40.5928C40.6949 80.1722 40.6949 80.1187 40.6439 80.0651L39.0104 76.3693L40.3886 74.6017C40.4397 74.5481 40.4397 74.4946 40.3376 74.4946H39.7251C39.623 74.4946 39.5719 74.5481 39.5719 74.6017L37.2749 77.4405ZM43.6044 74.3874C42.2262 74.3874 41.2564 75.4051 41.2564 77.387C41.2564 79.4223 42.1752 80.3329 43.6555 80.3329C44.2169 80.3329 44.7274 80.2258 45.2378 79.9044C45.2889 79.8509 45.3399 79.7973 45.2889 79.6902L45.0847 79.3152C45.0337 79.2617 44.9826 79.2081 44.8805 79.2617C44.5743 79.4223 44.1149 79.583 43.6555 79.583C42.7367 79.583 41.92 79.0474 41.92 77.5477H45.0337C45.442 77.5477 45.6972 77.387 45.6972 76.8513C45.8504 75.4587 45.1868 74.3874 43.6044 74.3874ZM45.1357 76.9049H42.022C42.0731 75.8872 42.6346 75.0302 43.6044 75.0302C44.7784 75.0838 45.1357 75.9408 45.1357 76.9049ZM46.616 75.1909H47.3817V78.8867C47.3817 79.8509 47.739 80.3329 48.8109 80.3329C49.0151 80.3329 49.4745 80.3329 49.8318 80.1722C49.9339 80.1187 49.9339 80.0651 49.8829 80.0115L49.7808 79.583C49.7808 79.5295 49.7808 79.4759 49.6276 79.5295C49.3724 79.583 49.0151 79.6366 48.862 79.6366C48.2494 79.6366 48.1473 79.3688 48.1473 78.8332V75.1909H49.3724C49.4745 75.1909 49.5255 75.1373 49.5255 75.0302V74.6553C49.5255 74.5481 49.5255 74.4946 49.3724 74.4946H48.1984V73.2091C48.1984 73.1019 48.1473 73.0484 48.0453 73.1019L47.739 73.2091C47.6369 73.2626 47.5859 73.2626 47.5859 73.4233L47.4327 74.441L46.616 74.6017C46.5139 74.6553 46.4629 74.6553 46.4629 74.7624V75.0302C46.5139 75.1373 46.5139 75.1909 46.616 75.1909ZM51.8225 72.9413C51.8225 72.6199 51.5673 72.3521 51.3121 72.3521C51.0058 72.3521 50.8016 72.6199 50.8016 72.9413C50.8016 73.2626 51.0569 73.4769 51.3121 73.4769C51.5673 73.4769 51.8225 73.2626 51.8225 72.9413ZM51.6694 80.0651V74.6553C51.6694 74.5481 51.6184 74.4946 51.5163 74.4946H51.0569C50.9548 74.4946 50.9037 74.4946 50.9037 74.6553V80.0651C50.9037 80.1722 50.9548 80.2258 51.0569 80.2258H51.5163C51.6184 80.1722 51.6694 80.1722 51.6694 80.0651ZM57.5905 80.0651V77.1191C57.5905 75.1909 56.9269 74.3874 55.1404 74.3874C54.7831 74.3874 54.1195 74.441 53.8133 74.4946C53.4049 74.5481 53.2518 74.816 53.2518 75.1909V80.0115C53.2518 80.1187 53.3028 80.1722 53.4049 80.1722H53.8643C53.9664 80.1722 54.0174 80.1722 54.0174 80.0115V75.1909C54.5279 75.0838 54.9362 75.0838 55.0894 75.0838C56.5186 75.0838 56.8759 75.7265 56.8759 77.1191V80.0115C56.8759 80.1187 56.9269 80.1722 57.029 80.1722H57.5395C57.5395 80.1722 57.5905 80.1722 57.5905 80.0651ZM62.4908 75.298V79.3688C61.9293 79.583 61.3678 79.6366 61.0615 79.6366C60.0406 79.6366 59.4281 78.8867 59.4281 77.387C59.4281 75.7801 60.0917 75.0838 61.1636 75.0838C61.5209 75.0838 62.0314 75.1373 62.4908 75.298ZM61.1636 74.3874C59.4281 74.3874 58.7135 75.673 58.7135 77.387C58.7135 79.0474 59.3771 80.2794 61.0105 80.2794C61.4188 80.2794 62.0314 80.1722 62.4908 80.0115V80.0651C62.4908 81.297 61.8272 81.6184 60.6021 81.8327C60.5511 81.8327 60.5 81.8862 60.5 81.9398L60.5511 82.4754C60.5511 82.529 60.6021 82.5826 60.7042 82.5826C62.3376 82.3683 63.2564 81.7256 63.2564 79.7973V74.9766C63.2564 74.9231 63.2054 74.8159 63.1543 74.7624C62.4908 74.4946 61.7761 74.3874 61.1636 74.3874ZM70.811 78.4047C70.3516 79.1545 69.739 79.6366 69.1265 79.6366C68.514 79.6366 67.9525 79.3152 67.9525 78.4582C67.9525 77.6012 68.565 76.9585 69.3307 76.53C69.8922 77.1727 70.3516 77.7619 70.811 78.4047ZM72.4444 80.1722H73.0059C73.1079 80.1722 73.1079 80.0651 73.0569 80.0115C72.8017 79.7437 72.5975 79.4759 72.4444 79.3152C72.0871 78.9403 71.7808 78.5118 71.7298 78.4047C72.1381 77.6012 72.4444 76.7442 73.5673 76.53C73.6184 76.53 73.7205 76.4764 73.6694 76.3693L73.6184 75.9408C73.6184 75.8872 73.5673 75.8336 73.4653 75.8336C73.3121 75.8336 73.159 75.8872 73.0059 75.9408C72.1892 76.2621 71.7298 77.012 71.2704 77.7619C70.811 77.1727 70.5557 76.8513 70.0453 76.1015C70.811 75.5658 71.5256 74.9766 71.5256 74.0125C71.5256 73.1019 70.862 72.4592 69.8922 72.4592C69.0244 72.4592 68.2077 73.1019 68.2077 74.1196C68.2077 74.7088 68.565 75.298 69.0244 75.9408C68.1056 76.5835 67.34 77.4941 67.34 78.5118C67.34 79.6366 67.9525 80.3329 69.1775 80.3329C70.0963 80.3329 70.7599 79.7973 71.3214 78.9938L72.1892 80.0651C72.2402 80.1722 72.2912 80.1722 72.4444 80.1722ZM70.7089 74.1196C70.7089 74.816 70.0963 75.298 69.5859 75.6194C69.2286 75.1909 68.9223 74.6553 68.9223 74.1196C68.9223 73.5304 69.2796 73.2091 69.8411 73.2091C70.4537 73.1555 70.7089 73.6911 70.7089 74.1196ZM80.9687 78.726C80.9687 77.7619 80.2031 77.3334 79.2843 76.9585C78.3655 76.5835 78.0082 76.3693 78.0082 75.8872C78.0082 75.4051 78.4165 75.0838 79.0291 75.0838C79.4885 75.0838 79.8458 75.1373 80.4073 75.4051C80.4583 75.4587 80.5094 75.4587 80.5604 75.3516L80.7135 74.9231C80.7646 74.816 80.7135 74.7624 80.6625 74.7088C80.101 74.4946 79.6416 74.3874 79.0801 74.3874C77.9061 74.3874 77.2425 75.0302 77.2425 75.9408C77.2425 76.7442 77.7019 77.1192 78.8759 77.6012C79.6926 77.9226 80.2031 78.244 80.2031 78.7796C80.2031 79.4224 79.6926 79.6902 79.0291 79.6902C78.5186 79.6902 77.9571 79.583 77.3446 79.2617C77.2425 79.2081 77.1915 79.2617 77.1404 79.3152L76.9873 79.6902C76.9363 79.7973 76.9873 79.8509 77.0383 79.9044C77.5998 80.2258 78.3655 80.3329 78.978 80.3329C80.152 80.3329 80.9687 79.7437 80.9687 78.726ZM84.1335 74.3874C82.7553 74.3874 81.7855 75.4051 81.7855 77.387C81.7855 79.4223 82.7042 80.3329 84.1845 80.3329C84.746 80.3329 85.2565 80.2258 85.7669 79.9044C85.8179 79.8509 85.869 79.7973 85.8179 79.6902L85.6138 79.3152C85.5627 79.2617 85.5117 79.2081 85.4096 79.2617C85.1033 79.4223 84.6439 79.583 84.1845 79.583C83.2657 79.583 82.449 79.0474 82.449 77.5477H85.5627C85.9711 77.5477 86.2263 77.387 86.2263 76.8513C86.3794 75.4587 85.6648 74.3874 84.1335 74.3874ZM85.6648 76.9049H82.6022C82.6532 75.8872 83.2147 75.0302 84.1845 75.0302C85.3075 75.0838 85.6648 75.9408 85.6648 76.9049ZM90.6671 75.7265L90.9734 75.298C91.0245 75.2445 91.0245 75.1909 90.9734 75.1373C90.4119 74.6017 89.7484 74.441 88.9827 74.441C88.7275 74.441 88.4212 74.441 88.166 74.4946C87.7066 74.5481 87.6045 74.7624 87.6045 75.1909V80.0651C87.6045 80.1722 87.6555 80.2258 87.7576 80.2258H88.217C88.3191 80.2258 88.3702 80.2258 88.3702 80.0651V75.2444C88.6764 75.1909 88.8806 75.1909 89.0337 75.1909C89.6463 75.1909 90.1567 75.4587 90.565 75.8336C90.565 75.7801 90.5651 75.7801 90.6671 75.7265ZM94.0361 79.7973C93.934 80.1187 93.8829 80.2258 93.5256 80.1722H93.1683C92.9131 80.1722 92.811 80.0651 92.7089 79.7437L90.9734 74.5481C90.9224 74.4946 90.9734 74.441 91.0245 74.441H91.637C91.7391 74.441 91.7391 74.4946 91.7901 74.5481L92.862 77.8155L93.3725 79.4759H93.4235L93.934 77.869L94.9548 74.6553C95.0059 74.6017 95.0569 74.5481 95.108 74.5481H95.7205C95.7716 74.5481 95.7716 74.6017 95.7716 74.6553L94.0361 79.7973ZM97.6602 72.9413C97.6602 72.6199 97.405 72.3521 97.1498 72.3521C96.8435 72.3521 96.6393 72.6199 96.6393 72.9413C96.6393 73.2626 96.8945 73.4769 97.1498 73.4769C97.456 73.4769 97.6602 73.2626 97.6602 72.9413ZM97.5581 80.0651V74.6553C97.5581 74.5481 97.5071 74.4946 97.405 74.4946H96.9456C96.8435 74.4946 96.7924 74.4946 96.7924 74.6553V80.0651C96.7924 80.1722 96.8435 80.2258 96.9456 80.2258H97.405C97.5071 80.1722 97.5581 80.1722 97.5581 80.0651ZM101.335 79.6366C100.059 79.6366 99.6509 78.6725 99.6509 77.4405C99.6509 76.2621 100.161 75.1373 101.335 75.1373C101.795 75.1373 102.152 75.298 102.509 75.4587C102.611 75.5123 102.663 75.4587 102.714 75.4051L102.918 75.0302C102.969 74.9766 102.969 74.8695 102.867 74.816C102.356 74.5481 101.897 74.441 101.335 74.441C99.8551 74.441 98.9363 75.5658 98.9363 77.4405C98.9363 79.3688 99.702 80.3329 101.284 80.3329C101.897 80.3329 102.458 80.2258 103.02 79.9044C103.071 79.8509 103.122 79.7973 103.071 79.6902L102.918 79.3152C102.867 79.2617 102.867 79.2081 102.714 79.2617C102.305 79.4759 101.795 79.6366 101.335 79.6366ZM106.082 74.3874C104.704 74.3874 103.734 75.4051 103.734 77.387C103.734 79.4223 104.653 80.3329 106.134 80.3329C106.695 80.3329 107.205 80.2258 107.716 79.9044C107.767 79.8509 107.818 79.7973 107.767 79.6902L107.563 79.3152C107.512 79.2617 107.461 79.2081 107.359 79.2617C107.052 79.4223 106.593 79.583 106.134 79.583C105.215 79.583 104.398 79.0474 104.398 77.5477H107.512C107.92 77.5477 108.175 77.387 108.175 76.8513C108.328 75.4587 107.614 74.3874 106.082 74.3874ZM107.563 76.9049H104.5C104.551 75.8872 105.113 75.0302 106.082 75.0302C107.308 75.0838 107.563 75.9408 107.563 76.9049ZM113.024 78.726C113.024 77.7619 112.259 77.3334 111.34 76.9585C110.421 76.5835 110.064 76.3693 110.064 75.8872C110.064 75.4051 110.472 75.0838 111.085 75.0838C111.544 75.0838 111.902 75.1373 112.463 75.4051C112.514 75.4587 112.565 75.4587 112.616 75.3516L112.769 74.9231C112.82 74.816 112.769 74.7624 112.718 74.7088C112.157 74.4946 111.697 74.3874 111.136 74.3874C109.962 74.3874 109.298 75.0302 109.298 75.9408C109.298 76.7442 109.758 77.1192 110.932 77.6012C111.748 77.9226 112.259 78.244 112.259 78.7796C112.259 79.4224 111.748 79.6902 111.085 79.6902C110.574 79.6902 110.013 79.583 109.4 79.2617C109.298 79.2081 109.247 79.2617 109.196 79.3152L109.043 79.6902C108.992 79.7973 109.043 79.8509 109.094 79.9044C109.656 80.2258 110.421 80.3329 111.034 80.3329C112.259 80.3329 113.024 79.7437 113.024 78.726Z" fill="#535456"/>
<path fill-rule="evenodd" clip-rule="evenodd" d="M222.974 72.8878V68.4957H227.824V72.8878C227.824 73.0485 227.875 73.0485 228.028 73.0485H228.64C228.793 73.0485 228.844 72.995 228.844 72.8878V63.7822C228.844 63.6215 228.793 63.6215 228.64 63.6215H228.028C227.875 63.6215 227.824 63.675 227.824 63.7822V67.6387H222.974V63.7822C222.974 63.6215 222.923 63.6215 222.77 63.6215H222.107C222.005 63.6215 221.902 63.675 221.902 63.7822V72.8878C221.902 73.0485 221.954 73.0485 222.107 73.0485H222.77C222.923 73.0485 222.974 72.995 222.974 72.8878ZM236.603 72.7807V72.2986C236.603 72.138 236.552 72.0308 236.399 72.0308H232.826C232.009 72.0308 231.703 71.6023 231.703 70.906V68.3886H235.889C236.042 68.3886 236.093 68.2814 236.093 68.1743V67.7994C236.093 67.6387 236.042 67.5851 235.889 67.5851H231.703V65.6569C231.703 64.907 232.06 64.4785 232.826 64.4785H236.297C236.45 64.4785 236.501 64.4249 236.501 64.2642V63.7822C236.501 63.6215 236.45 63.5143 236.297 63.5143H232.826C231.295 63.5143 230.733 64.532 230.733 65.764V70.7989C230.733 72.0308 231.244 73.0485 232.826 73.0485H236.399C236.603 73.0485 236.603 72.9414 236.603 72.7807ZM242.32 67.9601V67.9065C242.933 67.5851 243.239 66.9959 243.443 66.1925L244.056 63.7822C244.107 63.675 244.107 63.5679 243.903 63.5679H243.29C243.188 63.5679 243.137 63.5679 243.086 63.7286L242.473 66.1389C242.167 67.3173 241.503 67.5851 240.84 67.5851H239.002V63.7822C239.002 63.6215 238.951 63.6215 238.849 63.6215H238.237C238.135 63.6215 238.032 63.675 238.032 63.7822V72.8878C238.032 73.0485 238.083 73.0485 238.237 73.0485H238.849C239.002 73.0485 239.053 72.995 239.053 72.8878V68.4957H241.044C241.912 68.4957 242.422 68.7635 242.728 69.8883L243.494 72.9414C243.545 73.1021 243.647 73.1021 243.749 73.1021H244.362C244.515 73.1021 244.566 72.995 244.515 72.8878L243.698 69.7276C243.494 68.8171 243.188 68.2279 242.32 67.9601ZM248.803 72.8878V64.532H251.457C251.61 64.532 251.61 64.4785 251.61 64.3713V63.8357C251.61 63.675 251.559 63.6215 251.457 63.6215H245.179C245.025 63.6215 245.025 63.675 245.025 63.8357V64.3713C245.025 64.532 245.025 64.532 245.179 64.532H247.782V72.8878C247.782 73.0485 247.833 73.0485 247.986 73.0485H248.65C248.752 73.0485 248.803 72.995 248.803 72.8878ZM258.042 73.0485C257.889 73.0485 257.838 73.0485 257.787 72.8878L257.123 70.7989H253.295C253.193 71.0667 252.733 72.62 252.631 72.8878C252.58 72.995 252.529 73.0485 252.376 73.0485H251.661C251.508 73.0485 251.457 72.9414 251.508 72.8343L254.469 63.9964C254.622 63.6215 254.673 63.5143 255.03 63.5143H255.387C255.796 63.5143 255.847 63.6215 256 63.9964L258.961 72.8343C259.012 72.9414 258.961 73.0485 258.807 73.0485H258.042ZM255.847 66.7281L255.234 64.6927H255.183L254.571 66.6746L253.601 69.8348H256.868L255.847 66.7281ZM260.032 64.1571V72.8878C260.032 73.0485 260.084 73.0485 260.186 73.0485H260.798C260.951 73.0485 261.002 73.0485 261.002 72.8878V69.1384H263.503C265.8 69.1384 266.311 67.3173 266.311 66.2996C266.311 64.6927 265.239 63.5143 263.606 63.5143H260.645C260.186 63.5143 260.032 63.7286 260.032 64.1571ZM261.053 68.2279V64.4785H263.401C264.882 64.4785 265.29 65.5497 265.29 66.3532C265.29 67.5316 264.575 68.2279 263.401 68.2279H261.053ZM223.842 75.191C224.914 75.191 225.884 75.566 225.884 76.6908C225.884 77.7085 225.016 78.3512 223.842 78.3512H223.179C222.923 78.3512 222.821 78.4584 222.821 78.7262V78.994C222.821 79.2082 222.974 79.3689 223.23 79.3689H223.944C225.425 79.3689 226.241 80.1188 226.241 81.1365C226.241 82.3149 225.476 83.1719 223.587 83.1719C222.821 83.1719 221.902 82.9576 221.29 82.6363C221.137 82.5827 221.086 82.6363 221.035 82.7434L220.831 83.1719C220.728 83.3326 220.78 83.3861 220.882 83.4933C221.749 84.0289 222.974 84.136 223.791 84.136C226.088 84.136 227.364 82.9041 227.364 81.2436C227.364 80.1188 226.599 79.1547 225.425 78.9404V78.8869C226.394 78.5119 227.058 77.7085 227.058 76.6908C227.058 75.1375 225.833 74.334 224.046 74.334C223.179 74.334 222.209 74.4947 221.341 74.9768C221.239 75.0303 221.188 75.0839 221.29 75.2446L221.494 75.7267C221.545 75.8338 221.596 75.8874 221.749 75.8338C222.311 75.3517 223.076 75.191 223.842 75.191ZM234.715 83.6004V83.1183C234.715 82.9576 234.664 82.8505 234.51 82.8505H230.937C230.121 82.8505 229.814 82.422 229.814 81.7257V79.2082H234C234.153 79.2082 234.204 79.1011 234.204 78.994V78.5655C234.204 78.4048 234.153 78.3512 234 78.3512H229.814V76.423C229.814 75.6731 230.172 75.2446 230.937 75.2446H234.408C234.561 75.2446 234.612 75.191 234.612 75.0303V74.5483C234.612 74.3876 234.561 74.2805 234.408 74.2805H230.937C229.406 74.2805 228.844 75.2982 228.844 76.5301V81.565C228.844 82.797 229.355 83.8146 230.937 83.8146H234.51C234.664 83.8682 234.715 83.8146 234.715 83.6004ZM240.329 81.7793H240.278C240.125 81.4579 239.666 80.1188 239.513 79.7974C239.257 79.2082 237.675 75.1375 237.573 74.8697C237.42 74.4412 237.318 74.3876 236.961 74.3876H236.654C236.195 74.3876 236.093 74.6018 236.093 74.9768V83.7075C236.093 83.8682 236.144 83.8682 236.297 83.8682H236.909C237.063 83.8682 237.114 83.8146 237.114 83.7075V76.3159H237.216L237.828 77.8156C238.237 78.7262 239.258 81.3508 239.615 82.3149C239.768 82.6898 239.87 82.797 240.227 82.797H240.585C240.942 82.797 241.044 82.6898 241.146 82.3149C241.554 81.4043 242.524 78.7797 242.933 77.8692L243.596 76.2087H243.647V83.7075C243.647 83.8682 243.698 83.8682 243.851 83.8682H244.464C244.566 83.8682 244.668 83.8146 244.668 83.7075V74.9768C244.668 74.6018 244.566 74.3876 244.107 74.3876H243.8C243.494 74.3876 243.341 74.4412 243.188 74.8697C242.882 75.6731 241.708 78.7262 241.248 79.851C240.993 80.1188 240.483 81.4579 240.329 81.7793ZM247.782 75.1375L247.68 76.7979C247.425 80.9223 247.425 82.3685 245.74 83.1183C245.638 83.1719 245.587 83.1719 245.638 83.3862L245.74 83.8682C245.791 84.0289 245.893 84.0825 245.995 84.0289C248.292 83.279 248.343 81.1365 248.65 76.9586L248.752 75.2982H252.223V83.654C252.223 83.8147 252.274 83.8146 252.427 83.8146H253.09C253.244 83.8146 253.295 83.7611 253.295 83.654V75.0839C253.295 74.6018 253.039 74.334 252.631 74.334H248.599C248.037 74.3876 247.782 74.6018 247.782 75.1375ZM260.951 75.7802H261.002V83.7075C261.002 83.8682 261.053 83.8682 261.206 83.8682H261.819C261.972 83.8682 262.023 83.8146 262.023 83.7075V74.9768C262.023 74.6018 261.921 74.3876 261.462 74.3876H261.155C260.798 74.3876 260.747 74.4947 260.543 74.8697L257.174 80.6544L256.153 82.422H256.102V74.5483C256.102 74.3876 256.051 74.3876 255.898 74.3876H255.285C255.183 74.3876 255.081 74.4412 255.081 74.5483V83.279C255.081 83.654 255.234 83.8682 255.643 83.8682H255.949C256.255 83.8682 256.357 83.7075 256.561 83.3862L259.828 77.7621L260.951 75.7802Z" fill="black"/>
<path d="M213.124 53.4443V92.3309" stroke="#535456" stroke-width="1.00373" stroke-miterlimit="22.9256"/>
<path fill-rule="evenodd" clip-rule="evenodd" d="M146.203 66.5671C147.582 72.5125 149.572 78.0295 152.176 83.118C158.709 81.5647 164.63 78.9936 169.837 75.6727C165.039 65.4422 163.099 53.6584 163.405 41.6604C159.22 51.7302 153.503 59.9788 146.203 66.5671Z" fill="#836886"/>
<path fill-rule="evenodd" clip-rule="evenodd" d="M191.43 50.177C189.439 45.9456 187.091 41.8212 184.692 37.9111L170.961 15.629C170.145 20.1819 169.124 24.574 167.95 28.6983C166.47 43.6959 168.869 58.9613 175.862 71.1201C182.293 65.6567 187.5 58.5328 191.43 50.177Z" fill="#D36601"/>
<path fill-rule="evenodd" clip-rule="evenodd" d="M194.441 89.867C199.648 78.833 198.116 66.9957 193.829 55.801C190.102 63.889 185.253 70.8522 179.332 76.5298C183.262 81.9397 188.316 86.4925 194.441 89.867Z" fill="#FAB600"/>
<path fill-rule="evenodd" clip-rule="evenodd" d="M127.268 78.6189C127.932 85.1 130.331 91.5275 135.231 97.6337C142.02 106.15 152.28 109.953 162.54 109.953C163.203 109.953 163.969 109.953 164.632 109.9C152.994 99.9904 145.491 86.4391 142.173 70.0488C137.783 73.3162 132.832 76.2086 127.268 78.6189Z" fill="#5AC0CA"/>
<path fill-rule="evenodd" clip-rule="evenodd" d="M140.64 37.1613L140.13 37.9112C133.698 48.3023 127.981 60.0326 127.165 71.87C132.32 69.7275 136.965 67.0493 141.151 63.7284C140.028 55.5333 139.824 46.6419 140.64 37.1613Z" fill="#A2C62D"/>
<path fill-rule="evenodd" clip-rule="evenodd" d="M162.385 1.86334L144.877 30.2516C143.601 41.1785 143.652 51.1947 145.03 60.354C154.525 51.3554 161.416 38.6074 166.163 21.0388C166.52 19.5926 166.826 18.2 167.235 16.7538C167.643 15.0398 168 13.3258 168.409 11.5047L162.385 1.86334Z" fill="#535456"/>
<path fill-rule="evenodd" clip-rule="evenodd" d="M5.93585 66.9957V41.3927C5.93585 40.9642 5.83376 40.857 5.42541 40.857H3.63886C3.23051 40.857 3.12842 40.9106 3.12842 41.3927V67.0492C3.12842 67.4777 3.23051 67.5849 3.63886 67.5849H5.47645C5.83376 67.5313 5.93585 67.4242 5.93585 66.9957ZM27.0171 66.9957V56.7116C27.0171 49.802 24.5159 47.1239 18.2885 47.1239C17.1145 47.1239 14.7154 47.3381 13.5414 47.4988C12.2143 47.7131 11.6017 48.5701 11.6017 50.0163V67.0492C11.6017 67.4777 11.8059 67.5849 12.1122 67.5849H13.7456C14.154 67.5849 14.256 67.5313 14.256 67.0492V49.9627C15.9915 49.5878 17.5229 49.5878 18.1354 49.5878C23.0867 49.5878 24.3117 51.9981 24.3117 56.8188V66.9957C24.3117 67.4242 24.5159 67.5313 24.8222 67.5313H26.5066C26.915 67.5313 27.0171 67.4242 27.0171 66.9957ZM30.5391 49.7485H33.2445V62.8178C33.2445 66.2458 34.5206 67.8527 38.1958 67.8527C38.8593 67.8527 40.5438 67.7991 41.8709 67.3171C42.2282 67.1564 42.1772 66.9957 42.1262 66.7279L41.8199 65.2817C41.7688 65.0139 41.7688 64.9603 41.3095 65.0139C40.4417 65.2281 39.1146 65.3352 38.502 65.3352C36.4603 65.3352 35.8477 64.4247 35.8477 62.4964V49.6949H40.1354C40.5438 49.6949 40.5948 49.5342 40.5948 49.2128V47.9273C40.5948 47.6059 40.5438 47.3917 40.1354 47.3917H35.8988V42.8389C35.8988 42.4639 35.6946 42.3032 35.3883 42.4104L34.4185 42.7853C34.0101 42.946 33.908 42.9995 33.857 43.428L33.3466 47.1239L30.4881 47.6595C30.0797 47.7666 30.0287 47.8738 30.0287 48.2487V49.1593C30.0797 49.5342 30.0797 49.7485 30.5391 49.7485ZM52.335 47.0703C47.5368 47.0703 44.0658 50.7662 44.0658 57.5686C44.0658 64.746 47.2816 67.8527 52.6413 67.8527C54.4788 67.8527 56.4696 67.5313 58.2051 66.4601C58.4603 66.3529 58.5624 66.0851 58.4092 65.8173L57.7967 64.4782C57.6946 64.2104 57.4394 64.1569 57.1842 64.3175C56.1633 64.9603 54.4788 65.3888 52.8965 65.3888C49.5276 65.3888 46.8222 63.4605 46.8222 58.1578H57.8988C59.226 58.1578 60.3489 57.6222 60.3489 55.5332C60.2468 50.659 57.8478 47.0703 52.335 47.0703ZM57.6946 56.0153H46.8733C47.0774 52.4266 48.915 49.4806 52.386 49.4806C56.5717 49.4806 57.6946 52.4802 57.6946 56.0153ZM75.407 51.7838L76.5299 50.2305C76.6831 50.0163 76.6831 49.8556 76.4789 49.6949C74.5903 47.9273 72.1912 47.0703 69.3838 47.0703C68.516 47.0703 67.4951 47.1239 66.3721 47.2846C64.7898 47.5524 64.4835 48.1951 64.4835 49.802V66.9957C64.4835 67.4242 64.6366 67.5313 64.9939 67.5313H66.6274C67.0357 67.5313 67.1378 67.4778 67.1378 66.9957V49.8556C68.0056 49.5878 68.8733 49.5878 69.5369 49.5878C71.6807 49.5878 73.5183 50.4448 74.8455 51.7838C75.0496 51.9981 75.1517 52.1052 75.407 51.7838ZM94.1402 57.4079C94.1402 50.8733 91.2307 47.1239 85.871 47.1239C80.9708 47.1239 77.4998 50.8197 77.4998 57.5686C77.4998 64.3711 80.4093 67.9598 85.7689 67.9598C91.1286 67.9063 94.1402 64.2104 94.1402 57.4079ZM91.4859 57.5151C91.4859 61.4787 90.1587 65.6031 85.82 65.6031C81.5323 65.6031 80.2051 62.175 80.2051 57.4079C80.2051 53.1229 81.8896 49.4271 85.9221 49.4271C90.3119 49.4806 91.4859 53.3907 91.4859 57.5151ZM102.052 42.0354C102.052 40.9642 101.286 40.1072 100.214 40.1072C99.2446 40.1072 98.3768 40.9642 98.3768 42.0354C98.3768 43.1067 99.1935 43.9101 100.214 43.9101C101.286 43.9101 102.052 43.1067 102.052 42.0354ZM101.542 66.9957V48.0344C101.542 47.6059 101.439 47.4988 101.031 47.4988H99.3977C99.0404 47.4988 98.8873 47.5524 98.8873 48.0344V66.9957C98.8873 67.4242 99.0915 67.5313 99.3977 67.5313H101.031C101.439 67.5313 101.542 67.4242 101.542 66.9957ZM113.384 66.835L113.18 65.6031C113.129 65.3352 112.975 65.2281 112.72 65.2817C112.312 65.3352 111.904 65.3888 111.393 65.3888C110.372 65.3888 110.066 64.8532 110.066 63.4605V40.2143C110.066 39.7858 109.964 39.6786 109.556 39.6786H107.871C107.463 39.6786 107.361 39.7322 107.361 40.2143V64.264C107.361 66.6743 108.126 67.8527 110.474 67.8527C111.189 67.8527 112.21 67.7991 113.027 67.4242C113.384 67.3171 113.435 67.2635 113.384 66.835Z" fill="black"/>
<path fill-rule="evenodd" clip-rule="evenodd" d="M23.3909 74.3874C22.6763 74.3874 21.9617 74.6553 21.4512 75.0302C20.9918 74.6017 20.5325 74.3874 19.6647 74.3874C19.3584 74.3874 18.848 74.441 18.4907 74.4946C18.0823 74.5481 17.9292 74.816 17.9292 75.1909V80.0115C17.9292 80.1187 17.9802 80.1722 18.0823 80.1722H18.5417C18.6438 80.1722 18.6949 80.1722 18.6949 80.0115V75.1909C19.2053 75.0838 19.5116 75.0838 19.7157 75.0838C21.0429 75.0838 21.4002 75.7801 21.4002 77.0656V80.0115C21.4002 80.1187 21.4512 80.1722 21.5533 80.1722H22.0127C22.1148 80.1722 22.1659 80.1722 22.1659 80.0115V77.0656C22.1659 76.4228 22.1148 75.8872 21.9106 75.4587C22.319 75.1909 22.9826 75.0302 23.3909 75.0302C24.5649 75.0302 24.9733 75.673 24.9733 77.0656V79.958C24.9733 80.0651 25.0243 80.1187 25.1264 80.1187H25.5858C25.6879 80.1187 25.739 80.1187 25.739 79.958V76.9049C25.5348 75.4587 25.0243 74.3874 23.3909 74.3874ZM30.9965 79.6902V76.2621C30.9965 75.0838 30.384 74.441 29.0568 74.441C28.4443 74.441 27.7807 74.5481 27.2703 74.7624C27.2192 74.8159 27.1682 74.8695 27.1682 74.9231L27.2703 75.3516C27.3213 75.4587 27.3724 75.4587 27.4745 75.4051C27.8828 75.2444 28.4443 75.1373 28.9037 75.1373C29.9756 75.1373 30.2308 75.673 30.2308 76.3693V76.6907H28.8527C27.3213 76.6907 26.6578 77.4941 26.6578 78.6189C26.6578 79.5295 27.1171 80.3865 28.8527 80.3865C29.4652 80.3865 30.2308 80.2794 30.8434 80.0115C30.9455 79.9044 30.9965 79.7973 30.9965 79.6902ZM30.2308 77.3334V79.4224C29.7204 79.583 29.1079 79.6366 28.8527 79.6366C28.138 79.6366 27.4234 79.3688 27.4234 78.5118C27.4234 77.387 28.3933 77.2798 28.9037 77.2798L30.2308 77.3334ZM35.5394 75.7265L35.8457 75.298C35.8967 75.2445 35.8967 75.1909 35.8457 75.1373C35.2842 74.6017 34.6206 74.441 33.855 74.441C33.5998 74.441 33.2935 74.441 33.0383 74.4946C32.5789 74.5481 32.4768 74.7624 32.4768 75.1909V80.0651C32.4768 80.1722 32.5278 80.2258 32.6299 80.2258H33.0893C33.1914 80.2258 33.2425 80.2258 33.2425 80.0651V75.2444C33.5487 75.1909 33.7529 75.1909 33.906 75.1909C34.5186 75.1909 35.029 75.4587 35.4373 75.8336C35.4373 75.7801 35.4884 75.7801 35.5394 75.7265ZM37.2749 77.4405L37.2239 72.4592C37.2239 72.3521 37.2239 72.2985 37.0708 72.2985H36.5603C36.4582 72.2985 36.4072 72.2985 36.4072 72.4592V80.0651C36.4072 80.1722 36.4582 80.2258 36.5603 80.2258H37.0708C37.1729 80.2258 37.2239 80.2258 37.2239 80.0651V78.5654L38.5 77.012L39.8272 80.0651C39.8782 80.1187 39.9292 80.1722 40.0313 80.1722H40.5928C40.6949 80.1722 40.6949 80.1187 40.6439 80.0651L39.0104 76.3693L40.3886 74.6017C40.4397 74.5481 40.4397 74.4946 40.3376 74.4946H39.7251C39.623 74.4946 39.5719 74.5481 39.5719 74.6017L37.2749 77.4405ZM43.6044 74.3874C42.2262 74.3874 41.2564 75.4051 41.2564 77.387C41.2564 79.4223 42.1752 80.3329 43.6555 80.3329C44.2169 80.3329 44.7274 80.2258 45.2378 79.9044C45.2889 79.8509 45.3399 79.7973 45.2889 79.6902L45.0847 79.3152C45.0337 79.2617 44.9826 79.2081 44.8805 79.2617C44.5743 79.4223 44.1149 79.583 43.6555 79.583C42.7367 79.583 41.92 79.0474 41.92 77.5477H45.0337C45.442 77.5477 45.6972 77.387 45.6972 76.8513C45.8504 75.4587 45.1868 74.3874 43.6044 74.3874ZM45.1357 76.9049H42.022C42.0731 75.8872 42.6346 75.0302 43.6044 75.0302C44.7784 75.0838 45.1357 75.9408 45.1357 76.9049ZM46.616 75.1909H47.3817V78.8867C47.3817 79.8509 47.739 80.3329 48.8109 80.3329C49.0151 80.3329 49.4745 80.3329 49.8318 80.1722C49.9339 80.1187 49.9339 80.0651 49.8829 80.0115L49.7808 79.583C49.7808 79.5295 49.7808 79.4759 49.6276 79.5295C49.3724 79.583 49.0151 79.6366 48.862 79.6366C48.2494 79.6366 48.1473 79.3688 48.1473 78.8332V75.1909H49.3724C49.4745 75.1909 49.5255 75.1373 49.5255 75.0302V74.6553C49.5255 74.5481 49.5255 74.4946 49.3724 74.4946H48.1984V73.2091C48.1984 73.1019 48.1473 73.0484 48.0453 73.1019L47.739 73.2091C47.6369 73.2626 47.5859 73.2626 47.5859 73.4233L47.4327 74.441L46.616 74.6017C46.5139 74.6553 46.4629 74.6553 46.4629 74.7624V75.0302C46.5139 75.1373 46.5139 75.1909 46.616 75.1909ZM51.8225 72.9413C51.8225 72.6199 51.5673 72.3521 51.3121 72.3521C51.0058 72.3521 50.8016 72.6199 50.8016 72.9413C50.8016 73.2626 51.0569 73.4769 51.3121 73.4769C51.5673 73.4769 51.8225 73.2626 51.8225 72.9413ZM51.6694 80.0651V74.6553C51.6694 74.5481 51.6184 74.4946 51.5163 74.4946H51.0569C50.9548 74.4946 50.9037 74.4946 50.9037 74.6553V80.0651C50.9037 80.1722 50.9548 80.2258 51.0569 80.2258H51.5163C51.6184 80.1722 51.6694 80.1722 51.6694 80.0651ZM57.5905 80.0651V77.1191C57.5905 75.1909 56.9269 74.3874 55.1404 74.3874C54.7831 74.3874 54.1195 74.441 53.8133 74.4946C53.4049 74.5481 53.2518 74.816 53.2518 75.1909V80.0115C53.2518 80.1187 53.3028 80.1722 53.4049 80.1722H53.8643C53.9664 80.1722 54.0174 80.1722 54.0174 80.0115V75.1909C54.5279 75.0838 54.9362 75.0838 55.0894 75.0838C56.5186 75.0838 56.8759 75.7265 56.8759 77.1191V80.0115C56.8759 80.1187 56.9269 80.1722 57.029 80.1722H57.5395C57.5395 80.1722 57.5905 80.1722 57.5905 80.0651ZM62.4908 75.298V79.3688C61.9293 79.583 61.3678 79.6366 61.0615 79.6366C60.0406 79.6366 59.4281 78.8867 59.4281 77.387C59.4281 75.7801 60.0917 75.0838 61.1636 75.0838C61.5209 75.0838 62.0314 75.1373 62.4908 75.298ZM61.1636 74.3874C59.4281 74.3874 58.7135 75.673 58.7135 77.387C58.7135 79.0474 59.3771 80.2794 61.0105 80.2794C61.4188 80.2794 62.0314 80.1722 62.4908 80.0115V80.0651C62.4908 81.297 61.8272 81.6184 60.6021 81.8327C60.5511 81.8327 60.5 81.8862 60.5 81.9398L60.5511 82.4754C60.5511 82.529 60.6021 82.5826 60.7042 82.5826C62.3376 82.3683 63.2564 81.7256 63.2564 79.7973V74.9766C63.2564 74.9231 63.2054 74.8159 63.1543 74.7624C62.4908 74.4946 61.7761 74.3874 61.1636 74.3874ZM70.811 78.4047C70.3516 79.1545 69.739 79.6366 69.1265 79.6366C68.514 79.6366 67.9525 79.3152 67.9525 78.4582C67.9525 77.6012 68.565 76.9585 69.3307 76.53C69.8922 77.1727 70.3516 77.7619 70.811 78.4047ZM72.4444 80.1722H73.0059C73.1079 80.1722 73.1079 80.0651 73.0569 80.0115C72.8017 79.7437 72.5975 79.4759 72.4444 79.3152C72.0871 78.9403 71.7808 78.5118 71.7298 78.4047C72.1381 77.6012 72.4444 76.7442 73.5673 76.53C73.6184 76.53 73.7205 76.4764 73.6694 76.3693L73.6184 75.9408C73.6184 75.8872 73.5673 75.8336 73.4653 75.8336C73.3121 75.8336 73.159 75.8872 73.0059 75.9408C72.1892 76.2621 71.7298 77.012 71.2704 77.7619C70.811 77.1727 70.5557 76.8513 70.0453 76.1015C70.811 75.5658 71.5256 74.9766 71.5256 74.0125C71.5256 73.1019 70.862 72.4592 69.8922 72.4592C69.0244 72.4592 68.2077 73.1019 68.2077 74.1196C68.2077 74.7088 68.565 75.298 69.0244 75.9408C68.1056 76.5835 67.34 77.4941 67.34 78.5118C67.34 79.6366 67.9525 80.3329 69.1775 80.3329C70.0963 80.3329 70.7599 79.7973 71.3214 78.9938L72.1892 80.0651C72.2402 80.1722 72.2912 80.1722 72.4444 80.1722ZM70.7089 74.1196C70.7089 74.816 70.0963 75.298 69.5859 75.6194C69.2286 75.1909 68.9223 74.6553 68.9223 74.1196C68.9223 73.5304 69.2796 73.2091 69.8411 73.2091C70.4537 73.1555 70.7089 73.6911 70.7089 74.1196ZM80.9687 78.726C80.9687 77.7619 80.2031 77.3334 79.2843 76.9585C78.3655 76.5835 78.0082 76.3693 78.0082 75.8872C78.0082 75.4051 78.4165 75.0838 79.0291 75.0838C79.4885 75.0838 79.8458 75.1373 80.4073 75.4051C80.4583 75.4587 80.5094 75.4587 80.5604 75.3516L80.7135 74.9231C80.7646 74.816 80.7135 74.7624 80.6625 74.7088C80.101 74.4946 79.6416 74.3874 79.0801 74.3874C77.9061 74.3874 77.2425 75.0302 77.2425 75.9408C77.2425 76.7442 77.7019 77.1192 78.8759 77.6012C79.6926 77.9226 80.2031 78.244 80.2031 78.7796C80.2031 79.4224 79.6926 79.6902 79.0291 79.6902C78.5186 79.6902 77.9571 79.583 77.3446 79.2617C77.2425 79.2081 77.1915 79.2617 77.1404 79.3152L76.9873 79.6902C76.9363 79.7973 76.9873 79.8509 77.0383 79.9044C77.5998 80.2258 78.3655 80.3329 78.978 80.3329C80.152 80.3329 80.9687 79.7437 80.9687 78.726ZM84.1335 74.3874C82.7553 74.3874 81.7855 75.4051 81.7855 77.387C81.7855 79.4223 82.7042 80.3329 84.1845 80.3329C84.746 80.3329 85.2565 80.2258 85.7669 79.9044C85.8179 79.8509 85.869 79.7973 85.8179 79.6902L85.6138 79.3152C85.5627 79.2617 85.5117 79.2081 85.4096 79.2617C85.1033 79.4223 84.6439 79.583 84.1845 79.583C83.2657 79.583 82.449 79.0474 82.449 77.5477H85.5627C85.9711 77.5477 86.2263 77.387 86.2263 76.8513C86.3794 75.4587 85.6648 74.3874 84.1335 74.3874ZM85.6648 76.9049H82.6022C82.6532 75.8872 83.2147 75.0302 84.1845 75.0302C85.3075 75.0838 85.6648 75.9408 85.6648 76.9049ZM90.6671 75.7265L90.9734 75.298C91.0245 75.2445 91.0245 75.1909 90.9734 75.1373C90.4119 74.6017 89.7484 74.441 88.9827 74.441C88.7275 74.441 88.4212 74.441 88.166 74.4946C87.7066 74.5481 87.6045 74.7624 87.6045 75.1909V80.0651C87.6045 80.1722 87.6555 80.2258 87.7576 80.2258H88.217C88.3191 80.2258 88.3702 80.2258 88.3702 80.0651V75.2444C88.6764 75.1909 88.8806 75.1909 89.0337 75.1909C89.6463 75.1909 90.1567 75.4587 90.565 75.8336C90.565 75.7801 90.5651 75.7801 90.6671 75.7265ZM94.0361 79.7973C93.934 80.1187 93.8829 80.2258 93.5256 80.1722H93.1683C92.9131 80.1722 92.811 80.0651 92.7089 79.7437L90.9734 74.5481C90.9224 74.4946 90.9734 74.441 91.0245 74.441H91.637C91.7391 74.441 91.7391 74.4946 91.7901 74.5481L92.862 77.8155L93.3725 79.4759H93.4235L93.934 77.869L94.9548 74.6553C95.0059 74.6017 95.0569 74.5481 95.108 74.5481H95.7205C95.7716 74.5481 95.7716 74.6017 95.7716 74.6553L94.0361 79.7973ZM97.6602 72.9413C97.6602 72.6199 97.405 72.3521 97.1498 72.3521C96.8435 72.3521 96.6393 72.6199 96.6393 72.9413C96.6393 73.2626 96.8945 73.4769 97.1498 73.4769C97.456 73.4769 97.6602 73.2626 97.6602 72.9413ZM97.5581 80.0651V74.6553C97.5581 74.5481 97.5071 74.4946 97.405 74.4946H96.9456C96.8435 74.4946 96.7924 74.4946 96.7924 74.6553V80.0651C96.7924 80.1722 96.8435 80.2258 96.9456 80.2258H97.405C97.5071 80.1722 97.5581 80.1722 97.5581 80.0651ZM101.335 79.6366C100.059 79.6366 99.6509 78.6725 99.6509 77.4405C99.6509 76.2621 100.161 75.1373 101.335 75.1373C101.795 75.1373 102.152 75.298 102.509 75.4587C102.611 75.5123 102.663 75.4587 102.714 75.4051L102.918 75.0302C102.969 74.9766 102.969 74.8695 102.867 74.816C102.356 74.5481 101.897 74.441 101.335 74.441C99.8551 74.441 98.9363 75.5658 98.9363 77.4405C98.9363 79.3688 99.702 80.3329 101.284 80.3329C101.897 80.3329 102.458 80.2258 103.02 79.9044C103.071 79.8509 103.122 79.7973 103.071 79.6902L102.918 79.3152C102.867 79.2617 102.867 79.2081 102.714 79.2617C102.305 79.4759 101.795 79.6366 101.335 79.6366ZM106.082 74.3874C104.704 74.3874 103.734 75.4051 103.734 77.387C103.734 79.4223 104.653 80.3329 106.134 80.3329C106.695 80.3329 107.205 80.2258 107.716 79.9044C107.767 79.8509 107.818 79.7973 107.767 79.6902L107.563 79.3152C107.512 79.2617 107.461 79.2081 107.359 79.2617C107.052 79.4223 106.593 79.583 106.134 79.583C105.215 79.583 104.398 79.0474 104.398 77.5477H107.512C107.92 77.5477 108.175 77.387 108.175 76.8513C108.328 75.4587 107.614 74.3874 106.082 74.3874ZM107.563 76.9049H104.5C104.551 75.8872 105.113 75.0302 106.082 75.0302C107.308 75.0838 107.563 75.9408 107.563 76.9049ZM113.024 78.726C113.024 77.7619 112.259 77.3334 111.34 76.9585C110.421 76.5835 110.064 76.3693 110.064 75.8872C110.064 75.4051 110.472 75.0838 111.085 75.0838C111.544 75.0838 111.902 75.1373 112.463 75.4051C112.514 75.4587 112.565 75.4587 112.616 75.3516L112.769 74.9231C112.82 74.816 112.769 74.7624 112.718 74.7088C112.157 74.4946 111.697 74.3874 111.136 74.3874C109.962 74.3874 109.298 75.0302 109.298 75.9408C109.298 76.7442 109.758 77.1192 110.932 77.6012C111.748 77.9226 112.259 78.244 112.259 78.7796C112.259 79.4224 111.748 79.6902 111.085 79.6902C110.574 79.6902 110.013 79.583 109.4 79.2617C109.298 79.2081 109.247 79.2617 109.196 79.3152L109.043 79.6902C108.992 79.7973 109.043 79.8509 109.094 79.9044C109.656 80.2258 110.421 80.3329 111.034 80.3329C112.259 80.3329 113.024 79.7437 113.024 78.726Z" fill="black"/>
<path fill-rule="evenodd" clip-rule="evenodd" d="M68.3619 87.0282L68.3108 83.386C68.3108 83.2788 68.2598 83.2788 68.1577 83.2788H67.6983C67.5962 83.2788 67.5452 83.2788 67.5452 83.386V89.9742C67.5452 90.0813 67.5962 90.0813 67.6983 90.0813H68.1577C68.2598 90.0813 68.3108 90.0813 68.3108 89.9742V88.2602L69.8422 86.3319L71.7308 89.9742C71.8329 90.1349 71.8839 90.1349 72.037 90.1349H72.5475C72.6496 90.1349 72.6496 90.0813 72.6496 89.9742L70.4036 85.6892L72.1902 83.4395C72.2412 83.386 72.2412 83.3324 72.1391 83.3324H71.5266C71.4245 83.3324 71.3224 83.386 71.2714 83.4395L69.3828 85.9034L68.3619 87.0282ZM76.9883 89.5993V86.439C76.9883 85.3678 76.3758 84.7786 75.2018 84.7786C74.6913 84.7786 74.0788 84.8857 73.6194 85.0464C73.5684 85.1 73.5173 85.1535 73.5173 85.2071L73.6194 85.582C73.6705 85.6892 73.7215 85.6892 73.7726 85.6356C74.1299 85.5285 74.6403 85.4214 75.0997 85.4214C76.0695 85.4214 76.2737 85.9034 76.2737 86.5462V86.814H75.0487C73.6705 86.814 73.0579 87.5639 73.0579 88.5816C73.0579 89.385 73.4663 90.1884 74.9976 90.1884C75.6101 90.1884 76.2227 90.0813 76.8352 89.8671C76.9373 89.7599 76.9883 89.7064 76.9883 89.5993ZM76.3248 87.4032V89.3314C75.8654 89.4921 75.3039 89.5457 75.0997 89.5457C74.4361 89.5457 73.8236 89.3314 73.8236 88.528C73.8236 87.5103 74.6913 87.4567 75.1507 87.4567L76.3248 87.4032ZM81.3271 84.8857H78.2134C78.1113 84.8857 78.1113 84.9393 78.1113 84.9929V85.3678C78.1113 85.4749 78.1113 85.4749 78.2134 85.4749H80.9698V85.5285L78.0092 89.1707C77.9071 89.3314 77.8561 89.4386 77.8561 89.5993V89.7064C77.8561 89.8671 77.9582 90.0278 78.1623 90.0278H81.5823C81.6844 90.0278 81.7354 89.9742 81.7354 89.9206V89.5457C81.7354 89.4921 81.7354 89.4386 81.5823 89.4386H78.5707L81.5823 85.7427C81.6844 85.6356 81.7354 85.4749 81.7354 85.3678V85.2607C81.6334 84.9929 81.5313 84.8857 81.3271 84.8857ZM86.1252 89.5993V86.439C86.1252 85.3678 85.5127 84.7786 84.3387 84.7786C83.8283 84.7786 83.2157 84.8857 82.7563 85.0464C82.7053 85.1 82.6542 85.1535 82.6542 85.2071L82.7563 85.582C82.8074 85.6892 82.8584 85.6892 82.9095 85.6356C83.2668 85.5285 83.7772 85.4214 84.2366 85.4214C85.2064 85.4214 85.4106 85.9034 85.4106 86.5462V86.814H84.1856C82.8074 86.814 82.1948 87.5639 82.1948 88.5816C82.1948 89.385 82.6032 90.1884 84.1345 90.1884C84.7471 90.1884 85.3596 90.0813 85.9721 89.8671C86.0742 89.7599 86.1252 89.7064 86.1252 89.5993ZM85.4106 87.4032V89.3314C84.9512 89.4921 84.3897 89.5457 84.1856 89.5457C83.522 89.5457 82.9095 89.3314 82.9095 88.528C82.9095 87.5103 83.7772 87.4567 84.2366 87.4567L85.4106 87.4032ZM88.0139 87.5103L87.9628 82.9575C87.9628 82.8503 87.9628 82.8503 87.8607 82.8503H87.4013C87.2993 82.8503 87.2482 82.8503 87.2482 82.9575V89.8671C87.2482 89.9742 87.2993 89.9742 87.4013 89.9742H87.8607C87.9628 89.9742 87.9628 89.9742 87.9628 89.8671V88.528L89.0858 87.1354L90.2598 89.9206C90.3109 89.9742 90.3619 90.0278 90.4129 90.0278H90.9234C91.0255 90.0278 91.0255 89.9742 90.9744 89.9206L89.4942 86.5997L90.7703 84.9929C90.8213 84.9393 90.8213 84.8857 90.7192 84.8857H90.1067C90.0046 84.8857 90.0046 84.9393 89.9536 84.9929L88.0139 87.5103ZM95.7726 89.8671V87.0818C95.7726 85.6892 95.2111 84.8322 93.884 84.8322C93.5266 84.8322 93.0162 84.8857 92.5568 85.1V83.1182C92.5568 83.011 92.5058 83.011 92.4037 83.011H91.9443C91.8422 83.011 91.7911 83.011 91.7911 83.1182V90.0278C91.7911 90.1349 91.8422 90.1349 91.9443 90.1349H92.4037C92.5058 90.1349 92.5568 90.1349 92.5568 90.0278V85.7963C92.9141 85.6356 93.4246 85.5285 93.7819 85.5285C94.7007 85.5285 95.109 86.0641 95.109 87.1354V90.0278C95.109 90.1349 95.1601 90.1349 95.2621 90.1349H95.7215C95.7215 90.0278 95.7726 89.9742 95.7726 89.8671ZM100.213 88.6351C100.213 87.7781 99.5499 87.4032 98.6821 87.0818C97.8654 86.7604 97.5081 86.5462 97.5081 86.1177C97.5081 85.6892 97.9164 85.4214 98.4269 85.4214C98.8863 85.4214 99.1925 85.4749 99.6519 85.6892C99.703 85.7427 99.754 85.7427 99.8051 85.6356L99.9582 85.2607C100.009 85.1535 99.9582 85.1 99.9072 85.1C99.3967 84.8857 98.9884 84.8322 98.4779 84.8322C97.457 84.8322 96.8445 85.4214 96.8445 86.2248C96.8445 86.9211 97.2529 87.2961 98.3248 87.7246C99.0905 88.0459 99.5499 88.3137 99.5499 88.7958C99.5499 89.385 99.0905 89.5993 98.4779 89.5993C98.0185 89.5993 97.5081 89.4921 96.9977 89.2243C96.8956 89.1707 96.8445 89.2243 96.7935 89.2779L96.6403 89.5993C96.5893 89.7064 96.6403 89.7599 96.6914 89.7599C97.2018 90.0278 97.8654 90.1349 98.4779 90.1349C99.4988 90.1349 100.213 89.6528 100.213 88.6351ZM100.877 85.4749H101.541V88.7958C101.541 89.6528 101.898 90.0813 102.817 90.0813C103.021 90.0813 103.429 90.0813 103.735 89.9742C103.838 89.9206 103.838 89.8671 103.787 89.8135L103.684 89.4386C103.684 89.385 103.684 89.3314 103.582 89.385C103.327 89.4386 102.97 89.4921 102.868 89.4921C102.306 89.4921 102.204 89.2243 102.204 88.7958V85.5285H103.276C103.378 85.5285 103.378 85.4749 103.378 85.4214V85.1C103.378 84.9929 103.378 84.9929 103.276 84.9929H102.204V83.8145C102.204 83.7073 102.153 83.7073 102.051 83.7073L101.796 83.8145C101.694 83.868 101.643 83.868 101.643 83.9752L101.592 84.8322L100.877 84.9393C100.775 84.9929 100.775 84.9929 100.775 85.1V85.3678C100.775 85.4214 100.775 85.4749 100.877 85.4749ZM108.278 89.5993V86.439C108.278 85.3678 107.666 84.7786 106.492 84.7786C105.981 84.7786 105.369 84.8857 104.91 85.0464C104.858 85.1 104.807 85.1535 104.807 85.2071L104.91 85.582C104.961 85.6892 105.012 85.6892 105.063 85.6356C105.42 85.5285 105.93 85.4214 106.39 85.4214C107.36 85.4214 107.564 85.9034 107.564 86.5462V86.814H106.339C104.961 86.814 104.348 87.5639 104.348 88.5816C104.348 89.385 104.756 90.1884 106.288 90.1884C106.9 90.1884 107.513 90.0813 108.125 89.8671C108.227 89.7599 108.278 89.7064 108.278 89.5993ZM107.513 87.4032V89.3314C107.053 89.4921 106.492 89.5457 106.288 89.5457C105.624 89.5457 105.012 89.3314 105.012 88.528C105.012 87.5103 105.879 87.4567 106.339 87.4567L107.513 87.4032ZM113.434 89.8671V87.2425C113.434 85.4749 112.821 84.7786 111.239 84.7786C110.933 84.7786 110.32 84.8322 110.014 84.8857C109.657 84.9393 109.503 85.1535 109.503 85.5285V89.9206C109.503 90.0278 109.555 90.0278 109.657 90.0278H110.116C110.218 90.0278 110.269 90.0278 110.269 89.9206V85.5285C110.729 85.4214 111.086 85.4214 111.239 85.4214C112.515 85.4214 112.821 86.0641 112.821 87.296V89.9206C112.821 90.0278 112.872 90.0278 112.974 90.0278H113.434C113.383 90.0278 113.434 89.9742 113.434 89.8671Z" fill="black"/>
</svg>
