<svg width="10" height="10" viewBox="0 0 10 10" fill="none" xmlns="http://www.w3.org/2000/svg">
<path d="M6.10552 1.95553C6.56644 2.04529 6.99005 2.27028 7.32211 2.60171C7.65418 2.93315 7.87961 3.35594 7.96953 3.81598L6.10552 1.95553ZM6.10552 0.0715332C7.06314 0.177714 7.95613 0.605729 8.63786 1.2853C9.31959 1.96488 9.74955 2.85562 9.85714 3.81127L6.10552 0.0715332ZM9.38524 7.56985V8.98285C9.38577 9.11403 9.35885 9.24386 9.3062 9.36405C9.25355 9.48424 9.17633 9.59213 9.07948 9.68081C8.98264 9.76949 8.86831 9.837 8.74381 9.87903C8.61931 9.92105 8.48739 9.93666 8.35649 9.92485C6.90437 9.76737 5.50951 9.27211 4.28398 8.47888C3.14378 7.75574 2.1771 6.7909 1.45257 5.65288C0.655045 4.42414 0.158729 3.02517 0.00383029 1.56931C-0.0079623 1.43907 0.00754648 1.30779 0.049369 1.18386C0.0911915 1.05992 0.158412 0.946034 0.246749 0.849447C0.335087 0.752859 0.442607 0.675689 0.562463 0.622849C0.68232 0.570009 0.811887 0.542656 0.942915 0.542533H2.35862C2.58764 0.540283 2.80966 0.621227 2.98331 0.770277C3.15695 0.919327 3.27037 1.12631 3.30242 1.35265C3.36218 1.80484 3.47299 2.24884 3.63276 2.67616C3.69625 2.84474 3.70999 3.02796 3.67235 3.2041C3.63471 3.38023 3.54728 3.54191 3.4204 3.66997L2.82108 4.26814C3.49286 5.44731 4.47107 6.42365 5.6525 7.09414L6.25181 6.49597C6.38012 6.36934 6.5421 6.28207 6.71858 6.2445C6.89505 6.20694 7.07862 6.22065 7.24752 6.28402C7.67567 6.44348 8.12051 6.55408 8.57357 6.61372C8.8028 6.646 9.01215 6.76124 9.16181 6.93753C9.31146 7.11382 9.39098 7.33886 9.38524 7.56985Z" fill="white"/>
</svg>
