<svg width="94" height="91" viewBox="0 0 94 91" fill="none" xmlns="http://www.w3.org/2000/svg">
<rect y="0.5" width="94" height="90" rx="20" fill="#DAECF7"/>
<g clip-path="url(#clip0_245_12007)">
<path d="M73.1179 16.4853C72.5264 15.5771 71.2872 15.3056 70.3518 15.88L64.2875 19.6001H60.9202L54.8559 15.88C53.9205 15.3056 52.6813 15.5767 52.0898 16.4853C51.498 17.3938 51.7773 18.5959 52.7138 19.17L58.3349 22.6184V32.0424L56.1155 42.0948C55.8836 43.1457 56.5734 44.1805 57.6561 44.4056C57.7978 44.4351 57.9389 44.4494 58.0782 44.4494C59.0036 44.4494 59.8354 43.824 60.0369 42.9106L61.8894 34.5199H63.3688L65.4646 42.9589C65.6861 43.8506 66.5072 44.4494 67.4122 44.4494C67.568 44.4494 67.7257 44.4315 67.8838 44.3949C68.9606 44.1428 69.6226 43.0916 69.3633 42.0468L66.8725 32.0181V22.6184L72.4937 19.17C73.4301 18.5959 73.7095 17.3938 73.1179 16.4853Z" fill="#005287"/>
<path d="M62.5932 18.4495C64.2859 18.4495 65.6581 17.1176 65.6581 15.4747C65.6581 13.8318 64.2859 12.5 62.5932 12.5C60.9005 12.5 59.5283 13.8318 59.5283 15.4747C59.5283 17.1176 60.9005 18.4495 62.5932 18.4495Z" fill="#005287"/>
<path d="M30.5667 61.1611H24.9291C22.527 61.1611 20.5723 63.058 20.5723 65.3899V74.2716C20.5723 76.6031 22.527 78.5003 24.9291 78.5003H30.5663C32.9685 78.5003 34.9229 76.6035 34.9229 74.2716V65.3899C34.9232 63.058 32.9688 61.1611 30.5667 61.1611ZM30.9129 74.2713C30.9129 74.4568 30.7575 74.6076 30.5667 74.6076H24.9291C24.738 74.6076 24.5826 74.4568 24.5826 74.2713V65.3895C24.5826 65.204 24.738 65.0532 24.9291 65.0532H30.5663C30.7571 65.0532 30.9125 65.204 30.9125 65.3895V74.2713H30.9129Z" fill="#005287"/>
<path d="M47.9687 54.2266H42.3315C39.9293 54.2266 37.9746 56.1234 37.9746 58.4553V74.2716C37.9746 76.6031 39.9293 78.5004 42.3315 78.5004H47.9687C50.3708 78.5004 52.3252 76.6035 52.3252 74.2716V58.4553C52.3252 56.1234 50.3708 54.2266 47.9687 54.2266ZM48.3149 74.2713C48.3149 74.4568 48.1595 74.6077 47.9687 74.6077H42.3315C42.1403 74.6077 41.9849 74.4568 41.9849 74.2713V58.455C41.9849 58.2694 42.1403 58.1186 42.3315 58.1186H47.9687C48.1595 58.1186 48.3149 58.2694 48.3149 58.455V74.2713Z" fill="#005287"/>
<path d="M65.8749 46.7905H60.2377C57.8356 46.7905 55.8809 48.6874 55.8809 51.0193V74.2716C55.8809 76.6032 57.8356 78.5004 60.2377 78.5004H65.8749C68.2771 78.5004 70.2315 76.6035 70.2315 74.2716V51.0193C70.2315 48.6874 68.2771 46.7905 65.8749 46.7905ZM66.2211 74.2713C66.2211 74.4568 66.0657 74.6077 65.8749 74.6077H60.2377C60.0466 74.6077 59.8912 74.4568 59.8912 74.2713V51.0189C59.8912 50.8334 60.0466 50.6826 60.2377 50.6826H65.8749C66.0657 50.6826 66.2211 50.8334 66.2211 51.0189V74.2713Z" fill="#005287"/>
</g>
<defs>
<clipPath id="clip0_245_12007">
<rect width="68" height="66" fill="white" transform="translate(13 12.5)"/>
</clipPath>
</defs>
</svg>
