<svg width="95" height="90" viewBox="0 0 95 90" fill="none" xmlns="http://www.w3.org/2000/svg">
<rect width="95" height="90" rx="20" fill="#DAECF7"/>
<g clip-path="url(#clip0_245_11995)">
<path d="M60.3131 38.4615L56.8631 34.7616C56.4134 34.2793 55.6866 34.2793 55.2371 34.7616L43.4003 47.4561L39.6135 43.3949C39.1638 42.9126 38.437 42.9126 37.9874 43.3949L34.5375 47.0948C34.0878 47.577 34.0878 48.3565 34.5375 48.8387L42.5873 57.4718C42.8115 57.7136 43.106 57.8331 43.4003 57.8331C43.6948 57.8331 43.9891 57.7123 44.2133 57.4718L60.3131 40.2054C60.7628 39.7233 60.7628 38.9438 60.3131 38.4615ZM43.4003 54.856L36.9765 47.9667L38.8004 46.0107L42.5873 50.072C43.037 50.5542 43.7638 50.5542 44.2133 50.072L56.0501 37.3774L57.874 39.3335L43.4003 54.856Z" fill="#005287"/>
<path d="M82.2325 52.1109L77.0967 45.5003L82.2325 38.8897C82.5188 38.5221 82.5798 38.0104 82.3912 37.5775C82.2015 37.1446 81.7956 36.8671 81.3494 36.8671H66.2466L65.2381 29.2934C65.1576 28.6854 64.6723 28.234 64.0996 28.234H55.316C53.9614 27.0229 48.7358 22.3536 48.7358 22.3536C48.3091 21.9713 47.6904 21.9713 47.2638 22.3536L40.6836 28.234H31.9C31.3272 28.234 30.8432 28.6854 30.7615 29.2923L29.7529 36.8673H14.6506C14.2044 36.8673 13.7985 37.1448 13.6087 37.5777C13.419 38.0118 13.4811 38.5236 13.7675 38.8898L18.9033 45.5004L13.7675 52.111C13.4811 52.4785 13.4202 52.9903 13.6087 53.4232C13.7985 53.8573 14.2044 54.1335 14.6506 54.1335H29.7532C30.0602 56.4337 30.7628 61.7086 30.7628 61.7086C30.8433 62.3166 31.3286 62.7668 31.9001 62.7668H40.6837L47.2639 68.6472C47.4778 68.8384 47.7388 68.9334 47.9998 68.9334C48.2609 68.9334 48.5231 68.8384 48.7358 68.6472L55.3148 62.7668C57.1019 62.7668 64.1017 62.7717 64.0994 62.7668C64.6722 62.7668 65.1562 62.3154 65.2379 61.7086C65.2379 61.7086 65.9406 56.4337 66.2476 54.1335H81.3491C81.7953 54.1335 82.2012 53.856 82.391 53.4232C82.581 52.9889 82.5188 52.4771 82.2325 52.1109ZM17.1058 51.6669L21.2838 46.2897C21.6391 45.8321 21.6391 45.1674 21.2838 44.711L17.1058 39.3337H28.2951L24.1171 44.7109C23.7618 45.1684 23.7618 45.8331 24.1171 46.2895L28.2951 51.6667H17.1058V51.6669ZM64.3676 52.1096C64.3113 52.1822 64.2618 52.2625 64.2227 52.3476C64.1423 52.5203 64.1388 52.5277 63.1038 60.3C54.6296 60.3 54.6216 60.3049 54.3859 60.4308C54.3065 60.474 54.2318 60.5257 54.1639 60.5861L48 66.0941L41.8361 60.5861C41.6303 60.4011 41.3691 60.3 41.1001 60.3H32.8974C31.8624 52.5277 31.8589 52.5203 31.7784 52.3476C31.7381 52.2625 31.6899 52.1824 31.6336 52.1096L26.4977 45.5003L31.6336 38.8897C31.7705 38.7134 31.859 38.5012 31.8888 38.2743L32.8974 30.7006H41.1001C41.3692 30.7006 41.6291 30.5994 41.8361 30.4144L48 24.9064C54.2651 30.5056 54.2697 30.508 54.3859 30.5711C54.5457 30.6562 54.7217 30.7006 54.8998 30.7006H63.1026L64.1112 38.2756C64.1411 38.5025 64.2296 38.7147 64.3664 38.891L69.5022 45.5003L64.3676 52.1096ZM67.7048 51.6669L71.8827 46.2897C72.238 45.8321 72.238 45.1674 71.8827 44.711L67.7048 39.3338H78.894L74.7161 44.711C74.3607 45.1686 74.3607 45.8333 74.7161 46.2897L78.894 51.6669H67.7048Z" fill="#005287"/>
</g>
<defs>
<clipPath id="clip0_245_11995">
<rect width="69" height="74" fill="white" transform="translate(13.5 8.5)"/>
</clipPath>
</defs>
</svg>
