<svg width="95" height="90" viewBox="0 0 95 90" fill="none" xmlns="http://www.w3.org/2000/svg">
<rect width="95" height="90" rx="20" fill="#DAECF7"/>
<g clip-path="url(#clip0_245_11985)">
<path d="M72.9878 21.5029C72.6238 21.1497 72.117 20.9672 71.6022 21.0036L63.4858 21.5743C62.5117 21.6428 61.7796 22.4576 61.8509 23.3945C61.9222 24.3314 62.7699 25.032 63.7439 24.9665L67.1164 24.7293L55.2352 36.1684L41.4174 24.9171C40.7151 24.345 39.6742 24.3866 39.0236 25.0122L22.018 41.3639C21.3273 42.028 21.3273 43.1049 22.018 43.7691C22.3635 44.1011 22.8161 44.2672 23.2687 44.2672C23.7212 44.2672 24.1738 44.1011 24.5193 43.7691L40.3735 28.5245L54.192 39.7765C54.8945 40.3489 55.936 40.3068 56.5865 39.6805L69.5705 27.1797L69.3023 30.294C69.2216 31.23 69.9456 32.0516 70.919 32.1292C70.9688 32.1332 71.018 32.1352 71.0668 32.1352C71.9776 32.1351 72.7511 31.463 72.8276 30.5748L73.4937 22.8401C73.5365 22.3447 73.3518 21.8561 72.9878 21.5029Z" fill="#005287"/>
<path d="M37.2767 40.9951C36.6159 40.7321 35.855 40.8776 35.349 41.3637L27.9995 48.4304C27.6679 48.7494 27.4814 49.1819 27.4814 49.6329V67.3003C27.4814 68.2395 28.2734 69.001 29.2501 69.001H36.5997C37.5764 69.001 38.3684 68.2395 38.3684 67.3003V42.5663C38.3684 41.8784 37.9375 41.2582 37.2767 40.9951ZM34.831 65.5996H31.019V50.3375L34.8311 46.672V65.5996H34.831Z" fill="#005287"/>
<path d="M45.2002 41.3638C44.6943 40.8774 43.9338 40.7321 43.2725 40.9951C42.6117 41.2584 42.1807 41.8784 42.1807 42.5665V67.3005C42.1807 68.2397 42.9726 69.0012 43.9494 69.0012H51.2989C52.2757 69.0012 53.0676 68.2397 53.0676 67.3005V49.6333C53.0676 49.1823 52.8813 48.7498 52.5495 48.4308L45.2002 41.3638ZM49.5302 65.5996H45.7181V46.672L49.5302 50.3377V65.5996Z" fill="#005287"/>
<path d="M66.6742 40.9951C66.013 40.7321 65.2523 40.8776 64.7465 41.3637L57.397 48.4307C57.0654 48.7498 56.8789 49.1823 56.8789 49.6333V67.3004C56.8789 68.2397 57.6708 69.0011 58.6476 69.0011H65.9971C66.9739 69.0011 67.7658 68.2397 67.7658 67.3004V42.5664C67.766 41.8784 67.3351 41.2582 66.6742 40.9951ZM64.2286 65.5996H60.4165V50.3377L64.2286 46.672V65.5996Z" fill="#005287"/>
</g>
<defs>
<clipPath id="clip0_245_11985">
<rect width="52" height="50" fill="white" transform="translate(21.5 20)"/>
</clipPath>
</defs>
</svg>
