<svg width="94" height="91" viewBox="0 0 94 91" fill="none" xmlns="http://www.w3.org/2000/svg">
<rect width="94" height="91" rx="20" fill="#DAECF7"/>
<path d="M71.0145 44.726L78 39.4698L71.9618 18.7915L40.881 19.8037L37.8867 24.5284L27.2422 21.9269L16 45.5109L21.1209 49.9897L18.4172 54.2413C17.5632 55.5842 17.275 57.1846 17.6057 58.7478C17.9363 60.311 18.8463 61.6496 20.1678 62.5173C21.1321 63.1505 22.2315 63.4776 23.3531 63.4776C23.6483 63.4776 23.9448 63.4538 24.241 63.4081C24.6161 64.7632 25.4577 65.9906 26.7099 66.8128C27.6958 67.4602 28.8026 67.7693 29.8974 67.7693C30.1932 67.7693 30.4875 67.744 30.7788 67.6996C31.166 69.1072 32.0333 70.3082 33.2519 71.1083C34.2379 71.7558 35.3446 72.0649 36.4394 72.0649C38.3736 72.0649 40.2707 71.0996 41.3963 69.3294L42.1996 68.066L46.9045 71.2354L46.9241 71.2486C47.8883 71.8818 48.9878 72.209 50.1093 72.209C50.5247 72.209 50.9433 72.1641 51.359 72.0734C52.8974 71.7373 54.2148 70.8126 55.0687 69.47C55.6697 68.5248 55.974 67.4706 56.0066 66.4202C56.308 66.4023 56.6102 66.3614 56.9112 66.2957C58.4495 65.9597 59.7669 65.035 60.6209 63.6923C61.21 62.766 61.5296 61.7169 61.5626 60.6423C61.8628 60.6242 62.1636 60.5835 62.4631 60.5181C64.0016 60.182 65.3189 59.2576 66.1729 57.9146C66.7745 56.9686 67.0788 55.913 67.1108 54.8617C68.9239 54.7548 70.6658 53.8024 71.7247 52.137C72.5786 50.794 72.8668 49.1937 72.5364 47.6305C72.3011 46.5186 71.7731 45.5205 71.0145 44.726ZM43.1031 23.79L69.0107 22.9464L73.3774 37.9002L67.5698 42.27L45.3618 27.5769L39.0579 37.299L39.0483 37.3141C38.4798 38.2074 37.3026 38.4645 36.4234 37.8875C35.5443 37.3103 35.2912 36.1138 35.8609 35.2178L43.1031 23.79ZM24.9592 58.5369C24.3908 59.4303 23.2133 59.6874 22.3345 59.1103C21.9086 58.8306 21.6154 58.3992 21.5088 57.8954C21.4024 57.3917 21.4951 56.876 21.7705 56.4432L25.7631 50.1645C26.126 49.594 26.737 49.283 27.3605 49.283C27.7133 49.283 28.0701 49.3827 28.3879 49.5912C28.8138 49.8709 29.1069 50.3022 29.2135 50.806C29.3201 51.3097 29.2272 51.8255 28.9521 52.2583L24.9592 58.5369ZM31.5013 62.8323C30.9329 63.7256 29.7555 63.9826 28.8765 63.4056C27.9974 62.8284 27.7443 61.6319 28.3124 60.7386L32.3052 54.4598C32.6681 53.8893 33.2791 53.5783 33.9026 53.5783C34.2554 53.5783 34.6122 53.678 34.93 53.8867C35.8091 54.4639 36.0622 55.6604 35.4942 56.5537L31.5013 62.8323ZM42.0359 60.8491L38.0432 67.1278C37.4751 68.0213 36.2976 68.2781 35.4186 67.701C34.9927 67.4214 34.6994 66.99 34.593 66.4862C34.4864 65.9824 34.5792 65.4668 34.8544 65.0339L38.8471 58.7552C39.1224 58.3224 39.5468 58.0245 40.0426 57.9162C40.1766 57.8871 40.3114 57.8725 40.4451 57.8725C40.8065 57.8725 41.1609 57.978 41.4716 58.1821C42.3508 58.7593 42.6039 59.9557 42.0359 60.8491ZM68.3716 49.9349C68.0963 50.3677 67.6719 50.6656 67.1762 50.7739C66.6804 50.8823 66.1728 50.7878 65.747 50.5082L64.4224 49.6385L64.4222 49.6384L58.2431 45.5813L56.0765 48.9884L57.4012 49.8584L62.2556 53.0458C62.6815 53.3255 62.9747 53.7568 63.0812 54.2605C63.1878 54.7643 63.0949 55.2801 62.8198 55.7128C62.5447 56.1456 62.12 56.4436 61.6244 56.5519C61.1285 56.66 60.6211 56.5658 60.1951 56.2862L54.016 52.2291L51.8494 55.6363L56.7037 58.8235C57.5829 59.4007 57.836 60.5971 57.2679 61.4905C56.9927 61.9233 56.5681 62.2213 56.0725 62.3296C55.5766 62.4377 55.0692 62.3435 54.6433 62.0639L49.3687 58.6007L47.2021 62.0079L51.1518 64.6012C52.031 65.1787 52.2842 66.375 51.716 67.2684C51.4408 67.7012 51.0163 67.9992 50.5206 68.1075C50.028 68.215 49.5237 68.1225 49.0995 67.847L44.3671 64.659L45.3895 63.051C47.1522 60.2789 46.3669 56.5662 43.6388 54.7751C42.3856 53.9523 40.9373 53.6773 39.5665 53.8874C39.1919 52.5311 38.35 51.3025 37.097 50.4796C35.8446 49.6574 34.3975 49.3822 33.0276 49.5916C32.6402 48.1845 31.7731 46.984 30.5549 46.1842C28.3001 44.7035 25.4135 44.9936 23.4841 46.704L20.9319 44.4719L29.4345 26.6353L35.5978 28.1415L32.5067 33.0189C30.7439 35.791 31.5292 39.5036 34.2573 41.2948C36.9826 43.0844 40.6319 42.2894 42.3969 39.5239L46.5115 33.1781L67.8083 47.268C68.234 47.5477 68.5273 47.979 68.6339 48.4827C68.7397 48.9863 68.6468 49.502 68.3716 49.9349Z" fill="#005287"/>
</svg>
