<svg width="96" height="90" viewBox="0 0 96 90" fill="none" xmlns="http://www.w3.org/2000/svg">
<rect x="0.5" width="95" height="90" rx="20" fill="#DAECF7"/>
<path d="M72.5 66C72.5 66 76 66 76 62.5C76 59 72.5 48.5 58.5 48.5C44.5 48.5 41 59 41 62.5C41 66 44.5 66 44.5 66H72.5ZM44.577 62.5C44.5511 62.4964 44.5255 62.4918 44.5 62.486C44.5035 61.562 45.0845 58.881 47.16 56.466C49.092 54.2015 52.487 52 58.5 52C64.5095 52 67.9045 54.205 69.84 56.466C71.9155 58.881 72.493 61.5655 72.5 62.486L72.472 62.493C72.4557 62.4958 72.4394 62.4981 72.423 62.5H44.577ZM58.5 41.5C60.3565 41.5 62.137 40.7625 63.4497 39.4497C64.7625 38.137 65.5 36.3565 65.5 34.5C65.5 32.6435 64.7625 30.863 63.4497 29.5503C62.137 28.2375 60.3565 27.5 58.5 27.5C56.6435 27.5 54.863 28.2375 53.5503 29.5503C52.2375 30.863 51.5 32.6435 51.5 34.5C51.5 36.3565 52.2375 38.137 53.5503 39.4497C54.863 40.7625 56.6435 41.5 58.5 41.5ZM69 34.5C69 35.8789 68.7284 37.2443 68.2007 38.5182C67.6731 39.7921 66.8996 40.9496 65.9246 41.9246C64.9496 42.8996 63.7921 43.6731 62.5182 44.2007C61.2443 44.7284 59.8789 45 58.5 45C57.1211 45 55.7557 44.7284 54.4818 44.2007C53.2079 43.6731 52.0504 42.8996 51.0754 41.9246C50.1004 40.9496 49.3269 39.7921 48.7993 38.5182C48.2716 37.2443 48 35.8789 48 34.5C48 31.7152 49.1062 29.0445 51.0754 27.0754C53.0445 25.1062 55.7152 24 58.5 24C61.2848 24 63.9555 25.1062 65.9246 27.0754C67.8938 29.0445 69 31.7152 69 34.5ZM44.276 49.48C42.8759 49.0391 41.4327 48.7493 39.971 48.6155C39.1497 48.5374 38.325 48.4989 37.5 48.5C23.5 48.5 20 59 20 62.5C20 64.8345 21.1655 66 23.5 66H38.256C37.7371 64.9074 37.4784 63.7094 37.5 62.5C37.5 58.965 38.8195 55.353 41.315 52.336C42.1655 51.307 43.156 50.3445 44.276 49.48ZM37.22 52C35.1485 55.1125 34.0295 58.7614 34 62.5H23.5C23.5 61.59 24.074 58.895 26.16 56.466C28.0675 54.24 31.382 52.07 37.22 52.0035V52ZM25.25 36.25C25.25 33.4652 26.3562 30.7945 28.3254 28.8254C30.2945 26.8562 32.9652 25.75 35.75 25.75C38.5348 25.75 41.2055 26.8562 43.1746 28.8254C45.1438 30.7945 46.25 33.4652 46.25 36.25C46.25 39.0348 45.1438 41.7055 43.1746 43.6746C41.2055 45.6438 38.5348 46.75 35.75 46.75C32.9652 46.75 30.2945 45.6438 28.3254 43.6746C26.3562 41.7055 25.25 39.0348 25.25 36.25ZM35.75 29.25C33.8935 29.25 32.113 29.9875 30.8003 31.3003C29.4875 32.613 28.75 34.3935 28.75 36.25C28.75 38.1065 29.4875 39.887 30.8003 41.1997C32.113 42.5125 33.8935 43.25 35.75 43.25C37.6065 43.25 39.387 42.5125 40.6997 41.1997C42.0125 39.887 42.75 38.1065 42.75 36.25C42.75 34.3935 42.0125 32.613 40.6997 31.3003C39.387 29.9875 37.6065 29.25 35.75 29.25Z" fill="#005287"/>
</svg>
