<svg width="501" height="189" viewBox="0 0 501 189" fill="none" xmlns="http://www.w3.org/2000/svg">
<path fill-rule="evenodd" clip-rule="evenodd" d="M413.882 123.598V116.118H422.887V123.598C422.887 123.872 422.982 123.872 423.267 123.872H424.404C424.689 123.872 424.783 123.781 424.783 123.598V108.091C424.783 107.818 424.689 107.818 424.404 107.818H423.267C422.982 107.818 422.887 107.909 422.887 108.091V114.659H413.882V108.091C413.882 107.818 413.787 107.818 413.503 107.818H412.27C412.081 107.818 411.891 107.909 411.891 108.091V123.598C411.891 123.872 411.986 123.872 412.27 123.872H413.503C413.787 123.872 413.882 123.781 413.882 123.598ZM439.192 123.416V122.595C439.192 122.321 439.098 122.139 438.813 122.139H432.177C430.661 122.139 430.092 121.409 430.092 120.223V115.936H437.865C438.15 115.936 438.244 115.754 438.244 115.571V114.933C438.244 114.659 438.15 114.568 437.865 114.568H430.092V111.284C430.092 110.007 430.755 109.277 432.177 109.277H438.624C438.908 109.277 439.003 109.186 439.003 108.912V108.091C439.003 107.818 438.908 107.635 438.624 107.635H432.177C429.334 107.635 428.291 109.368 428.291 111.466V120.041C428.291 122.139 429.239 123.872 432.177 123.872H438.813C439.192 123.872 439.192 123.689 439.192 123.416ZM449.81 115.206V115.115C450.947 114.568 451.516 113.564 451.895 112.196L453.033 108.091C453.127 107.909 453.127 107.727 452.748 107.727H451.611C451.421 107.727 451.326 107.727 451.232 108L450.094 112.105C449.525 114.112 448.293 114.568 447.06 114.568H443.648V108.091C443.648 107.818 443.553 107.818 443.363 107.818H442.226C442.036 107.818 441.847 107.909 441.847 108.091V123.598C441.847 123.872 441.941 123.872 442.226 123.872H443.363C443.648 123.872 443.743 123.781 443.743 123.598V116.118H447.44C449.051 116.118 449.999 116.575 450.568 118.49L451.99 123.689C452.085 123.963 452.274 123.963 452.464 123.963H453.601C453.886 123.963 453.981 123.781 453.886 123.598L452.369 118.216C451.99 116.666 451.421 115.662 449.81 115.206ZM461.849 123.598V109.368H466.778C467.063 109.368 467.063 109.277 467.063 109.095V108.183C467.063 107.909 466.968 107.818 466.778 107.818H455.118C454.834 107.818 454.834 107.909 454.834 108.183V109.095C454.834 109.368 454.834 109.368 455.118 109.368H459.953V123.598C459.953 123.872 460.048 123.872 460.332 123.872H461.564C461.754 123.872 461.849 123.781 461.849 123.598ZM479.007 123.872C478.723 123.872 478.628 123.872 478.533 123.598L477.301 120.041H470.191C470.001 120.497 469.148 123.142 468.959 123.598C468.864 123.781 468.769 123.872 468.485 123.872H467.157C466.873 123.872 466.778 123.689 466.873 123.507L472.371 108.456C472.656 107.818 472.75 107.635 473.414 107.635H474.078C474.836 107.635 474.931 107.818 475.215 108.456L480.713 123.507C480.808 123.689 480.713 123.872 480.429 123.872H479.007ZM474.931 113.108L473.793 109.642H473.698L472.561 113.017L470.76 118.399H476.827L474.931 113.108ZM482.704 108.73V123.598C482.704 123.872 482.799 123.872 482.988 123.872H484.126C484.41 123.872 484.505 123.872 484.505 123.598V117.213H489.15C493.416 117.213 494.364 114.112 494.364 112.379C494.364 109.642 492.373 107.635 489.34 107.635H483.842C482.988 107.635 482.704 108 482.704 108.73ZM484.6 115.662V109.277H488.961C491.71 109.277 492.468 111.102 492.468 112.47C492.468 114.477 491.141 115.662 488.961 115.662H484.6ZM415.493 127.521C417.484 127.521 419.285 128.159 419.285 130.075C419.285 131.808 417.674 132.902 415.493 132.902H414.261C413.787 132.902 413.597 133.085 413.597 133.541V133.997C413.597 134.362 413.882 134.635 414.356 134.635H415.683C418.432 134.635 419.949 135.912 419.949 137.646C419.949 139.652 418.527 141.112 415.019 141.112C413.597 141.112 411.891 140.747 410.753 140.2C410.469 140.108 410.374 140.2 410.279 140.382L409.9 141.112C409.711 141.385 409.805 141.477 409.995 141.659C411.607 142.571 413.882 142.754 415.398 142.754C419.664 142.754 422.034 140.656 422.034 137.828C422.034 135.912 420.612 134.271 418.432 133.906V133.814C420.233 133.176 421.465 131.808 421.465 130.075C421.465 127.429 419.19 126.061 415.872 126.061C414.261 126.061 412.46 126.335 410.848 127.156C410.659 127.247 410.564 127.338 410.753 127.612L411.133 128.433C411.227 128.615 411.322 128.706 411.607 128.615C412.649 127.794 414.071 127.521 415.493 127.521ZM435.685 141.841V141.021C435.685 140.747 435.59 140.564 435.306 140.564H428.67C427.153 140.564 426.584 139.835 426.584 138.649V134.362H434.358C434.642 134.362 434.737 134.179 434.737 133.997V133.267C434.737 132.993 434.642 132.902 434.358 132.902H426.584V129.618C426.584 128.341 427.248 127.612 428.67 127.612H435.116C435.401 127.612 435.495 127.521 435.495 127.247V126.426C435.495 126.152 435.401 125.97 435.116 125.97H428.67C425.826 125.97 424.783 127.703 424.783 129.801V138.375C424.783 140.473 425.731 142.206 428.67 142.206H435.306C435.59 142.298 435.685 142.206 435.685 141.841ZM446.113 138.74H446.018C445.733 138.193 444.88 135.912 444.596 135.365C444.122 134.362 441.183 127.429 440.994 126.973C440.709 126.243 440.52 126.152 439.856 126.152H439.287C438.434 126.152 438.244 126.517 438.244 127.156V142.024C438.244 142.298 438.339 142.298 438.624 142.298H439.761C440.046 142.298 440.14 142.206 440.14 142.024V129.436H440.33L441.467 131.99C442.226 133.541 444.122 138.01 444.785 139.652C445.07 140.291 445.259 140.473 445.923 140.473H446.587C447.25 140.473 447.44 140.291 447.629 139.652C448.388 138.102 450.189 133.632 450.947 132.081L452.18 129.254H452.274V142.024C452.274 142.298 452.369 142.298 452.653 142.298H453.791C453.981 142.298 454.17 142.206 454.17 142.024V127.156C454.17 126.517 453.981 126.152 453.127 126.152H452.559C451.99 126.152 451.706 126.243 451.421 126.973C450.852 128.341 448.672 133.541 447.819 135.456C447.345 135.912 446.397 138.193 446.113 138.74ZM459.953 127.429L459.763 130.257C459.289 137.281 459.289 139.743 456.161 141.021C455.971 141.112 455.877 141.112 455.971 141.477L456.161 142.298C456.256 142.571 456.445 142.662 456.635 142.571C460.901 141.294 460.996 137.646 461.564 130.531L461.754 127.703H468.2V141.933C468.2 142.206 468.295 142.206 468.579 142.206H469.812C470.096 142.206 470.191 142.115 470.191 141.933V127.338C470.191 126.517 469.717 126.061 468.959 126.061H461.47C460.427 126.152 459.953 126.517 459.953 127.429ZM484.41 128.524H484.505V142.024C484.505 142.298 484.6 142.298 484.884 142.298H486.022C486.306 142.298 486.401 142.206 486.401 142.024V127.156C486.401 126.517 486.211 126.152 485.358 126.152H484.79C484.126 126.152 484.031 126.335 483.652 126.973L477.395 136.825L475.499 139.835H475.405V126.426C475.405 126.152 475.31 126.152 475.025 126.152H473.888C473.698 126.152 473.509 126.243 473.509 126.426V141.294C473.509 141.933 473.793 142.298 474.551 142.298H475.12C475.689 142.298 475.879 142.024 476.258 141.477L482.325 131.899L484.41 128.524Z" fill="#535456"/>
<path d="M395.586 90.4868V156.71" stroke="#535456" stroke-width="0.77763" stroke-miterlimit="22.9256"/>
<path fill-rule="evenodd" clip-rule="evenodd" d="M271.308 112.834C273.868 122.959 277.565 132.355 282.399 141.02C294.533 138.375 305.53 133.997 315.199 128.341C306.288 110.919 302.686 90.8513 303.255 70.4188C295.481 87.5675 284.864 101.615 271.308 112.834Z" fill="#836886"/>
<path fill-rule="evenodd" clip-rule="evenodd" d="M355.298 84.9225C351.601 77.7164 347.24 70.6927 342.785 64.034L317.284 26.088C315.768 33.8414 313.872 41.3211 311.691 48.3448C308.942 73.8853 313.398 99.8819 326.385 120.588C338.329 111.284 347.998 99.1522 355.298 84.9225Z" fill="#D36601"/>
<path fill-rule="evenodd" clip-rule="evenodd" d="M360.891 152.514C370.56 133.723 367.716 113.564 359.753 94.5C352.833 108.274 343.827 120.132 332.831 129.801C340.13 139.014 349.515 146.767 360.891 152.514Z" fill="#FAB600"/>
<path fill-rule="evenodd" clip-rule="evenodd" d="M325.058 183.071C335.011 179.787 344.112 174.497 351.222 166.561L351.506 166.287C338.803 158.899 328.85 149.504 321.455 138.649C312.071 144.76 301.643 149.412 289.983 152.605C298.894 164.645 310.649 174.862 325.058 183.071Z" fill="#005287"/>
<path fill-rule="evenodd" clip-rule="evenodd" d="M236.139 133.358C237.371 144.395 241.826 155.341 250.927 165.74C263.535 180.243 282.589 186.72 301.643 186.72C302.876 186.72 304.297 186.72 305.53 186.628C283.916 169.753 269.981 146.676 263.819 118.764C255.667 124.328 246.472 129.253 236.139 133.358Z" fill="#5AC0CA"/>
<path fill-rule="evenodd" clip-rule="evenodd" d="M260.975 62.7568L260.027 64.0339C248.083 81.7298 237.465 101.706 235.949 121.865C245.523 118.216 254.15 113.655 261.923 108C259.837 94.044 259.458 78.9021 260.975 62.7568Z" fill="#A2C62D"/>
<path fill-rule="evenodd" clip-rule="evenodd" d="M301.358 2.64539L268.843 50.99C266.473 69.5981 266.568 86.6555 269.127 102.253C286.759 86.9292 299.557 65.2197 308.373 35.3008C309.037 32.838 309.605 30.4663 310.364 28.0035C311.122 25.0846 311.786 22.1657 312.544 19.0643L301.358 2.64539Z" fill="#535456"/>
<path fill-rule="evenodd" clip-rule="evenodd" d="M10.8071 113.564V69.963C10.8071 69.2333 10.6175 69.0508 9.85911 69.0508H6.54123C5.78285 69.0508 5.59326 69.142 5.59326 69.963V113.656C5.59326 114.385 5.78285 114.568 6.54123 114.568H9.95391C10.6175 114.477 10.8071 114.294 10.8071 113.564ZM49.9581 113.564V96.0508C49.9581 84.2839 45.313 79.7231 33.7479 79.7231C31.5675 79.7231 27.1121 80.088 24.9318 80.3616C22.4671 80.7265 21.3295 82.186 21.3295 84.6488V113.656C21.3295 114.385 21.7087 114.568 22.2775 114.568H25.311C26.0693 114.568 26.2589 114.477 26.2589 113.656V84.5576C29.482 83.9191 32.3259 83.9191 33.4635 83.9191C42.6587 83.9191 44.9339 88.0238 44.9339 96.2333V113.564C44.9339 114.294 45.313 114.477 45.8818 114.477H49.0101C49.7685 114.477 49.9581 114.294 49.9581 113.564ZM56.499 84.1927H61.5233V106.449C61.5233 112.287 63.8932 115.024 70.7185 115.024C71.9509 115.024 75.0792 114.933 77.5439 114.112C78.2075 113.838 78.1127 113.564 78.0179 113.108L77.4491 110.645C77.3543 110.189 77.3543 110.098 76.5011 110.189C74.8896 110.554 72.4249 110.737 71.2873 110.737C67.4954 110.737 66.3579 109.186 66.3579 105.902V84.1015H74.3208C75.0792 84.1015 75.174 83.8279 75.174 83.2806V81.0914C75.174 80.5441 75.0792 80.1792 74.3208 80.1792H66.4527V72.4258C66.4527 71.7873 66.0735 71.5137 65.5047 71.6961L63.7036 72.3346C62.9452 72.6083 62.7556 72.6995 62.6608 73.4292L61.7129 79.7231L56.4042 80.6353C55.6459 80.8177 55.5511 81.0002 55.5511 81.6387V83.1893C55.6459 83.8279 55.6459 84.1927 56.499 84.1927ZM96.9772 79.6319C88.0663 79.6319 81.6201 85.9258 81.6201 97.5103C81.6201 109.733 87.5923 115.024 97.546 115.024C100.959 115.024 104.656 114.477 107.879 112.652C108.353 112.47 108.542 112.014 108.258 111.558L107.12 109.277C106.931 108.821 106.457 108.73 105.983 109.004C104.087 110.098 100.959 110.828 98.02 110.828C91.7634 110.828 86.7392 107.544 86.7392 98.5137H107.31C109.775 98.5137 111.86 97.6015 111.86 94.0441C111.671 85.7434 107.215 79.6319 96.9772 79.6319ZM106.931 94.865H86.834C87.2131 88.7535 90.6258 83.7366 97.072 83.7366C104.845 83.7366 106.931 88.8448 106.931 94.865ZM139.825 87.6589L141.911 85.0137C142.195 84.6488 142.195 84.3752 141.816 84.1015C138.309 81.0914 133.853 79.6319 128.639 79.6319C127.028 79.6319 125.132 79.7231 123.046 79.9968C120.108 80.4529 119.539 81.5475 119.539 84.2839V113.564C119.539 114.294 119.823 114.477 120.487 114.477H123.52C124.279 114.477 124.468 114.385 124.468 113.564V84.3752C126.08 83.9191 127.691 83.9191 128.924 83.9191C132.905 83.9191 136.318 85.3785 138.783 87.6589C139.162 88.0238 139.351 88.2062 139.825 87.6589ZM174.616 97.2367C174.616 86.1083 169.212 79.7231 159.259 79.7231C150.158 79.7231 143.712 86.0171 143.712 97.5103C143.712 109.095 149.115 115.206 159.069 115.206C169.023 115.115 174.616 108.821 174.616 97.2367ZM169.686 97.4191C169.686 104.169 167.221 111.193 159.164 111.193C151.201 111.193 148.736 105.355 148.736 97.2367C148.736 89.9394 151.864 83.6454 159.353 83.6454C167.506 83.7366 169.686 90.3954 169.686 97.4191ZM189.309 71.0576C189.309 69.2333 187.887 67.7738 185.896 67.7738C184.095 67.7738 182.484 69.2333 182.484 71.0576C182.484 72.8819 184 74.2502 185.896 74.2502C187.887 74.2502 189.309 72.8819 189.309 71.0576ZM188.361 113.564V81.2738C188.361 80.5441 188.172 80.3616 187.413 80.3616H184.38C183.716 80.3616 183.432 80.4529 183.432 81.2738V113.564C183.432 114.294 183.811 114.477 184.38 114.477H187.413C188.172 114.477 188.361 114.294 188.361 113.564ZM210.354 113.291L209.975 111.193C209.88 110.737 209.596 110.554 209.122 110.645C208.363 110.737 207.605 110.828 206.657 110.828C204.761 110.828 204.192 109.916 204.192 107.544V67.9562C204.192 67.2265 204.003 67.0441 203.244 67.0441H200.116C199.358 67.0441 199.168 67.1353 199.168 67.9562V108.912C199.168 113.017 200.59 115.024 204.951 115.024C206.278 115.024 208.174 114.933 209.69 114.294C210.354 114.112 210.449 114.02 210.354 113.291Z" fill="#535456"/>
<path fill-rule="evenodd" clip-rule="evenodd" d="M43.2272 126.152C41.9001 126.152 40.5729 126.608 39.6249 127.247C38.7718 126.517 37.9186 126.152 36.3071 126.152C35.7383 126.152 34.7903 126.243 34.1267 126.335C33.3684 126.426 33.084 126.882 33.084 127.52V135.73C33.084 135.912 33.1788 136.004 33.3684 136.004H34.2215C34.4111 136.004 34.5059 136.004 34.5059 135.73V127.52C35.4539 127.338 36.0227 127.338 36.4019 127.338C38.8666 127.338 39.5302 128.524 39.5302 130.713V135.73C39.5302 135.912 39.6249 136.004 39.8145 136.004H40.6677C40.8573 136.004 40.9521 136.004 40.9521 135.73V130.713C40.9521 129.618 40.8573 128.706 40.4781 127.976C41.2365 127.52 42.4688 127.247 43.2272 127.247C45.4075 127.247 46.1659 128.341 46.1659 130.713V135.639C46.1659 135.821 46.2607 135.912 46.4503 135.912H47.3035C47.4931 135.912 47.5879 135.912 47.5879 135.639V130.439C47.2087 127.976 46.2607 126.152 43.2272 126.152ZM57.3519 135.183V129.345C57.3519 127.338 56.2143 126.243 53.7496 126.243C52.6121 126.243 51.3797 126.426 50.4318 126.791C50.337 126.882 50.2422 126.973 50.2422 127.064L50.4318 127.794C50.5266 127.976 50.6213 127.976 50.8109 127.885C51.5693 127.612 52.6121 127.429 53.4652 127.429C55.456 127.429 55.93 128.341 55.93 129.527V130.074H53.3704C50.5266 130.074 49.2942 131.443 49.2942 133.358C49.2942 134.909 50.1474 136.368 53.3704 136.368C54.508 136.368 55.93 136.186 57.0675 135.73C57.2571 135.547 57.3519 135.365 57.3519 135.183ZM55.93 131.169V134.726C54.982 135 53.8444 135.091 53.3704 135.091C52.0433 135.091 50.7161 134.635 50.7161 133.176C50.7161 131.26 52.5173 131.078 53.4652 131.078L55.93 131.169ZM65.7888 128.433L66.3576 127.703C66.4524 127.612 66.4524 127.52 66.3576 127.429C65.3148 126.517 64.0825 126.243 62.6605 126.243C62.1865 126.243 61.6178 126.243 61.1438 126.335C60.2906 126.426 60.101 126.791 60.101 127.52V135.821C60.101 136.004 60.1958 136.095 60.3854 136.095H61.2386C61.4282 136.095 61.523 136.095 61.523 135.821V127.612C62.0917 127.52 62.4709 127.52 62.7553 127.52C63.8929 127.52 64.8408 127.976 65.5992 128.615C65.5992 128.524 65.694 128.524 65.7888 128.433ZM69.0119 131.351L68.9171 122.868C68.9171 122.686 68.9171 122.595 68.6327 122.595H67.6847C67.4951 122.595 67.4003 122.595 67.4003 122.868V135.821C67.4003 136.004 67.4951 136.095 67.6847 136.095H68.6327C68.8223 136.095 68.9171 136.095 68.9171 135.821V133.267L71.287 130.622L73.7517 135.821C73.8465 135.912 73.9413 136.004 74.1309 136.004H75.1737C75.3633 136.004 75.3633 135.912 75.2685 135.821L72.235 129.527L74.7945 126.517C74.8893 126.426 74.8893 126.335 74.6997 126.335H73.5621C73.3725 126.335 73.2777 126.426 73.2777 126.517L69.0119 131.351ZM80.7667 126.152C78.2071 126.152 76.406 127.885 76.406 131.26C76.406 134.726 78.1124 136.277 80.8615 136.277C81.9042 136.277 82.8522 136.095 83.8002 135.547C83.8949 135.456 83.9897 135.365 83.8949 135.183L83.5158 134.544C83.421 134.453 83.3262 134.362 83.1366 134.453C82.5678 134.726 81.7146 135 80.8615 135C79.1551 135 77.6384 134.088 77.6384 131.534H83.421C84.1793 131.534 84.6533 131.26 84.6533 130.348C84.9377 127.976 83.7053 126.152 80.7667 126.152ZM83.6106 130.439H77.828C77.9228 128.706 78.9655 127.247 80.7667 127.247C82.947 127.338 83.6106 128.797 83.6106 130.439ZM86.3597 127.52H87.7816V133.814C87.7816 135.456 88.4452 136.277 90.4359 136.277C90.8151 136.277 91.6683 136.277 92.3318 136.004C92.5214 135.912 92.5214 135.821 92.4266 135.73L92.237 135C92.237 134.909 92.237 134.818 91.9527 134.909C91.4787 135 90.8151 135.091 90.5307 135.091C89.3931 135.091 89.2036 134.635 89.2036 133.723V127.52H91.4787C91.6683 127.52 91.7631 127.429 91.7631 127.247V126.608C91.7631 126.426 91.7631 126.335 91.4787 126.335H89.2983V124.145C89.2983 123.963 89.2036 123.872 89.014 123.963L88.4452 124.145C88.2556 124.237 88.1608 124.237 88.1608 124.51L87.8764 126.243L86.3597 126.517C86.1701 126.608 86.0753 126.608 86.0753 126.791V127.247C86.1701 127.429 86.1701 127.52 86.3597 127.52ZM96.0289 123.689C96.0289 123.142 95.5549 122.686 95.0809 122.686C94.5122 122.686 94.133 123.142 94.133 123.689C94.133 124.237 94.607 124.601 95.0809 124.601C95.5549 124.601 96.0289 124.237 96.0289 123.689ZM95.7445 135.821V126.608C95.7445 126.426 95.6497 126.335 95.4601 126.335H94.607C94.4174 126.335 94.3226 126.335 94.3226 126.608V135.821C94.3226 136.004 94.4174 136.095 94.607 136.095H95.4601C95.6497 136.004 95.7445 136.004 95.7445 135.821ZM106.741 135.821V130.804C106.741 127.52 105.509 126.152 102.191 126.152C101.527 126.152 100.295 126.243 99.726 126.335C98.9676 126.426 98.6832 126.882 98.6832 127.52V135.73C98.6832 135.912 98.778 136.004 98.9676 136.004H99.8208C100.01 136.004 100.105 136.004 100.105 135.73V127.52C101.053 127.338 101.811 127.338 102.096 127.338C104.75 127.338 105.414 128.433 105.414 130.804V135.73C105.414 135.912 105.509 136.004 105.698 136.004H106.646C106.646 136.004 106.741 136.004 106.741 135.821ZM115.841 127.703V134.635C114.799 135 113.756 135.091 113.187 135.091C111.291 135.091 110.154 133.814 110.154 131.26C110.154 128.524 111.386 127.338 113.377 127.338C114.04 127.338 114.988 127.429 115.841 127.703ZM113.377 126.152C110.154 126.152 108.826 128.341 108.826 131.26C108.826 134.088 110.059 136.186 113.092 136.186C113.851 136.186 114.988 136.004 115.841 135.73V135.821C115.841 137.919 114.609 138.466 112.334 138.831C112.239 138.831 112.144 138.922 112.144 139.014L112.239 139.926C112.239 140.017 112.334 140.108 112.524 140.108C115.557 139.743 117.263 138.649 117.263 135.365V127.156C117.263 127.064 117.169 126.882 117.074 126.791C115.841 126.335 114.514 126.152 113.377 126.152ZM131.293 132.993C130.44 134.27 129.303 135.091 128.165 135.091C127.027 135.091 125.985 134.544 125.985 133.085C125.985 131.625 127.122 130.531 128.544 129.801C129.587 130.895 130.44 131.899 131.293 132.993ZM134.327 136.004H135.369C135.559 136.004 135.559 135.821 135.464 135.73C134.99 135.274 134.611 134.818 134.327 134.544C133.663 133.906 133.094 133.176 133 132.993C133.758 131.625 134.327 130.166 136.412 129.801C136.507 129.801 136.697 129.71 136.602 129.527L136.507 128.797C136.507 128.706 136.412 128.615 136.223 128.615C135.938 128.615 135.654 128.706 135.369 128.797C133.853 129.345 133 130.622 132.146 131.899C131.293 130.895 130.819 130.348 129.871 129.071C131.293 128.159 132.62 127.156 132.62 125.514C132.62 123.963 131.388 122.868 129.587 122.868C127.975 122.868 126.459 123.963 126.459 125.696C126.459 126.699 127.122 127.703 127.975 128.797C126.269 129.892 124.847 131.443 124.847 133.176C124.847 135.091 125.985 136.277 128.26 136.277C129.966 136.277 131.198 135.365 132.241 133.997L133.853 135.821C133.948 136.004 134.042 136.004 134.327 136.004ZM131.104 125.696C131.104 126.882 129.966 127.703 129.018 128.25C128.355 127.52 127.786 126.608 127.786 125.696C127.786 124.693 128.449 124.145 129.492 124.145C130.63 124.054 131.104 124.966 131.104 125.696ZM150.158 133.541C150.158 131.899 148.736 131.169 147.029 130.531C145.323 129.892 144.66 129.527 144.66 128.706C144.66 127.885 145.418 127.338 146.555 127.338C147.409 127.338 148.072 127.429 149.115 127.885C149.21 127.976 149.305 127.976 149.399 127.794L149.684 127.064C149.779 126.882 149.684 126.791 149.589 126.699C148.546 126.335 147.693 126.152 146.65 126.152C144.47 126.152 143.238 127.247 143.238 128.797C143.238 130.166 144.091 130.804 146.271 131.625C147.788 132.172 148.736 132.72 148.736 133.632C148.736 134.726 147.788 135.183 146.555 135.183C145.608 135.183 144.565 135 143.427 134.453C143.238 134.362 143.143 134.453 143.048 134.544L142.764 135.183C142.669 135.365 142.764 135.456 142.858 135.547C143.901 136.095 145.323 136.277 146.461 136.277C148.641 136.277 150.158 135.274 150.158 133.541ZM156.035 126.152C153.476 126.152 151.674 127.885 151.674 131.26C151.674 134.726 153.381 136.277 156.13 136.277C157.173 136.277 158.121 136.095 159.069 135.547C159.163 135.456 159.258 135.365 159.163 135.183L158.784 134.544C158.689 134.453 158.595 134.362 158.405 134.453C157.836 134.726 156.983 135 156.13 135C154.424 135 152.907 134.088 152.907 131.534H158.689C159.448 131.534 159.922 131.26 159.922 130.348C160.206 127.976 158.879 126.152 156.035 126.152ZM158.879 130.439H153.191C153.286 128.706 154.329 127.247 156.13 127.247C158.215 127.338 158.879 128.797 158.879 130.439ZM168.169 128.433L168.738 127.703C168.833 127.612 168.833 127.52 168.738 127.429C167.695 126.517 166.463 126.243 165.041 126.243C164.567 126.243 163.998 126.243 163.524 126.335C162.671 126.426 162.481 126.791 162.481 127.52V135.821C162.481 136.004 162.576 136.095 162.766 136.095H163.619C163.808 136.095 163.903 136.095 163.903 135.821V127.612C164.472 127.52 164.851 127.52 165.136 127.52C166.273 127.52 167.221 127.976 167.979 128.615C167.979 128.524 167.98 128.524 168.169 128.433ZM174.426 135.365C174.236 135.912 174.141 136.095 173.478 136.004H172.814C172.34 136.004 172.151 135.821 171.961 135.274L168.738 126.426C168.643 126.335 168.738 126.243 168.833 126.243H169.97C170.16 126.243 170.16 126.335 170.255 126.426L172.245 131.99L173.193 134.818H173.288L174.236 132.081L176.132 126.608C176.227 126.517 176.322 126.426 176.416 126.426H177.554C177.649 126.426 177.649 126.517 177.649 126.608L174.426 135.365ZM181.156 123.689C181.156 123.142 180.682 122.686 180.208 122.686C179.639 122.686 179.26 123.142 179.26 123.689C179.26 124.237 179.734 124.601 180.208 124.601C180.777 124.601 181.156 124.237 181.156 123.689ZM180.967 135.821V126.608C180.967 126.426 180.872 126.335 180.682 126.335H179.829C179.639 126.335 179.545 126.335 179.545 126.608V135.821C179.545 136.004 179.639 136.095 179.829 136.095H180.682C180.872 136.004 180.967 136.004 180.967 135.821ZM187.982 135.091C185.612 135.091 184.853 133.449 184.853 131.351C184.853 129.345 185.801 127.429 187.982 127.429C188.835 127.429 189.498 127.703 190.162 127.976C190.352 128.068 190.446 127.976 190.541 127.885L190.92 127.247C191.015 127.156 191.015 126.973 190.825 126.882C189.878 126.426 189.024 126.243 187.982 126.243C185.232 126.243 183.526 128.159 183.526 131.351C183.526 134.635 184.948 136.277 187.887 136.277C189.024 136.277 190.067 136.095 191.11 135.547C191.205 135.456 191.299 135.365 191.205 135.183L190.92 134.544C190.825 134.453 190.825 134.362 190.541 134.453C189.783 134.818 188.835 135.091 187.982 135.091ZM196.798 126.152C194.238 126.152 192.437 127.885 192.437 131.26C192.437 134.726 194.143 136.277 196.892 136.277C197.935 136.277 198.883 136.095 199.831 135.547C199.926 135.456 200.021 135.365 199.926 135.183L199.547 134.544C199.452 134.453 199.357 134.362 199.168 134.453C198.599 134.726 197.746 135 196.892 135C195.186 135 193.669 134.088 193.669 131.534H199.452C200.21 131.534 200.684 131.26 200.684 130.348C200.969 127.976 199.642 126.152 196.798 126.152ZM199.547 130.439H193.859C193.954 128.706 194.997 127.247 196.798 127.247C199.073 127.338 199.547 128.797 199.547 130.439ZM209.69 133.541C209.69 131.899 208.268 131.169 206.562 130.531C204.855 129.892 204.192 129.527 204.192 128.706C204.192 127.885 204.95 127.338 206.088 127.338C206.941 127.338 207.604 127.429 208.647 127.885C208.742 127.976 208.837 127.976 208.932 127.794L209.216 127.064C209.311 126.882 209.216 126.791 209.121 126.699C208.078 126.335 207.225 126.152 206.183 126.152C204.002 126.152 202.77 127.247 202.77 128.797C202.77 130.166 203.623 130.804 205.803 131.625C207.32 132.172 208.268 132.72 208.268 133.632C208.268 134.726 207.32 135.183 206.088 135.183C205.14 135.183 204.097 135 202.959 134.453C202.77 134.362 202.675 134.453 202.58 134.544L202.296 135.183C202.201 135.365 202.296 135.456 202.391 135.547C203.433 136.095 204.855 136.277 205.993 136.277C208.268 136.277 209.69 135.274 209.69 133.541Z" fill="#535456"/>
<path fill-rule="evenodd" clip-rule="evenodd" d="M413.882 123.598V116.119H422.887V123.598C422.887 123.872 422.982 123.872 423.267 123.872H424.404C424.689 123.872 424.783 123.781 424.783 123.598V108.092C424.783 107.818 424.689 107.818 424.404 107.818H423.267C422.982 107.818 422.887 107.909 422.887 108.092V114.659H413.882V108.092C413.882 107.818 413.787 107.818 413.503 107.818H412.27C412.081 107.818 411.891 107.909 411.891 108.092V123.598C411.891 123.872 411.986 123.872 412.27 123.872H413.503C413.787 123.872 413.882 123.781 413.882 123.598ZM439.192 123.416V122.595C439.192 122.321 439.098 122.139 438.813 122.139H432.177C430.661 122.139 430.092 121.409 430.092 120.223V115.936H437.865C438.15 115.936 438.244 115.754 438.244 115.571V114.933C438.244 114.659 438.15 114.568 437.865 114.568H430.092V111.284C430.092 110.007 430.755 109.278 432.177 109.278H438.624C438.908 109.278 439.003 109.186 439.003 108.913V108.092C439.003 107.818 438.908 107.636 438.624 107.636H432.177C429.334 107.636 428.291 109.369 428.291 111.467V120.041C428.291 122.139 429.239 123.872 432.177 123.872H438.813C439.192 123.872 439.192 123.69 439.192 123.416ZM449.81 115.207V115.115C450.947 114.568 451.516 113.565 451.895 112.196L453.033 108.092C453.127 107.909 453.127 107.727 452.748 107.727H451.611C451.421 107.727 451.326 107.727 451.232 108L450.094 112.105C449.525 114.112 448.293 114.568 447.06 114.568H443.648V108.092C443.648 107.818 443.553 107.818 443.363 107.818H442.226C442.036 107.818 441.847 107.909 441.847 108.092V123.598C441.847 123.872 441.941 123.872 442.226 123.872H443.363C443.648 123.872 443.743 123.781 443.743 123.598V116.119H447.44C449.051 116.119 449.999 116.575 450.568 118.49L451.99 123.69C452.085 123.963 452.274 123.963 452.464 123.963H453.601C453.886 123.963 453.981 123.781 453.886 123.598L452.369 118.217C451.99 116.666 451.421 115.663 449.81 115.207ZM461.849 123.598V109.369H466.778C467.063 109.369 467.063 109.278 467.063 109.095V108.183C467.063 107.909 466.968 107.818 466.778 107.818H455.118C454.834 107.818 454.834 107.909 454.834 108.183V109.095C454.834 109.369 454.834 109.369 455.118 109.369H459.953V123.598C459.953 123.872 460.048 123.872 460.332 123.872H461.564C461.754 123.872 461.849 123.781 461.849 123.598ZM479.007 123.872C478.723 123.872 478.628 123.872 478.533 123.598L477.301 120.041H470.191C470.001 120.497 469.148 123.142 468.959 123.598C468.864 123.781 468.769 123.872 468.485 123.872H467.157C466.873 123.872 466.778 123.69 466.873 123.507L472.371 108.457C472.656 107.818 472.75 107.636 473.414 107.636H474.078C474.836 107.636 474.931 107.818 475.215 108.457L480.713 123.507C480.808 123.69 480.713 123.872 480.429 123.872H479.007ZM474.931 113.109L473.793 109.642H473.698L472.561 113.017L470.76 118.399H476.827L474.931 113.109ZM482.704 108.73V123.598C482.704 123.872 482.799 123.872 482.988 123.872H484.126C484.41 123.872 484.505 123.872 484.505 123.598V117.213H489.15C493.416 117.213 494.364 114.112 494.364 112.379C494.364 109.642 492.373 107.636 489.34 107.636H483.842C482.988 107.636 482.704 108 482.704 108.73ZM484.6 115.663V109.278H488.961C491.71 109.278 492.468 111.102 492.468 112.47C492.468 114.477 491.141 115.663 488.961 115.663H484.6ZM415.493 127.521C417.484 127.521 419.285 128.159 419.285 130.075C419.285 131.808 417.674 132.903 415.493 132.903H414.261C413.787 132.903 413.597 133.085 413.597 133.541V133.997C413.597 134.362 413.882 134.636 414.356 134.636H415.683C418.432 134.636 419.949 135.913 419.949 137.646C419.949 139.653 418.527 141.112 415.019 141.112C413.597 141.112 411.891 140.747 410.753 140.2C410.469 140.109 410.374 140.2 410.279 140.382L409.9 141.112C409.711 141.386 409.805 141.477 409.995 141.659C411.607 142.571 413.882 142.754 415.398 142.754C419.664 142.754 422.034 140.656 422.034 137.828C422.034 135.913 420.612 134.271 418.432 133.906V133.815C420.233 133.176 421.465 131.808 421.465 130.075C421.465 127.43 419.19 126.061 415.872 126.061C414.261 126.061 412.46 126.335 410.848 127.156C410.659 127.247 410.564 127.338 410.753 127.612L411.133 128.433C411.227 128.615 411.322 128.707 411.607 128.615C412.649 127.794 414.071 127.521 415.493 127.521ZM435.685 141.842V141.021C435.685 140.747 435.59 140.565 435.306 140.565H428.67C427.153 140.565 426.584 139.835 426.584 138.649V134.362H434.358C434.642 134.362 434.737 134.18 434.737 133.997V133.267C434.737 132.994 434.642 132.903 434.358 132.903H426.584V129.619C426.584 128.342 427.248 127.612 428.67 127.612H435.116C435.401 127.612 435.495 127.521 435.495 127.247V126.426C435.495 126.153 435.401 125.97 435.116 125.97H428.67C425.826 125.97 424.783 127.703 424.783 129.801V138.375C424.783 140.473 425.731 142.207 428.67 142.207H435.306C435.59 142.298 435.685 142.207 435.685 141.842ZM446.113 138.74H446.018C445.733 138.193 444.88 135.913 444.596 135.365C444.122 134.362 441.183 127.43 440.994 126.973C440.709 126.244 440.52 126.153 439.856 126.153H439.287C438.434 126.153 438.244 126.517 438.244 127.156V142.024C438.244 142.298 438.339 142.298 438.624 142.298H439.761C440.046 142.298 440.14 142.207 440.14 142.024V129.436H440.33L441.467 131.99C442.226 133.541 444.122 138.011 444.785 139.653C445.07 140.291 445.259 140.473 445.923 140.473H446.587C447.25 140.473 447.44 140.291 447.629 139.653C448.388 138.102 450.189 133.632 450.947 132.082L452.18 129.254H452.274V142.024C452.274 142.298 452.369 142.298 452.653 142.298H453.791C453.981 142.298 454.17 142.207 454.17 142.024V127.156C454.17 126.517 453.981 126.153 453.127 126.153H452.559C451.99 126.153 451.706 126.244 451.421 126.973C450.852 128.342 448.672 133.541 447.819 135.457C447.345 135.913 446.397 138.193 446.113 138.74ZM459.953 127.43L459.763 130.257C459.289 137.281 459.289 139.744 456.161 141.021C455.971 141.112 455.877 141.112 455.971 141.477L456.161 142.298C456.256 142.571 456.445 142.663 456.635 142.571C460.901 141.294 460.996 137.646 461.564 130.531L461.754 127.703H468.2V141.933C468.2 142.207 468.295 142.207 468.579 142.207H469.812C470.096 142.207 470.191 142.115 470.191 141.933V127.338C470.191 126.517 469.717 126.061 468.959 126.061H461.47C460.427 126.153 459.953 126.517 459.953 127.43ZM484.41 128.524H484.505V142.024C484.505 142.298 484.6 142.298 484.884 142.298H486.022C486.306 142.298 486.401 142.207 486.401 142.024V127.156C486.401 126.517 486.211 126.153 485.358 126.153H484.79C484.126 126.153 484.031 126.335 483.652 126.973L477.395 136.825L475.499 139.835H475.405V126.426C475.405 126.153 475.31 126.153 475.025 126.153H473.888C473.698 126.153 473.509 126.244 473.509 126.426V141.294C473.509 141.933 473.793 142.298 474.551 142.298H475.12C475.689 142.298 475.879 142.024 476.258 141.477L482.325 131.899L484.41 128.524Z" fill="#535456"/>
<path d="M395.586 90.4866V156.71" stroke="#535456" stroke-width="0.77763" stroke-miterlimit="22.9256"/>
<path fill-rule="evenodd" clip-rule="evenodd" d="M271.308 112.834C273.868 122.959 277.565 132.354 282.399 141.02C294.533 138.375 305.53 133.996 315.199 128.341C306.288 110.919 302.686 90.851 303.255 70.4186C295.481 87.5672 284.864 101.615 271.308 112.834Z" fill="#836886"/>
<path fill-rule="evenodd" clip-rule="evenodd" d="M355.298 84.9222C351.601 77.7161 347.24 70.6925 342.785 64.0337L317.284 26.0878C315.768 33.8411 313.872 41.3209 311.691 48.3445C308.942 73.8851 313.398 99.8817 326.385 120.588C338.329 111.284 347.998 99.152 355.298 84.9222Z" fill="#D36601"/>
<path fill-rule="evenodd" clip-rule="evenodd" d="M360.891 152.513C370.56 133.723 367.716 113.564 359.753 94.4998C352.833 108.273 343.827 120.132 332.831 129.8C340.13 139.013 349.515 146.767 360.891 152.513Z" fill="#FAB600"/>
<path fill-rule="evenodd" clip-rule="evenodd" d="M325.058 183.071C335.011 179.787 344.112 174.497 351.222 166.561L351.506 166.287C338.803 158.899 328.85 149.503 321.455 138.649C312.071 144.76 301.643 149.412 289.983 152.605C298.894 164.645 310.649 174.861 325.058 183.071Z" fill="#005287"/>
<path fill-rule="evenodd" clip-rule="evenodd" d="M236.139 133.358C237.371 144.395 241.826 155.341 250.927 165.74C263.535 180.243 282.589 186.719 301.643 186.719C302.876 186.719 304.297 186.719 305.53 186.628C283.916 169.753 269.981 146.675 263.819 118.763C255.667 124.327 246.472 129.253 236.139 133.358Z" fill="#5AC0CA"/>
<path fill-rule="evenodd" clip-rule="evenodd" d="M260.975 62.7566L260.027 64.0336C248.083 81.7296 237.465 101.706 235.949 121.865C245.523 118.216 254.15 113.655 261.923 108C259.837 94.0437 259.458 78.9019 260.975 62.7566Z" fill="#A2C62D"/>
<path fill-rule="evenodd" clip-rule="evenodd" d="M301.358 2.64514L268.843 50.9897C266.473 69.5978 266.568 86.6553 269.127 102.253C286.759 86.9289 299.557 65.2195 308.373 35.3005C309.037 32.8377 309.605 30.4661 310.364 28.0033C311.122 25.0843 311.786 22.1654 312.544 19.0641L301.358 2.64514Z" fill="#535456"/>
<path fill-rule="evenodd" clip-rule="evenodd" d="M10.8071 113.564V69.9629C10.8071 69.2331 10.6175 69.0507 9.85911 69.0507H6.54123C5.78285 69.0507 5.59326 69.1419 5.59326 69.9629V113.655C5.59326 114.385 5.78285 114.568 6.54123 114.568H9.95391C10.6175 114.476 10.8071 114.294 10.8071 113.564ZM49.9581 113.564V96.0507C49.9581 84.2838 45.313 79.723 33.7479 79.723C31.5675 79.723 27.1121 80.0879 24.9318 80.3615C22.4671 80.7264 21.3295 82.1858 21.3295 84.6487V113.655C21.3295 114.385 21.7087 114.568 22.2775 114.568H25.311C26.0693 114.568 26.2589 114.476 26.2589 113.655V84.5575C29.482 83.919 32.3259 83.919 33.4635 83.919C42.6587 83.919 44.9339 88.0237 44.9339 96.2332V113.564C44.9339 114.294 45.313 114.476 45.8818 114.476H49.0101C49.7685 114.476 49.9581 114.294 49.9581 113.564ZM56.499 84.1926H61.5233V106.449C61.5233 112.287 63.8932 115.024 70.7185 115.024C71.9509 115.024 75.0792 114.932 77.5439 114.112C78.2075 113.838 78.1127 113.564 78.0179 113.108L77.4491 110.645C77.3543 110.189 77.3543 110.098 76.5011 110.189C74.8896 110.554 72.4249 110.737 71.2873 110.737C67.4954 110.737 66.3579 109.186 66.3579 105.902V84.1014H74.3208C75.0792 84.1014 75.174 83.8277 75.174 83.2804V81.0913C75.174 80.544 75.0792 80.1791 74.3208 80.1791H66.4527V72.4257C66.4527 71.7872 66.0735 71.5135 65.5047 71.696L63.7036 72.3345C62.9452 72.6081 62.7556 72.6994 62.6608 73.4291L61.7129 79.723L56.4042 80.6352C55.6459 80.8176 55.5511 81 55.5511 81.6385V83.1892C55.6459 83.8277 55.6459 84.1926 56.499 84.1926ZM96.9772 79.6318C88.0663 79.6318 81.6201 85.9257 81.6201 97.5102C81.6201 109.733 87.5923 115.024 97.546 115.024C100.959 115.024 104.656 114.476 107.879 112.652C108.353 112.47 108.542 112.014 108.258 111.557L107.12 109.277C106.931 108.821 106.457 108.73 105.983 109.003C104.087 110.098 100.959 110.828 98.02 110.828C91.7634 110.828 86.7392 107.544 86.7392 98.5136H107.31C109.775 98.5136 111.86 97.6014 111.86 94.044C111.671 85.7433 107.215 79.6318 96.9772 79.6318ZM106.931 94.8649H86.834C87.2131 88.7534 90.6258 83.7365 97.072 83.7365C104.845 83.7365 106.931 88.8446 106.931 94.8649ZM139.825 87.6588L141.911 85.0135C142.195 84.6487 142.195 84.375 141.816 84.1014C138.309 81.0912 133.853 79.6318 128.639 79.6318C127.028 79.6318 125.132 79.723 123.046 79.9967C120.108 80.4527 119.539 81.5473 119.539 84.2838V113.564C119.539 114.294 119.823 114.476 120.487 114.476H123.52C124.279 114.476 124.468 114.385 124.468 113.564V84.375C126.08 83.919 127.691 83.919 128.924 83.919C132.905 83.919 136.318 85.3784 138.783 87.6588C139.162 88.0237 139.351 88.2061 139.825 87.6588ZM174.616 97.2365C174.616 86.1081 169.212 79.723 159.259 79.723C150.158 79.723 143.712 86.0169 143.712 97.5102C143.712 109.095 149.115 115.206 159.069 115.206C169.023 115.115 174.616 108.821 174.616 97.2365ZM169.686 97.419C169.686 104.169 167.221 111.193 159.164 111.193C151.201 111.193 148.736 105.355 148.736 97.2365C148.736 89.9392 151.864 83.6453 159.353 83.6453C167.506 83.7365 169.686 90.3953 169.686 97.419ZM189.309 71.0575C189.309 69.2331 187.887 67.7737 185.896 67.7737C184.095 67.7737 182.484 69.2331 182.484 71.0575C182.484 72.8818 184 74.25 185.896 74.25C187.887 74.25 189.309 72.8818 189.309 71.0575ZM188.361 113.564V81.2737C188.361 80.544 188.172 80.3615 187.413 80.3615H184.38C183.716 80.3615 183.432 80.4527 183.432 81.2737V113.564C183.432 114.294 183.811 114.476 184.38 114.476H187.413C188.172 114.476 188.361 114.294 188.361 113.564ZM210.354 113.291L209.975 111.193C209.88 110.737 209.596 110.554 209.122 110.645C208.363 110.737 207.605 110.828 206.657 110.828C204.761 110.828 204.192 109.916 204.192 107.544V67.9561C204.192 67.2264 204.003 67.0439 203.244 67.0439H200.116C199.358 67.0439 199.168 67.1352 199.168 67.9561V108.912C199.168 113.017 200.59 115.024 204.951 115.024C206.278 115.024 208.174 114.932 209.69 114.294C210.354 114.112 210.449 114.02 210.354 113.291Z" fill="#535456"/>
<path fill-rule="evenodd" clip-rule="evenodd" d="M43.2277 126.152C41.9006 126.152 40.5734 126.608 39.6254 127.247C38.7723 126.517 37.9191 126.152 36.3076 126.152C35.7388 126.152 34.7908 126.243 34.1272 126.335C33.3689 126.426 33.0845 126.882 33.0845 127.52V135.73C33.0845 135.912 33.1793 136.004 33.3689 136.004H34.222C34.4116 136.004 34.5064 136.004 34.5064 135.73V127.52C35.4544 127.338 36.0232 127.338 36.4024 127.338C38.8671 127.338 39.5306 128.524 39.5306 130.713V135.73C39.5306 135.912 39.6254 136.004 39.815 136.004H40.6682C40.8578 136.004 40.9526 136.004 40.9526 135.73V130.713C40.9526 129.618 40.8578 128.706 40.4786 127.976C41.237 127.52 42.4693 127.247 43.2277 127.247C45.408 127.247 46.1664 128.341 46.1664 130.713V135.639C46.1664 135.821 46.2612 135.912 46.4508 135.912H47.304C47.4936 135.912 47.5883 135.912 47.5883 135.639V130.439C47.2092 127.976 46.2612 126.152 43.2277 126.152ZM57.3524 135.183V129.345C57.3524 127.338 56.2148 126.243 53.7501 126.243C52.6126 126.243 51.3802 126.426 50.4322 126.791C50.3374 126.882 50.2427 126.973 50.2427 127.064L50.4322 127.794C50.527 127.976 50.6218 127.976 50.8114 127.885C51.5698 127.612 52.6126 127.429 53.4657 127.429C55.4565 127.429 55.9304 128.341 55.9304 129.527V130.074H53.3709C50.527 130.074 49.2947 131.443 49.2947 133.358C49.2947 134.909 50.1479 136.368 53.3709 136.368C54.5085 136.368 55.9304 136.186 57.068 135.73C57.2576 135.547 57.3524 135.365 57.3524 135.183ZM55.9304 131.169V134.726C54.9825 135 53.8449 135.091 53.3709 135.091C52.0438 135.091 50.7166 134.635 50.7166 133.176C50.7166 131.26 52.5178 131.078 53.4657 131.078L55.9304 131.169ZM65.7893 128.433L66.3581 127.703C66.4529 127.612 66.4529 127.52 66.3581 127.429C65.3153 126.517 64.0829 126.243 62.661 126.243C62.187 126.243 61.6182 126.243 61.1443 126.335C60.2911 126.426 60.1015 126.791 60.1015 127.52V135.821C60.1015 136.004 60.1963 136.095 60.3859 136.095H61.2391C61.4286 136.095 61.5234 136.095 61.5234 135.821V127.612C62.0922 127.52 62.4714 127.52 62.7558 127.52C63.8934 127.52 64.8413 127.976 65.5997 128.615C65.5997 128.524 65.6945 128.524 65.7893 128.433ZM69.0124 131.351L68.9176 122.868C68.9176 122.686 68.9176 122.595 68.6332 122.595H67.6852C67.4956 122.595 67.4008 122.595 67.4008 122.868V135.821C67.4008 136.004 67.4956 136.095 67.6852 136.095H68.6332C68.8228 136.095 68.9176 136.095 68.9176 135.821V133.267L71.2875 130.622L73.7522 135.821C73.847 135.912 73.9418 136.004 74.1314 136.004H75.1742C75.3637 136.004 75.3637 135.912 75.2689 135.821L72.2355 129.527L74.795 126.517C74.8898 126.426 74.8898 126.335 74.7002 126.335H73.5626C73.373 126.335 73.2782 126.426 73.2782 126.517L69.0124 131.351ZM80.7671 126.152C78.2076 126.152 76.4065 127.885 76.4065 131.26C76.4065 134.726 78.1128 136.277 80.8619 136.277C81.9047 136.277 82.8527 136.095 83.8006 135.547C83.8954 135.456 83.9902 135.365 83.8954 135.183L83.5162 134.544C83.4215 134.453 83.3267 134.362 83.1371 134.453C82.5683 134.726 81.7151 135 80.8619 135C79.1556 135 77.6389 134.088 77.6389 131.534H83.4215C84.1798 131.534 84.6538 131.26 84.6538 130.348C84.9382 127.976 83.7058 126.152 80.7671 126.152ZM83.611 130.439H77.8285C77.9232 128.706 78.966 127.247 80.7671 127.247C82.9475 127.338 83.611 128.797 83.611 130.439ZM86.3601 127.52H87.7821V133.814C87.7821 135.456 88.4457 136.277 90.4364 136.277C90.8156 136.277 91.6688 136.277 92.3323 136.004C92.5219 135.912 92.5219 135.821 92.4271 135.73L92.2375 135C92.2375 134.909 92.2375 134.818 91.9531 134.909C91.4792 135 90.8156 135.091 90.5312 135.091C89.3936 135.091 89.204 134.635 89.204 133.723V127.52H91.4792C91.6688 127.52 91.7636 127.429 91.7636 127.247V126.608C91.7636 126.426 91.7635 126.335 91.4792 126.335H89.2988V124.145C89.2988 123.963 89.204 123.872 89.0145 123.963L88.4457 124.145C88.2561 124.237 88.1613 124.237 88.1613 124.51L87.8769 126.243L86.3601 126.517C86.1706 126.608 86.0758 126.608 86.0758 126.791V127.247C86.1706 127.429 86.1706 127.52 86.3601 127.52ZM96.0294 123.689C96.0294 123.142 95.5554 122.686 95.0814 122.686C94.5127 122.686 94.1335 123.142 94.1335 123.689C94.1335 124.237 94.6075 124.601 95.0814 124.601C95.5554 124.601 96.0294 124.237 96.0294 123.689ZM95.745 135.821V126.608C95.745 126.426 95.6502 126.335 95.4606 126.335H94.6075C94.4179 126.335 94.3231 126.335 94.3231 126.608V135.821C94.3231 136.004 94.4179 136.095 94.6075 136.095H95.4606C95.6502 136.004 95.745 136.004 95.745 135.821ZM106.741 135.821V130.804C106.741 127.52 105.509 126.152 102.191 126.152C101.528 126.152 100.295 126.243 99.7265 126.335C98.9681 126.426 98.6837 126.882 98.6837 127.52V135.73C98.6837 135.912 98.7785 136.004 98.9681 136.004H99.8213C100.011 136.004 100.106 136.004 100.106 135.73V127.52C101.054 127.338 101.812 127.338 102.096 127.338C104.751 127.338 105.414 128.433 105.414 130.804V135.73C105.414 135.912 105.509 136.004 105.699 136.004H106.647C106.647 136.004 106.741 136.004 106.741 135.821ZM115.842 127.703V134.635C114.799 135 113.756 135.091 113.188 135.091C111.292 135.091 110.154 133.814 110.154 131.26C110.154 128.524 111.386 127.338 113.377 127.338C114.041 127.338 114.989 127.429 115.842 127.703ZM113.377 126.152C110.154 126.152 108.827 128.341 108.827 131.26C108.827 134.088 110.059 136.186 113.093 136.186C113.851 136.186 114.989 136.004 115.842 135.73V135.821C115.842 137.919 114.61 138.466 112.334 138.831C112.24 138.831 112.145 138.922 112.145 139.014L112.24 139.926C112.24 140.017 112.334 140.108 112.524 140.108C115.557 139.743 117.264 138.649 117.264 135.365V127.156C117.264 127.064 117.169 126.882 117.074 126.791C115.842 126.335 114.515 126.152 113.377 126.152ZM131.294 132.993C130.441 134.27 129.303 135.091 128.165 135.091C127.028 135.091 125.985 134.544 125.985 133.085C125.985 131.625 127.123 130.531 128.545 129.801C129.587 130.895 130.441 131.899 131.294 132.993ZM134.327 136.004H135.37C135.56 136.004 135.56 135.821 135.465 135.73C134.991 135.274 134.612 134.818 134.327 134.544C133.664 133.906 133.095 133.176 133 132.993C133.758 131.625 134.327 130.166 136.413 129.801C136.508 129.801 136.697 129.71 136.602 129.527L136.508 128.797C136.508 128.706 136.413 128.615 136.223 128.615C135.939 128.615 135.654 128.706 135.37 128.797C133.853 129.345 133 130.622 132.147 131.899C131.294 130.895 130.82 130.348 129.872 129.071C131.294 128.159 132.621 127.156 132.621 125.514C132.621 123.963 131.389 122.868 129.587 122.868C127.976 122.868 126.459 123.963 126.459 125.696C126.459 126.699 127.123 127.703 127.976 128.797C126.27 129.892 124.848 131.443 124.848 133.176C124.848 135.091 125.985 136.277 128.26 136.277C129.967 136.277 131.199 135.365 132.242 133.997L133.853 135.821C133.948 136.004 134.043 136.004 134.327 136.004ZM131.104 125.696C131.104 126.882 129.967 127.703 129.019 128.25C128.355 127.52 127.786 126.608 127.786 125.696C127.786 124.693 128.45 124.145 129.493 124.145C130.63 124.054 131.104 124.966 131.104 125.696ZM150.158 133.541C150.158 131.899 148.736 131.169 147.03 130.531C145.324 129.892 144.66 129.527 144.66 128.706C144.66 127.885 145.418 127.338 146.556 127.338C147.409 127.338 148.073 127.429 149.115 127.885C149.21 127.976 149.305 127.976 149.4 127.794L149.684 127.064C149.779 126.882 149.684 126.791 149.589 126.699C148.547 126.335 147.694 126.152 146.651 126.152C144.47 126.152 143.238 127.247 143.238 128.797C143.238 130.166 144.091 130.804 146.272 131.625C147.788 132.172 148.736 132.72 148.736 133.632C148.736 134.726 147.788 135.183 146.556 135.183C145.608 135.183 144.565 135 143.428 134.453C143.238 134.362 143.143 134.453 143.048 134.544L142.764 135.183C142.669 135.365 142.764 135.456 142.859 135.547C143.902 136.095 145.324 136.277 146.461 136.277C148.641 136.277 150.158 135.274 150.158 133.541ZM156.036 126.152C153.476 126.152 151.675 127.885 151.675 131.26C151.675 134.726 153.381 136.277 156.13 136.277C157.173 136.277 158.121 136.095 159.069 135.547C159.164 135.456 159.259 135.365 159.164 135.183L158.785 134.544C158.69 134.453 158.595 134.362 158.406 134.453C157.837 134.726 156.984 135 156.13 135C154.424 135 152.907 134.088 152.907 131.534H158.69C159.448 131.534 159.922 131.26 159.922 130.348C160.207 127.976 158.88 126.152 156.036 126.152ZM158.88 130.439H153.192C153.287 128.706 154.329 127.247 156.13 127.247C158.216 127.338 158.88 128.797 158.88 130.439ZM168.17 128.433L168.738 127.703C168.833 127.612 168.833 127.52 168.738 127.429C167.696 126.517 166.463 126.243 165.041 126.243C164.567 126.243 163.999 126.243 163.525 126.335C162.671 126.426 162.482 126.791 162.482 127.52V135.821C162.482 136.004 162.577 136.095 162.766 136.095H163.619C163.809 136.095 163.904 136.095 163.904 135.821V127.612C164.473 127.52 164.852 127.52 165.136 127.52C166.274 127.52 167.222 127.976 167.98 128.615C167.98 128.524 167.98 128.524 168.17 128.433ZM174.426 135.365C174.237 135.912 174.142 136.095 173.478 136.004H172.815C172.341 136.004 172.151 135.821 171.961 135.274L168.738 126.426C168.644 126.335 168.738 126.243 168.833 126.243H169.971C170.16 126.243 170.16 126.335 170.255 126.426L172.246 131.99L173.194 134.818H173.289L174.237 132.081L176.132 126.608C176.227 126.517 176.322 126.426 176.417 126.426H177.554C177.649 126.426 177.649 126.517 177.649 126.608L174.426 135.365ZM181.157 123.689C181.157 123.142 180.683 122.686 180.209 122.686C179.64 122.686 179.261 123.142 179.261 123.689C179.261 124.237 179.735 124.601 180.209 124.601C180.778 124.601 181.157 124.237 181.157 123.689ZM180.967 135.821V126.608C180.967 126.426 180.872 126.335 180.683 126.335H179.83C179.64 126.335 179.545 126.335 179.545 126.608V135.821C179.545 136.004 179.64 136.095 179.83 136.095H180.683C180.872 136.004 180.967 136.004 180.967 135.821ZM187.982 135.091C185.612 135.091 184.854 133.449 184.854 131.351C184.854 129.345 185.802 127.429 187.982 127.429C188.835 127.429 189.499 127.703 190.162 127.976C190.352 128.068 190.447 127.976 190.542 127.885L190.921 127.247C191.016 127.156 191.016 126.973 190.826 126.882C189.878 126.426 189.025 126.243 187.982 126.243C185.233 126.243 183.527 128.159 183.527 131.351C183.527 134.635 184.949 136.277 187.887 136.277C189.025 136.277 190.068 136.095 191.11 135.547C191.205 135.456 191.3 135.365 191.205 135.183L190.921 134.544C190.826 134.453 190.826 134.362 190.542 134.453C189.783 134.818 188.835 135.091 187.982 135.091ZM196.798 126.152C194.239 126.152 192.438 127.885 192.438 131.26C192.438 134.726 194.144 136.277 196.893 136.277C197.936 136.277 198.884 136.095 199.832 135.547C199.926 135.456 200.021 135.365 199.926 135.183L199.547 134.544C199.452 134.453 199.358 134.362 199.168 134.453C198.599 134.726 197.746 135 196.893 135C195.187 135 193.67 134.088 193.67 131.534H199.452C200.211 131.534 200.685 131.26 200.685 130.348C200.969 127.976 199.642 126.152 196.798 126.152ZM199.547 130.439H193.859C193.954 128.706 194.997 127.247 196.798 127.247C199.073 127.338 199.547 128.797 199.547 130.439ZM209.69 133.541C209.69 131.899 208.269 131.169 206.562 130.531C204.856 129.892 204.192 129.527 204.192 128.706C204.192 127.885 204.951 127.338 206.088 127.338C206.941 127.338 207.605 127.429 208.648 127.885C208.743 127.976 208.837 127.976 208.932 127.794L209.216 127.064C209.311 126.882 209.217 126.791 209.122 126.699C208.079 126.335 207.226 126.152 206.183 126.152C204.003 126.152 202.77 127.247 202.77 128.797C202.77 130.166 203.624 130.804 205.804 131.625C207.321 132.172 208.269 132.72 208.269 133.632C208.269 134.726 207.321 135.183 206.088 135.183C205.14 135.183 204.098 135 202.96 134.453C202.77 134.362 202.676 134.453 202.581 134.544L202.296 135.183C202.202 135.365 202.296 135.456 202.391 135.547C203.434 136.095 204.856 136.277 205.993 136.277C208.269 136.277 209.69 135.274 209.69 133.541Z" fill="#535456"/>
<path fill-rule="evenodd" clip-rule="evenodd" d="M126.743 147.679L126.648 141.477C126.648 141.294 126.553 141.294 126.364 141.294H125.51C125.321 141.294 125.226 141.294 125.226 141.477V152.696C125.226 152.879 125.321 152.879 125.51 152.879H126.364C126.553 152.879 126.648 152.879 126.648 152.696V149.777L129.492 146.494L132.999 152.696C133.189 152.97 133.284 152.97 133.568 152.97H134.516C134.706 152.97 134.706 152.879 134.706 152.696L130.535 145.399L133.853 141.568C133.947 141.477 133.947 141.385 133.758 141.385H132.62C132.431 141.385 132.241 141.477 132.146 141.568L128.639 145.764L126.743 147.679ZM142.763 152.058V146.676C142.763 144.852 141.626 143.848 139.446 143.848C138.498 143.848 137.36 144.031 136.507 144.304C136.412 144.396 136.317 144.487 136.317 144.578L136.507 145.216C136.602 145.399 136.696 145.399 136.791 145.308C137.455 145.125 138.403 144.943 139.256 144.943C141.057 144.943 141.436 145.764 141.436 146.858V147.314H139.161C136.602 147.314 135.464 148.591 135.464 150.325C135.464 151.693 136.222 153.061 139.066 153.061C140.204 153.061 141.341 152.879 142.479 152.514C142.669 152.331 142.763 152.24 142.763 152.058ZM141.531 148.318V151.602C140.678 151.875 139.635 151.966 139.256 151.966C138.024 151.966 136.886 151.602 136.886 150.233C136.886 148.5 138.498 148.409 139.351 148.409L141.531 148.318ZM150.821 144.031H145.039C144.849 144.031 144.849 144.122 144.849 144.213V144.852C144.849 145.034 144.849 145.034 145.039 145.034H150.158V145.125L144.659 151.328C144.47 151.602 144.375 151.784 144.375 152.058V152.24C144.375 152.514 144.565 152.787 144.944 152.787H151.295C151.485 152.787 151.58 152.696 151.58 152.605V151.966C151.58 151.875 151.58 151.784 151.295 151.784H145.702L151.295 145.49C151.485 145.308 151.58 145.034 151.58 144.852V144.669C151.39 144.213 151.2 144.031 150.821 144.031ZM159.732 152.058V146.676C159.732 144.852 158.594 143.848 156.414 143.848C155.466 143.848 154.329 144.031 153.475 144.304C153.381 144.396 153.286 144.487 153.286 144.578L153.475 145.216C153.57 145.399 153.665 145.399 153.76 145.308C154.423 145.125 155.371 144.943 156.225 144.943C158.026 144.943 158.405 145.764 158.405 146.858V147.314H156.13C153.57 147.314 152.433 148.591 152.433 150.325C152.433 151.693 153.191 153.061 156.035 153.061C157.173 153.061 158.31 152.879 159.448 152.514C159.637 152.331 159.732 152.24 159.732 152.058ZM158.405 148.318V151.602C157.552 151.875 156.509 151.966 156.13 151.966C154.897 151.966 153.76 151.602 153.76 150.233C153.76 148.5 155.371 148.409 156.225 148.409L158.405 148.318ZM163.24 148.5L163.145 140.747C163.145 140.564 163.145 140.564 162.955 140.564H162.102C161.912 140.564 161.818 140.564 161.818 140.747V152.514C161.818 152.696 161.912 152.696 162.102 152.696H162.955C163.145 152.696 163.145 152.696 163.145 152.514V150.233L165.23 147.862L167.411 152.605C167.505 152.696 167.6 152.787 167.695 152.787H168.643C168.833 152.787 168.833 152.696 168.738 152.605L165.989 146.95L168.359 144.213C168.453 144.122 168.453 144.031 168.264 144.031H167.126C166.937 144.031 166.937 144.122 166.842 144.213L163.24 148.5ZM177.649 152.514V147.771C177.649 145.399 176.606 143.939 174.141 143.939C173.478 143.939 172.53 144.031 171.676 144.396V141.021C171.676 140.838 171.582 140.838 171.392 140.838H170.539C170.349 140.838 170.254 140.838 170.254 141.021V152.787C170.254 152.97 170.349 152.97 170.539 152.97H171.392C171.582 152.97 171.676 152.97 171.676 152.787V145.581C172.34 145.308 173.288 145.125 173.952 145.125C175.658 145.125 176.416 146.037 176.416 147.862V152.787C176.416 152.97 176.511 152.97 176.701 152.97H177.554C177.554 152.787 177.649 152.696 177.649 152.514ZM185.896 150.416C185.896 148.956 184.664 148.318 183.052 147.771C181.535 147.223 180.872 146.858 180.872 146.129C180.872 145.399 181.63 144.943 182.578 144.943C183.431 144.943 184 145.034 184.853 145.399C184.948 145.49 185.043 145.49 185.138 145.308L185.422 144.669C185.517 144.487 185.422 144.396 185.327 144.396C184.379 144.031 183.621 143.939 182.673 143.939C180.777 143.939 179.639 144.943 179.639 146.311C179.639 147.497 180.398 148.135 182.388 148.865C183.81 149.412 184.664 149.868 184.664 150.689C184.664 151.693 183.81 152.058 182.673 152.058C181.82 152.058 180.872 151.875 179.924 151.419C179.734 151.328 179.639 151.419 179.545 151.51L179.26 152.058C179.165 152.24 179.26 152.331 179.355 152.331C180.303 152.787 181.535 152.97 182.673 152.97C184.569 152.97 185.896 152.149 185.896 150.416ZM187.128 145.034H188.361V150.689C188.361 152.149 189.024 152.879 190.731 152.879C191.11 152.879 191.868 152.879 192.437 152.696C192.626 152.605 192.626 152.514 192.532 152.423L192.342 151.784C192.342 151.693 192.342 151.602 192.152 151.693C191.678 151.784 191.015 151.875 190.825 151.875C189.783 151.875 189.593 151.419 189.593 150.689V145.125H191.584C191.773 145.125 191.773 145.034 191.773 144.943V144.396C191.773 144.213 191.773 144.213 191.584 144.213H189.593V142.206C189.593 142.024 189.498 142.024 189.309 142.024L188.835 142.206C188.645 142.298 188.55 142.298 188.55 142.48L188.455 143.939L187.128 144.122C186.939 144.213 186.939 144.213 186.939 144.396V144.852C186.939 144.943 186.939 145.034 187.128 145.034ZM200.874 152.058V146.676C200.874 144.852 199.736 143.848 197.556 143.848C196.608 143.848 195.47 144.031 194.617 144.304C194.522 144.396 194.428 144.487 194.428 144.578L194.617 145.216C194.712 145.399 194.807 145.399 194.902 145.308C195.565 145.125 196.513 144.943 197.366 144.943C199.167 144.943 199.547 145.764 199.547 146.858V147.314H197.271C194.712 147.314 193.574 148.591 193.574 150.325C193.574 151.693 194.333 153.061 197.177 153.061C198.314 153.061 199.452 152.879 200.589 152.514C200.779 152.331 200.874 152.24 200.874 152.058ZM199.452 148.318V151.602C198.599 151.875 197.556 151.966 197.177 151.966C195.944 151.966 194.807 151.602 194.807 150.233C194.807 148.5 196.418 148.409 197.271 148.409L199.452 148.318ZM210.448 152.514V148.044C210.448 145.034 209.311 143.848 206.372 143.848C205.803 143.848 204.666 143.939 204.097 144.031C203.433 144.122 203.149 144.487 203.149 145.125V152.605C203.149 152.787 203.244 152.787 203.433 152.787H204.286C204.476 152.787 204.571 152.787 204.571 152.605V145.125C205.424 144.943 206.088 144.943 206.372 144.943C208.742 144.943 209.311 146.037 209.311 148.135V152.605C209.311 152.787 209.405 152.787 209.595 152.787H210.448C210.353 152.787 210.448 152.696 210.448 152.514Z" fill="#535456"/>
</svg>
