<svg width="120" height="120" viewBox="0 0 120 120" fill="none" xmlns="http://www.w3.org/2000/svg">
<rect width="120" height="120" rx="20" fill="#DAECF7"/>
<g clip-path="url(#clip0_277_14181)">
<path d="M47.6777 37.9236C47.6777 44.5366 53.2057 49.9169 60.0006 49.9169C66.7949 49.9169 72.3228 44.5368 72.3228 37.9236C72.3228 31.3084 66.7951 25.9268 60.0006 25.9268C53.2059 25.9268 47.6777 31.3084 47.6777 37.9236ZM69.7319 37.9236C69.7319 43.1462 65.3664 47.3951 60.0006 47.3951C54.6344 47.3951 50.2687 43.1462 50.2687 37.9236C50.2687 32.6991 54.6344 28.4486 60.0006 28.4486C65.3664 28.4486 69.7319 32.6993 69.7319 37.9236Z" fill="#005287"/>
<path d="M36.774 37.3701C31.1952 37.3701 26.6562 41.7885 26.6562 47.2197C26.6562 52.6495 31.195 57.067 36.774 57.067C42.3517 57.067 46.8897 52.6495 46.8897 47.2197C46.8897 41.7885 42.3517 37.3701 36.774 37.3701ZM36.774 54.5454C32.6237 54.5454 29.2472 51.2591 29.2472 47.2197C29.2472 43.1791 32.6237 39.892 36.774 39.892C40.9232 39.892 44.2988 43.1794 44.2988 47.2197C44.2988 51.2591 40.9232 54.5454 36.774 54.5454Z" fill="#005287"/>
<path d="M83.2269 57.067C88.8057 57.067 93.3445 52.6495 93.3445 47.2197C93.3445 41.7885 88.806 37.3701 83.2269 37.3701C77.6481 37.3701 73.1094 41.7885 73.1094 47.2197C73.1094 52.6495 77.6481 57.067 83.2269 57.067ZM83.2269 39.8917C87.377 39.8917 90.7535 43.1791 90.7535 47.2195C90.7535 51.2589 87.377 54.5451 83.2269 54.5451C79.0766 54.5451 75.7001 51.2589 75.7001 47.2195C75.7001 43.1791 79.0766 39.8917 83.2269 39.8917Z" fill="#005287"/>
<path d="M87.6654 58.8411H78.7148C77.896 58.8411 77.0902 58.9414 76.3065 59.1353C74.3251 55.3575 70.2873 52.7646 65.6391 52.7646H65.0689H55.0208H54.4504C49.7939 52.7646 45.7503 55.3667 43.7728 59.1557C42.9625 58.9483 42.1289 58.8415 41.2843 58.8411H32.3341C26.9114 58.8411 22.5 63.1353 22.5 68.4129V92.8128C22.5 93.5091 23.0798 94.0737 23.7955 94.0737C24.5109 94.0737 25.0909 93.5091 25.0909 92.8128V68.4129C25.0909 64.5257 28.3403 61.3629 32.3343 61.3629H41.2852C41.8144 61.3643 42.3391 61.422 42.8526 61.5334C42.6108 62.4552 42.4818 63.4206 42.4818 64.415V92.8128C42.4818 93.5091 43.0619 94.0737 43.7773 94.0737C44.4927 94.0737 45.0727 93.5091 45.0727 92.8128V64.4152C45.0727 63.3179 45.2731 62.2653 45.6391 61.2896C45.6563 61.2571 45.6728 61.2243 45.6872 61.1897C45.7065 61.1441 45.7218 61.0978 45.7352 61.0513C47.0288 57.8867 50.0891 55.5887 53.7251 55.3165V59.8958C53.7251 60.5921 54.3051 61.1569 55.0206 61.1569H56.3L52.8091 86.0776C52.7474 86.5176 52.9282 86.9566 53.2846 87.2334L59.2363 91.8585C59.4727 92.0422 59.7587 92.1339 60.0447 92.1339C60.3305 92.1339 60.6165 92.0422 60.8529 91.8585L66.8051 87.2336C67.1617 86.9566 67.342 86.5176 67.2806 86.0776L63.7892 61.1569H65.0689C65.7845 61.1569 66.3644 60.5921 66.3644 59.8958V55.3165C69.982 55.5876 73.0296 57.8631 74.3345 61.0025C74.3479 61.0518 74.3632 61.1006 74.383 61.1489C74.4021 61.1954 74.4242 61.2399 74.448 61.283C74.8159 62.2602 75.0167 63.3152 75.0167 64.415V92.8128C75.0167 93.5091 75.5968 94.0737 76.3122 94.0737C77.0278 94.0737 77.6077 93.5091 77.6077 92.8128V64.4152C77.6077 63.4141 77.4772 62.4421 77.2322 61.5144C77.7171 61.4149 78.2124 61.3632 78.7148 61.3632H87.6654C91.6597 61.3632 94.9093 64.5259 94.9093 68.4132V92.813C94.9093 93.5094 95.4893 94.074 96.2048 94.074C96.9202 94.074 97.5002 93.5094 97.5002 92.813V68.4129C97.5 63.1353 93.0884 58.8411 87.6654 58.8411ZM63.7732 55.2867V58.6353H62.3049H57.7843H56.3163V55.2867H63.7732ZM64.6136 85.7094L60.0445 89.2596L55.4756 85.7094L58.9147 61.1572H61.174L64.6136 85.7094Z" fill="#005287"/>
</g>
<defs>
<clipPath id="clip0_277_14181">
<rect width="75" height="73" fill="white" transform="translate(22.5 23.5)"/>
</clipPath>
</defs>
</svg>
