<svg width="120" height="120" viewBox="0 0 120 120" fill="none" xmlns="http://www.w3.org/2000/svg">
<rect width="120" height="120" rx="20" fill="#DAECF7"/>
<g clip-path="url(#clip0_277_14236)">
<path d="M89.6067 37.4217C89.5996 37.296 89.5748 37.1749 89.5318 37.056C89.5182 37.0185 89.5089 36.9813 89.4919 36.9454C89.4275 36.8077 89.3459 36.677 89.233 36.5657C89.233 36.5657 84.6464 32.0397 80.0545 27.5176C77.7592 25.2559 75.4613 22.9968 73.7349 21.3031C72.4585 20.0515 71.6176 19.2265 71.0251 18.7138C71.0159 18.7009 71.0067 18.6893 70.9976 18.6764C70.9963 18.6739 70.995 18.6726 70.9936 18.6701L70.9832 18.6777C70.151 17.9652 69.822 17.8877 69.4459 18.1111L34.5255 18.1123C32.2381 18.1123 30.377 19.9423 30.377 22.191V88.7298C30.377 89.8696 30.8281 90.9413 31.6522 91.7521C32.463 92.5451 33.5826 93 34.7229 93H52.3358C53.076 93 53.6751 92.4114 53.6751 91.6841C53.6751 90.9567 53.076 90.3682 52.3358 90.3682H34.7229C34.2849 90.3682 33.8546 90.1921 33.5445 89.8902C33.2333 89.5843 33.0554 89.1615 33.0554 88.7298V22.191C33.0554 21.3931 33.7146 20.7441 34.5255 20.7441L68.6261 20.7429C68.6766 23.7462 68.6195 32.0698 68.561 37.4793C68.5571 37.8315 68.6971 38.1694 68.9482 38.4188C69.1993 38.6693 69.5432 38.8093 69.9003 38.8093H86.9429V88.9444C86.9429 89.3196 86.7886 89.6858 86.5178 89.9519C86.2445 90.2204 85.8809 90.3682 85.4939 90.3682H84.8844C84.1442 90.3682 83.5451 90.9567 83.5451 91.6841C83.5451 92.4114 84.1442 93 84.8844 93H85.4939C86.5977 93 87.6348 92.5772 88.413 91.8113C89.1807 91.057 89.6214 90.0123 89.6214 88.9444V37.4934C89.6214 37.468 89.6081 37.4468 89.6067 37.4217ZM71.254 36.1775C71.3259 29.2512 71.3481 25.1351 71.3272 22.6602C74.4608 25.7315 80.2061 31.3907 85.0597 36.1775H71.254Z" fill="#005287"/>
<path d="M79.3888 83.148C79.339 82.9789 79.2554 82.8291 79.1516 82.6985C81.0943 80.3954 82.2654 77.4342 82.2654 74.2012C82.2654 66.8662 76.2491 60.9199 68.8279 60.9199C61.4065 60.9199 55.3904 66.8662 55.3904 74.2012C55.3904 77.6155 56.7051 80.7189 58.8472 83.0717L54.3116 98.4395C54.1634 98.9415 54.3273 99.4836 54.7303 99.8234C55.1332 100.162 55.6988 100.233 56.1777 100.011L60.7483 97.8649L63.6208 101.982C63.874 102.345 64.29 102.556 64.727 102.556C64.8031 102.556 64.8793 102.55 64.9553 102.537C65.4724 102.449 65.8896 102.072 66.0248 101.572L69.1082 90.2011L72.1911 101.572C72.3263 102.071 72.7424 102.447 73.2579 102.537C73.3355 102.55 73.4129 102.556 73.4889 102.556C73.9246 102.556 74.3381 102.347 74.5926 101.986L77.473 97.8896L82.041 100.014C82.5185 100.235 83.0829 100.161 83.487 99.8208C83.8886 99.4823 84.0514 98.9415 83.903 98.4395L79.3888 83.148ZM68.8279 63.4497C74.826 63.4497 79.7058 68.2728 79.7058 74.2012C79.7058 80.1297 74.826 84.9527 68.8279 84.9527C62.8296 84.9527 57.9498 80.1297 57.9498 74.2012C57.9498 68.2728 62.8296 63.4497 68.8279 63.4497ZM64.1824 98.1074L62.3112 95.4266C61.9359 94.8896 61.2233 94.6989 60.6289 94.9804L57.7301 96.341L61.0683 85.0319C62.8155 86.2572 64.8692 87.0762 67.0966 87.36L64.1824 98.1074ZM77.5898 95.0077C76.9953 94.7313 76.288 94.9207 75.914 95.4525L74.0375 98.1204L71.0979 87.2787C73.3137 86.9052 75.341 85.9994 77.0454 84.6935L80.4885 96.3566L77.5898 95.0077Z" fill="#005287"/>
<path d="M68.8281 80.8418C72.5388 80.8418 75.5469 77.8688 75.5469 74.2012C75.5469 70.5337 72.5388 67.5605 68.8281 67.5605C65.1175 67.5605 62.1094 70.5337 62.1094 74.2012C62.1094 77.8688 65.1175 80.8418 68.8281 80.8418ZM68.8281 70.2168C71.051 70.2168 72.8594 72.0042 72.8594 74.2012C72.8594 76.3983 71.051 78.1855 68.8281 78.1855C66.6052 78.1855 64.7969 76.3983 64.7969 74.2012C64.7969 72.0042 66.6052 70.2168 68.8281 70.2168Z" fill="#005287"/>
</g>
<defs>
<clipPath id="clip0_277_14236">
<rect width="86" height="85" fill="white" transform="translate(17 17.5)"/>
</clipPath>
</defs>
</svg>
