<svg width="120" height="120" viewBox="0 0 120 120" fill="none" xmlns="http://www.w3.org/2000/svg">
<rect width="120" height="120" rx="20" fill="#DAECF7"/>
<g clip-path="url(#clip0_277_14194)">
<path d="M48.8758 72.2388H31.6247C30.8854 72.2388 30.3926 72.705 30.3926 73.4043V87.3916C30.3926 88.091 30.8854 88.5572 31.6247 88.5572H48.8758C49.6151 88.5572 50.1079 88.091 50.1079 87.3916V73.4043C50.1079 72.7051 49.6151 72.2388 48.8758 72.2388ZM47.6436 86.226H32.857V74.57H47.6436V86.226Z" fill="#005287"/>
<path d="M36.5544 79.2325H43.9477C44.687 79.2325 45.1799 78.7663 45.1799 78.0669C45.1799 77.3676 44.687 76.9014 43.9477 76.9014H36.5544C35.8151 76.9014 35.3223 77.3676 35.3223 78.0669C35.3223 78.7663 35.8151 79.2325 36.5544 79.2325Z" fill="#005287"/>
<path d="M36.5544 83.8947H41.4832C42.2226 83.8947 42.7154 83.4285 42.7154 82.7292C42.7154 82.0298 42.2226 81.5635 41.4832 81.5635H36.5544C35.8151 81.5635 35.3223 82.0297 35.3223 82.729C35.3223 83.4284 35.8151 83.8947 36.5544 83.8947Z" fill="#005287"/>
<path d="M96.6862 58.7177L85.5009 47.0462C87.9783 44.9104 89.5394 41.8375 89.5394 38.4363C89.5394 32.0255 83.9945 26.7803 77.2174 26.7803C70.856 26.7803 65.5808 31.4018 64.9574 37.2707H59.9664V36.105C59.9664 35.4057 59.4735 34.9395 58.7342 34.9395H46.4121C45.6728 34.9395 45.18 35.4057 45.18 36.105V37.2706H29.1611C25.7108 37.2706 23 39.8349 23 43.0987V87.3917C23 90.6554 25.8341 93.2198 29.1611 93.2198H75.9852C79.4353 93.2198 82.1463 90.6555 82.1463 87.3917V49.1105C82.6238 48.9116 83.0862 48.6861 83.5302 48.4335L94.8382 60.2329C95.0847 60.4661 95.331 60.5826 95.7007 60.5826C95.9472 60.5826 96.3168 60.4661 96.5632 60.3494C97.0559 59.8834 97.1792 59.184 96.6862 58.7177ZM77.2174 29.1114C82.6391 29.1114 87.0751 33.3076 87.0751 38.4363C87.0751 42.3733 84.4597 45.7584 80.7923 47.12C80.7097 47.1331 80.6269 47.1522 80.5443 47.1783C79.4353 47.528 78.3264 47.7612 77.2174 47.7612C71.7956 47.7612 67.3596 43.565 67.3596 38.4363C67.3596 33.3076 71.7956 29.1114 77.2174 29.1114ZM47.6443 37.2706H57.502V38.4361V49.9756L53.3126 46.8285C53.0661 46.712 52.8197 46.5953 52.5732 46.5953C52.3267 46.5953 52.0804 46.7119 51.8339 46.8285L47.6444 49.9756V38.4361V37.2706H47.6443ZM79.6817 49.8591V87.3916C79.6817 89.3732 78.0799 90.8884 75.9851 90.8884H29.1611C27.0663 90.8884 25.4645 89.3732 25.4645 87.3916V43.0987C25.4645 41.1171 27.0663 39.6018 29.1611 39.6018H45.1798V50.2088C45.1798 51.0247 45.6726 51.8407 46.5353 52.1904C46.7818 52.3069 47.1514 52.4236 47.5211 52.4236C48.0139 52.4236 48.5069 52.307 48.9998 51.9574L52.5732 49.2764L56.1467 51.9574C56.886 52.4236 57.7485 52.5402 58.6112 52.1905C59.4738 51.8408 59.9664 51.0247 59.9664 50.2088V39.6018H64.8952C65.0679 40.9627 65.485 42.2586 66.1006 43.4478C66.114 43.4744 66.128 43.5007 66.1418 43.5272C66.1935 43.6251 66.246 43.7225 66.3003 43.8189C66.3641 43.9341 66.4301 44.0479 66.498 44.1607C66.4997 44.1636 66.5015 44.1663 66.503 44.1692C67.6955 46.1499 69.4827 47.7714 71.6317 48.814C71.6542 48.825 71.6766 48.836 71.6993 48.8468C71.8315 48.9099 71.965 48.9709 72.0998 49.0296C72.1502 49.0516 72.2006 49.0733 72.2515 49.0947C72.3657 49.1427 72.4805 49.1893 72.5964 49.2339C72.6698 49.2623 72.7434 49.2897 72.8175 49.3168C72.917 49.353 73.0166 49.3887 73.1173 49.4226C73.2094 49.4537 73.3024 49.4831 73.3955 49.512C73.4833 49.5394 73.5711 49.5667 73.6598 49.5921C73.7666 49.6228 73.8745 49.6512 73.9825 49.6794C74.0619 49.7 74.1409 49.721 74.2209 49.74C74.339 49.7683 74.4583 49.7936 74.5777 49.8184C74.6511 49.8337 74.7242 49.85 74.7981 49.864C74.9247 49.8881 75.0527 49.9088 75.1808 49.9292C75.2501 49.9403 75.3189 49.9526 75.3887 49.9625C75.5224 49.9815 75.6574 49.9965 75.7924 50.0114C75.8586 50.0187 75.9241 50.0278 75.9905 50.034C76.1347 50.0476 76.2802 50.0568 76.4258 50.0655C76.4842 50.0691 76.5422 50.0747 76.6009 50.0775C76.805 50.0871 77.0104 50.0924 77.2172 50.0924C77.3609 50.0924 77.5004 50.0882 77.6384 50.0823C78.3046 50.0609 78.9578 49.9901 79.5939 49.8714C79.6234 49.8672 79.6519 49.8632 79.6817 49.8591Z" fill="#005287"/>
</g>
<defs>
<clipPath id="clip0_277_14194">
<rect width="74" height="70" fill="white" transform="translate(23 25)"/>
</clipPath>
</defs>
</svg>
