<svg width="120" height="120" viewBox="0 0 120 120" fill="none" xmlns="http://www.w3.org/2000/svg">
<rect width="120" height="120" rx="20" fill="#DAECF7"/>
<g clip-path="url(#clip0_277_14222)">
<path d="M74.3782 51.0593L70.3493 46.3594C69.8241 45.7467 68.9754 45.7467 68.4503 46.3594L54.627 62.4848L50.2046 57.326C49.6794 56.7133 48.8307 56.7133 48.3056 57.326L44.2767 62.0259C43.7515 62.6383 43.7515 63.6286 44.2767 64.2411L53.6775 75.2075C53.9394 75.5146 54.2833 75.6664 54.627 75.6664C54.9709 75.6664 55.3146 75.5129 55.5765 75.2075L74.3782 53.2745C74.9034 52.662 74.9034 51.6719 74.3782 51.0593ZM54.627 71.8847L47.1251 63.1335L49.2551 60.6488L53.6775 65.8076C54.2027 66.4203 55.0514 66.4203 55.5765 65.8076L69.3998 49.6822L71.5298 52.1669L54.627 71.8847Z" fill="#005287"/>
<path d="M99.9769 68.3978L93.9792 60.0006L99.9769 51.6034C100.311 51.1365 100.382 50.4864 100.162 49.9366C99.9407 49.3867 99.4667 49.0342 98.9456 49.0342H81.3081L80.1303 39.4135C80.0364 38.6412 79.4696 38.0678 78.8008 38.0678H68.543C66.961 36.5293 60.8584 30.5981 60.8584 30.5981C60.3602 30.1125 59.6376 30.1125 59.1394 30.5981L51.4548 38.0678H41.1971C40.5282 38.0678 39.9629 38.6412 39.8675 39.4121L38.6897 49.0344H21.0527C20.5316 49.0344 20.0576 49.3869 19.836 49.9367C19.6144 50.4882 19.6869 51.1383 20.0214 51.6036L26.0191 60.0008L20.0214 68.398C19.6869 68.8649 19.6158 69.515 19.836 70.0648C20.0576 70.6163 20.5316 70.9672 21.0527 70.9672H38.69C39.0485 73.889 39.8691 80.5895 39.8691 80.5895C39.963 81.3619 40.5298 81.9338 41.1972 81.9338H51.455L59.1395 89.4035C59.3893 89.6464 59.6941 89.767 59.999 89.767C60.3038 89.767 60.6101 89.6464 60.8584 89.4035L68.5416 81.9338C70.6286 81.9338 78.8033 81.94 78.8006 81.9338C79.4695 81.9338 80.0348 81.3604 80.1301 80.5895C80.1301 80.5895 80.9507 73.889 81.3092 70.9672H98.9453C99.4664 70.9672 99.9404 70.6147 100.162 70.0648C100.384 69.5131 100.311 68.8631 99.9769 68.3978ZM23.92 67.8339L28.7991 61.0034C29.2141 60.4221 29.2141 59.5778 28.7991 58.998L23.92 52.1674H36.9871L32.108 58.9978C31.693 59.5791 31.693 60.4234 32.108 61.0032L36.9871 67.8337H23.92V67.8339ZM79.1138 68.3962C79.048 68.4885 78.9902 68.5904 78.9446 68.6986C78.8506 68.9179 78.8466 68.9273 77.6379 78.8002C67.7415 78.8002 67.732 78.8065 67.4568 78.9664C67.3641 79.0213 67.2769 79.087 67.1976 79.1637L59.9991 86.1604L52.8007 79.1637C52.5604 78.9288 52.2554 78.8002 51.9413 78.8002H42.3618C41.1531 68.9273 41.1491 68.9179 41.0551 68.6986C41.008 68.5904 40.9517 68.4887 40.8859 68.3962L34.8881 60.0006L40.8859 51.6034C41.0458 51.3794 41.1492 51.1099 41.184 50.8216L42.3618 41.201H51.9413C52.2556 41.201 52.559 41.0725 52.8007 40.8375L59.9991 33.8408C67.3158 40.9533 67.3211 40.9564 67.4568 41.0365C67.6434 41.1446 67.849 41.201 68.057 41.201H77.6365L78.8143 50.8233C78.8492 51.1115 78.9526 51.381 79.1124 51.605L85.1101 60.0006L79.1138 68.3962ZM83.011 67.8339L87.8901 61.0034C88.3051 60.4221 88.3051 59.5778 87.8901 58.998L83.011 52.1675H96.0781L91.199 58.998C90.784 59.5793 90.784 60.4236 91.199 61.0034L96.0781 67.8339H83.011Z" fill="#005287"/>
</g>
<defs>
<clipPath id="clip0_277_14222">
<rect width="80.5804" height="94" fill="white" transform="translate(19.709 13)"/>
</clipPath>
</defs>
</svg>
