<svg width="120" height="120" viewBox="0 0 120 120" fill="none" xmlns="http://www.w3.org/2000/svg">
<rect width="120" height="120" rx="20" fill="#DAECF7"/>
<path d="M31.192 79C29.4427 79 28.248 78.6587 27.608 77.976C26.968 77.2507 26.648 76.0987 26.648 74.52C26.648 73.1547 27.096 71.512 27.992 69.592C28.888 67.672 30.296 65.7093 32.216 63.704C33.8373 61.9973 35.544 60.504 37.336 59.224C39.128 57.9013 40.7067 56.8133 42.072 55.96C43.48 55.1067 44.6747 54.3173 45.656 53.592C46.6373 52.8667 47.448 52.1627 48.088 51.48C48.728 50.7547 49.176 50.0293 49.432 49.304C49.7307 48.5787 49.88 47.768 49.88 46.872C49.88 44.824 49.048 43.2667 47.384 42.2C45.7627 41.0907 43.608 40.536 40.92 40.536C39.2987 40.536 37.6133 40.8133 35.864 41.368C34.1573 41.9227 32.5573 42.7547 31.064 43.864C30.4667 44.248 29.9973 44.2267 29.656 43.8L27.672 41.176C27.3733 40.664 27.48 40.216 27.992 39.832C29.8693 38.424 31.9387 37.3147 34.2 36.504C36.504 35.6933 38.8507 35.288 41.24 35.288C43.2027 35.288 45.0373 35.5227 46.744 35.992C48.4933 36.4613 50.008 37.1653 51.288 38.104C52.6107 39 53.656 40.152 54.424 41.56C55.192 42.968 55.576 44.6107 55.576 46.488C55.576 48.0667 55.3413 49.496 54.872 50.776C54.4027 52.0133 53.6987 53.1867 52.76 54.296C51.864 55.3627 50.7547 56.3867 49.432 57.368C48.152 58.3493 46.68 59.3093 45.016 60.248C43.7787 60.9733 42.4987 61.8267 41.176 62.808C39.896 63.7467 38.68 64.792 37.528 65.944C36.376 67.096 35.352 68.3547 34.456 69.72C33.6027 71.0427 32.9627 72.4507 32.536 73.944H54.68C55.1067 73.944 55.3627 74.0293 55.448 74.2C55.576 74.3707 55.64 74.648 55.64 75.032V77.976C55.64 78.3173 55.576 78.5733 55.448 78.744C55.3627 78.9147 55.1067 79 54.68 79H31.192ZM76.238 79.704C73.7633 79.704 71.2673 79.4267 68.75 78.872C66.2327 78.3173 64.014 77.2293 62.094 75.608C61.71 75.3093 61.646 74.9253 61.902 74.456L63.822 71.64C64.1633 71.128 64.6753 71.0853 65.358 71.512C66.9367 72.5787 68.6007 73.368 70.35 73.88C72.142 74.3493 73.9127 74.584 75.662 74.584C79.1607 74.584 81.742 73.816 83.406 72.28C85.1127 70.7013 85.966 68.5893 85.966 65.944C85.966 64.9627 85.7527 64.0453 85.326 63.192C84.8993 62.296 84.2807 61.528 83.47 60.888C82.6593 60.2053 81.6567 59.672 80.462 59.288C79.31 58.904 78.0087 58.712 76.558 58.712H74.766C74.2113 58.712 73.7847 58.6053 73.486 58.392C73.1873 58.1787 73.038 57.7307 73.038 57.048V55.32C73.038 54.168 73.55 53.592 74.574 53.592H75.982C78.7127 53.592 80.846 52.9947 82.382 51.8C83.9607 50.5627 84.75 48.856 84.75 46.68C84.75 45.4853 84.494 44.504 83.982 43.736C83.47 42.9253 82.8087 42.2853 81.998 41.816C81.1873 41.304 80.27 40.9413 79.246 40.728C78.2647 40.5147 77.262 40.408 76.238 40.408C74.4033 40.408 72.59 40.664 70.798 41.176C69.0487 41.688 67.4913 42.4133 66.126 43.352C65.486 43.7787 64.974 43.736 64.59 43.224L62.862 40.728C62.5633 40.3013 62.606 39.9173 62.99 39.576C64.6967 38.168 66.7873 37.1013 69.262 36.376C71.7793 35.608 74.254 35.224 76.686 35.224C78.606 35.224 80.398 35.4587 82.062 35.928C83.726 36.3973 85.1767 37.1013 86.414 38.04C87.6513 38.936 88.6327 40.0667 89.358 41.432C90.0833 42.7547 90.446 44.2907 90.446 46.04C90.446 48.344 89.806 50.392 88.526 52.184C87.246 53.976 85.518 55.2347 83.342 55.96V56.28C85.8593 56.664 87.886 57.7947 89.422 59.672C91.0007 61.5067 91.79 63.7467 91.79 66.392C91.79 68.2693 91.4273 70.0187 90.702 71.64C90.0193 73.2613 88.9953 74.6693 87.63 75.864C86.3073 77.0587 84.686 77.9973 82.766 78.68C80.846 79.3627 78.67 79.704 76.238 79.704Z" fill="#005287"/>
</svg>
