<svg width="120" height="120" viewBox="0 0 120 120" fill="none" xmlns="http://www.w3.org/2000/svg">
<rect width="120" height="120" rx="20" fill="#DAECF7"/>
<path d="M59.4122 22.297C59.0089 22.4551 58.6239 23.0873 57.414 25.6754C56.589 27.4337 55.9107 28.8956 55.8924 28.9154C55.8924 28.9352 54.3891 29.1722 52.5926 29.4488C50.741 29.7452 49.1094 30.1008 48.8711 30.2588C48.4128 30.5947 48.1744 31.3059 48.3394 31.8986C48.4494 32.2542 51.8226 35.9684 52.8492 36.8377L53.2892 37.2131L52.7759 40.4531C52.4826 42.2312 52.2442 43.95 52.2442 44.2661C52.2442 44.9378 53.0142 45.7676 53.6375 45.7676C53.8575 45.7478 55.3974 45.0168 57.029 44.108L60.0355 42.4683L63.0237 44.108C64.6553 45.0168 66.1586 45.7676 66.3419 45.7676C66.8186 45.7676 67.4969 45.2342 67.6985 44.7007C67.7902 44.4241 67.6618 43.1202 67.3135 41.026C67.0202 39.2282 66.8002 37.628 66.8186 37.4699C66.8552 37.3119 67.8635 36.1462 69.0734 34.9016C70.2834 33.6569 71.3833 32.3925 71.53 32.1159C71.8416 31.4442 71.6767 30.654 71.1267 30.2588C70.8884 30.1008 69.2568 29.7452 67.4052 29.4488C65.6086 29.1722 64.1053 28.9352 64.1053 28.9154C64.087 28.8956 63.4087 27.4337 62.5837 25.6754C61.2821 22.8897 61.0255 22.4748 60.5122 22.2773C60.2005 22.1587 59.9439 22.0599 59.9255 22.0797C59.9072 22.0797 59.6872 22.1785 59.4122 22.297ZM61.0988 29.4883C61.6488 30.6342 62.2354 31.6615 62.3821 31.7406C62.6204 31.8789 66.2686 32.5308 66.8186 32.5308C66.9285 32.5308 66.2686 33.3606 65.352 34.3879C64.1603 35.6918 63.6654 36.3635 63.6654 36.6994C63.6837 36.9562 63.8304 38.0626 64.032 39.1492C64.2153 40.2358 64.3437 41.1446 64.307 41.1841C64.2887 41.2236 63.2987 40.7297 62.1254 40.0975L59.9989 38.9516L57.8723 40.0975C56.699 40.7297 55.7091 41.2236 55.6907 41.1841C55.6541 41.1446 55.7824 40.2358 55.9657 39.1492C56.1674 38.0626 56.314 36.9562 56.3324 36.6994C56.3324 36.3635 55.8374 35.6918 54.6458 34.3879C53.7292 33.3606 53.0692 32.5308 53.1792 32.5308C53.7658 32.5308 57.3773 31.8789 57.6523 31.7208C57.8173 31.622 58.3856 30.6144 58.9356 29.4686C59.4672 28.3227 59.9439 27.3942 59.9989 27.3942C60.0539 27.3942 60.5488 28.3425 61.0988 29.4883Z" fill="#005287"/>
<path d="M35.9466 27.0387C35.5433 27.1968 35.1583 27.829 33.9484 30.417C33.1234 32.1754 32.4451 33.6373 32.4268 33.6571C32.4268 33.6769 30.9235 33.9139 29.127 34.1905C25.6805 34.7239 25.0755 34.961 24.8738 35.7908C24.6905 36.6206 25.1122 37.2725 27.477 39.6433C29.3836 41.5794 29.7319 42.014 29.7319 42.5277C29.7503 43.4365 30.3736 44.1872 31.1252 44.1872C31.9318 44.1872 32.4818 43.6736 32.6835 42.7055C33.0134 41.204 32.9585 41.0855 31.1802 39.1296C30.2636 38.1023 29.6036 37.2725 29.7136 37.2725C30.3002 37.2725 33.9117 36.6206 34.1867 36.4625C34.3517 36.3637 34.92 35.3561 35.47 34.2103C36.0016 33.0644 36.4783 32.1359 36.5333 32.1359C36.5883 32.1359 37.0833 33.0842 37.6332 34.23C38.1832 35.3759 38.7698 36.4032 38.9165 36.4823C39.1548 36.6206 42.803 37.2725 43.353 37.2725C43.463 37.2725 42.803 38.1023 41.8864 39.1296C40.6948 40.4335 40.1998 41.1052 40.1998 41.4411C40.2181 41.6979 40.3648 42.8043 40.5664 43.8909C40.7498 44.9775 40.8781 45.8863 40.8414 45.9258C40.8231 45.9653 39.8331 45.4714 38.6598 44.8392L36.5333 43.6933L34.425 44.8392C33.2701 45.4516 32.2802 45.9653 32.2252 45.9653C32.1702 45.9653 32.1335 45.827 32.1335 45.669C32.1335 45.1355 31.2719 44.3848 30.7036 44.3848C29.6953 44.3848 29.3653 44.9182 28.9986 47.0519C28.8153 48.2571 28.742 49.1658 28.8336 49.4424C29.0353 49.9759 29.7136 50.5093 30.2086 50.5093C30.4102 50.4895 31.9318 49.7585 33.5634 48.8497L36.5699 47.21L39.5581 48.8497C41.1897 49.7585 42.693 50.5093 42.8763 50.5093C43.353 50.5093 44.0313 49.9759 44.2329 49.4424C44.3246 49.1658 44.1963 47.8619 43.8479 45.7677C43.5546 43.9699 43.3346 42.3697 43.353 42.2116C43.3896 42.0536 44.3979 40.8879 45.6079 39.6433C46.8178 38.3986 47.9177 37.1342 48.0644 36.8576C48.3761 36.1859 48.2111 35.3957 47.6611 35.0005C47.4228 34.8425 45.7912 34.4869 43.9396 34.1905C42.143 33.9139 40.6398 33.6769 40.6398 33.6571C40.6214 33.6373 39.9431 32.1754 39.1182 30.417C37.8166 27.6314 37.5599 27.2165 37.0466 27.019C36.7349 26.9004 36.4783 26.8016 36.46 26.8214C36.4416 26.8214 36.2216 26.9202 35.9466 27.0387Z" fill="#005287"/>
<path d="M82.8781 27.0387C82.4747 27.1968 82.0898 27.829 80.8798 30.417C80.0549 32.1754 79.3766 33.6373 79.3582 33.6571C79.3582 33.6769 77.855 33.9139 76.0584 34.1905C74.2068 34.4869 72.5752 34.8425 72.3369 35.0005C71.8786 35.3364 71.6402 36.0476 71.8052 36.6403C71.9152 36.9959 75.2884 40.7101 76.315 41.5794L76.755 41.9548L76.2417 45.1948C75.9484 46.9729 75.7101 48.6917 75.7101 49.0078C75.7101 49.6795 76.48 50.5093 77.1033 50.5093C77.3233 50.4895 78.8632 49.7585 80.4948 48.8497L83.5014 47.21L86.4895 48.8497C88.1211 49.7585 89.6427 50.5093 89.8444 50.5093C90.4494 50.5093 91.2193 49.6598 91.2193 49.0078C91.2193 48.6917 90.981 47.0124 90.706 45.2738L90.1927 42.0931L92.1909 40.0384C95.0691 37.0354 95.1975 36.8774 95.1975 36.344C95.1975 35.7315 94.9225 35.1586 94.4642 34.9017C94.1892 34.7437 88.3228 33.7164 87.6995 33.7164C87.6078 33.7164 87.4062 33.3607 87.2228 32.9064C86.8195 31.958 86.3246 31.5432 85.6096 31.5432C84.968 31.5432 84.198 32.3334 84.198 32.9854C84.198 33.6373 85.4263 36.2452 85.8662 36.4823C86.0496 36.6008 87.1679 36.8379 88.3228 37.0157L90.431 37.3318L88.7811 39.1494C87.6078 40.4335 87.1312 41.1052 87.1312 41.4411C87.1495 41.6979 87.2962 42.8043 87.4978 43.8909C87.6812 44.9775 87.8095 45.8863 87.7728 45.9258C87.7545 45.9456 86.7645 45.4714 85.5913 44.859L83.4647 43.7328L81.3381 44.859C80.1648 45.4714 79.1749 45.9456 79.1566 45.9258C79.1199 45.8863 79.2482 44.9775 79.4315 43.8909C79.6332 42.8043 79.7799 41.6979 79.7982 41.4411C79.7982 41.1052 79.3216 40.4335 78.1483 39.1494L76.4984 37.3318L78.6066 37.0157C79.7615 36.8379 80.8798 36.6008 81.0631 36.4823C81.2648 36.3835 81.9248 35.2178 82.5481 33.9139C83.593 31.6815 83.6847 31.5432 84.2163 31.5432C84.913 31.5432 85.6646 30.7727 85.6646 30.0417C85.6646 29.1526 84.6013 27.256 83.9597 27.019C83.6663 26.9004 83.4097 26.8016 83.3914 26.8214C83.373 26.8214 83.153 26.9202 82.8781 27.0387Z" fill="#005287"/>
<path d="M32.9585 52.2873C30.4653 52.8602 28.4854 54.0061 26.7255 55.9225C24.5989 58.2339 23.334 61.5135 23.334 64.7338C23.334 67.6972 24.5073 70.9966 26.3589 73.1698L27.3855 74.3947L26.7072 74.7108C25.4606 75.2639 23.004 77.1606 21.6291 78.6423C18.3842 82.0996 16.3677 86.8807 16.056 91.8198C15.946 93.6966 15.9644 93.7559 16.4227 94.2498C17.0276 94.9018 17.8709 94.9413 18.4576 94.3091C18.8059 93.9337 18.8975 93.5781 18.9892 92.0964C19.4292 85.0038 23.6823 79.0374 29.9154 76.7259C31.6936 76.0739 31.9136 75.9159 32.1519 75.2244C32.4269 74.4539 32.0419 73.7427 31.0153 73.1303C28.8704 71.8856 27.1655 69.5346 26.5422 67.0058C24.9106 60.2293 30.887 53.7888 37.175 55.5471C41.8681 56.8708 44.783 62.0469 43.5914 66.9663C42.9864 69.4951 41.3732 71.7671 39.3016 73.0117C38.0916 73.7427 37.6883 74.4539 38 75.2837C38.165 75.7974 38.8433 76.3901 39.2466 76.3901C39.7966 76.3901 42.4364 77.6545 43.6097 78.4645C45.058 79.472 45.6996 79.5708 46.3413 78.8596C46.9279 78.2472 46.9462 77.3186 46.3779 76.7062C45.9746 76.2715 43.7197 74.7898 43.0781 74.5527C42.7848 74.4342 42.8764 74.2366 43.7747 73.1895C45.6263 70.9571 46.7996 67.6972 46.7996 64.7338C46.7996 58.9057 42.8031 53.5714 37.5417 52.3861C36.1484 52.07 34.1318 52.0304 32.9585 52.2873Z" fill="#005287"/>
<path d="M82.8228 52.2875C80.3296 52.8605 78.3497 54.0063 76.5897 55.9227C74.4632 58.2342 73.1982 61.5138 73.1982 64.734C73.1982 67.6975 74.3715 70.9968 76.2231 73.17C77.1214 74.2369 77.2131 74.4344 76.9197 74.553C76.2781 74.79 74.0232 76.2718 73.6199 76.7064C73.0516 77.3189 73.0699 78.2474 73.6566 78.8599C74.2982 79.5711 74.9398 79.4723 76.3881 78.4647C77.5614 77.6547 80.2012 76.3903 80.7512 76.3903C81.1545 76.3903 81.8328 75.7976 81.9978 75.2839C82.3095 74.4542 81.9062 73.743 80.6962 73.012C78.6247 71.7673 77.0114 69.4953 76.4064 66.9665C74.7748 60.2296 80.7696 53.789 87.0393 55.5473C91.7324 56.871 94.6472 62.0472 93.4556 66.9665C92.8506 69.4953 91.2374 71.7673 89.1658 73.012C87.9559 73.743 87.5526 74.4542 87.8642 75.2839C88.0292 75.7976 88.7075 76.3903 89.1108 76.3903C89.2392 76.3903 89.9908 76.6669 90.7974 77.0028C94.8122 78.6623 98.4054 82.5345 99.9453 86.8612C100.55 88.5405 101.064 91.2669 101.064 92.8276C101.064 93.5981 101.155 93.8944 101.522 94.2698C102.109 94.9218 102.952 94.9218 103.538 94.2698C104.088 93.6969 104.143 92.63 103.722 89.9037C102.769 83.5224 98.9737 77.8523 93.7673 75.0074L92.6307 74.3949L93.6573 73.17C95.4905 70.9968 96.6638 67.6975 96.6638 64.734C96.6638 60.0913 94.0423 55.5276 90.2474 53.5124C87.8825 52.248 85.0777 51.7936 82.8228 52.2875Z" fill="#005287"/>
<path d="M57.8902 55.4484C55.397 56.0213 53.4171 57.1672 51.6572 59.0836C49.5306 61.3951 48.2656 64.6746 48.2656 67.8949C48.2656 70.8584 49.4389 74.1577 51.2905 76.3309L52.3171 77.5558L51.6388 77.8719C50.3922 78.4251 47.9357 80.3217 46.5607 81.8034C43.3159 85.2608 41.2993 90.0418 40.9877 94.9809C40.8777 96.8578 40.896 96.917 41.3543 97.4109C41.9593 98.0629 42.8026 98.1024 43.3892 97.4702C43.7375 97.0948 43.8292 96.7392 43.9209 95.2575C44.3608 88.165 48.614 82.1985 54.847 79.887C56.5886 79.2548 56.8452 79.077 57.0836 78.4251C57.3586 77.6151 56.9552 76.9038 55.7636 76.1728C53.6921 74.9282 52.0788 72.6562 51.4738 70.1274C49.8422 63.3905 55.837 56.9499 62.1067 58.7082C66.7998 60.0319 69.7146 65.2081 68.523 70.1274C67.9181 72.6562 66.3048 74.9282 64.2332 76.1728C63.0233 76.9038 62.62 77.6151 62.9316 78.4448C63.0966 78.9585 63.7749 79.5512 64.1782 79.5512C64.3066 79.5512 65.0582 79.8278 65.8648 80.1636C69.8796 81.8232 73.4728 85.6954 75.0127 90.0221C75.6177 91.7014 76.131 94.4277 76.131 95.9885C76.131 96.759 76.2227 97.0553 76.5893 97.4307C77.176 98.0827 78.0192 98.0827 78.6059 97.4307C79.1559 96.8578 79.2109 95.7909 78.7892 93.0645C77.8359 86.6832 74.1328 81.1317 68.853 78.1682L67.7164 77.5163L68.7247 76.3111C70.5579 74.1182 71.7312 70.8386 71.7312 67.8949C71.7312 62.0668 67.7347 56.7326 62.4733 55.5472C61.08 55.2311 59.0635 55.1916 57.8902 55.4484Z" fill="#005287"/>
</svg>
