<svg width="21" height="21" viewBox="0 0 21 21" fill="none" xmlns="http://www.w3.org/2000/svg">
<g opacity="0.8">
<rect x="1.76172" y="1.56006" width="17.5" height="17.5" rx="6" fill="url(#paint0_radial_247_7911)"/>
<rect x="1.76172" y="1.56006" width="17.5" height="17.5" rx="6" fill="url(#paint1_radial_247_7911)"/>
<rect x="1.76172" y="1.56006" width="17.5" height="17.5" rx="6" fill="#666666"/>
<path d="M14.8867 6.87256C14.8867 7.39033 14.467 7.81006 13.9492 7.81006C13.4315 7.81006 13.0117 7.39033 13.0117 6.87256C13.0117 6.35479 13.4315 5.93506 13.9492 5.93506C14.467 5.93506 14.8867 6.35479 14.8867 6.87256Z" fill="white"/>
<path fill-rule="evenodd" clip-rule="evenodd" d="M10.5117 13.4351C12.2376 13.4351 13.6367 12.0359 13.6367 10.3101C13.6367 8.58417 12.2376 7.18506 10.5117 7.18506C8.78583 7.18506 7.38672 8.58417 7.38672 10.3101C7.38672 12.0359 8.78583 13.4351 10.5117 13.4351ZM10.5117 12.1851C11.5473 12.1851 12.3867 11.3456 12.3867 10.3101C12.3867 9.27452 11.5473 8.43506 10.5117 8.43506C9.47618 8.43506 8.63672 9.27452 8.63672 10.3101C8.63672 11.3456 9.47618 12.1851 10.5117 12.1851Z" fill="white"/>
<path fill-rule="evenodd" clip-rule="evenodd" d="M4.26172 10.0601C4.26172 7.95986 4.26172 6.90976 4.67044 6.10759C5.02997 5.40199 5.60365 4.82831 6.30925 4.46878C7.11142 4.06006 8.16152 4.06006 10.2617 4.06006H10.7617C12.8619 4.06006 13.912 4.06006 14.7142 4.46878C15.4198 4.82831 15.9935 5.40199 16.353 6.10759C16.7617 6.90976 16.7617 7.95986 16.7617 10.0601V10.5601C16.7617 12.6603 16.7617 13.7104 16.353 14.5125C15.9935 15.2181 15.4198 15.7918 14.7142 16.1513C13.912 16.5601 12.8619 16.5601 10.7617 16.5601H10.2617C8.16152 16.5601 7.11142 16.5601 6.30925 16.1513C5.60365 15.7918 5.02997 15.2181 4.67044 14.5125C4.26172 13.7104 4.26172 12.6603 4.26172 10.5601V10.0601ZM10.2617 5.31006H10.7617C11.8324 5.31006 12.5603 5.31103 13.1229 5.357C13.6709 5.40177 13.9512 5.48293 14.1467 5.58254C14.6171 5.82223 14.9996 6.20468 15.2392 6.67508C15.3388 6.87058 15.42 7.15084 15.4648 7.69886C15.5107 8.26147 15.5117 8.98933 15.5117 10.0601V10.5601C15.5117 11.6308 15.5107 12.3586 15.4648 12.9213C15.42 13.4693 15.3388 13.7495 15.2392 13.945C14.9996 14.4154 14.6171 14.7979 14.1467 15.0376C13.9512 15.1372 13.6709 15.2183 13.1229 15.2631C12.5603 15.3091 11.8324 15.3101 10.7617 15.3101H10.2617C9.19099 15.3101 8.46313 15.3091 7.90052 15.2631C7.3525 15.2183 7.07224 15.1372 6.87674 15.0376C6.40634 14.7979 6.02389 14.4154 5.7842 13.945C5.68459 13.7495 5.60343 13.4693 5.55866 12.9213C5.51269 12.3586 5.51172 11.6308 5.51172 10.5601V10.0601C5.51172 8.98933 5.51269 8.26147 5.55866 7.69886C5.60343 7.15084 5.68459 6.87058 5.7842 6.67508C6.02389 6.20468 6.40634 5.82223 6.87674 5.58254C7.07224 5.48293 7.3525 5.40177 7.90052 5.357C8.46313 5.31103 9.19099 5.31006 10.2617 5.31006Z" fill="white"/>
</g>
<defs>
<radialGradient id="paint0_radial_247_7911" cx="0" cy="0" r="1" gradientUnits="userSpaceOnUse" gradientTransform="translate(8.01172 14.6851) rotate(-55.3758) scale(15.9498)">
<stop stop-color="#B13589"/>
<stop offset="0.79309" stop-color="#C62F94"/>
<stop offset="1" stop-color="#8A3AC8"/>
</radialGradient>
<radialGradient id="paint1_radial_247_7911" cx="0" cy="0" r="1" gradientUnits="userSpaceOnUse" gradientTransform="translate(7.38672 19.6851) rotate(-65.1363) scale(14.1214)">
<stop stop-color="#E0E8B7"/>
<stop offset="0.444662" stop-color="#FB8A2E"/>
<stop offset="0.71474" stop-color="#E2425C"/>
<stop offset="1" stop-color="#E2425C" stop-opacity="0"/>
</radialGradient>
</defs>
</svg>
