<svg width="13" height="16" viewBox="0 0 13 16" fill="none" xmlns="http://www.w3.org/2000/svg">
<path d="M12 6.593C12 11.0475 6.5 14.8657 6.5 14.8657C6.5 14.8657 1 11.0475 1 6.593C1 5.07403 1.57946 3.61727 2.61091 2.5432C3.64236 1.46913 5.04131 0.865723 6.5 0.865723C7.95869 0.865723 9.35764 1.46913 10.3891 2.5432C11.4205 3.61727 12 5.07403 12 6.593Z" stroke="white" stroke-linecap="round" stroke-linejoin="round"/>
<path d="M6.5 8.50209C7.51252 8.50209 8.33333 7.64736 8.33333 6.593C8.33333 5.53863 7.51252 4.6839 6.5 4.6839C5.48748 4.6839 4.66667 5.53863 4.66667 6.593C4.66667 7.64736 5.48748 8.50209 6.5 8.50209Z" stroke="white" stroke-linecap="round" stroke-linejoin="round"/>
</svg>
