<svg width="18" height="18" viewBox="0 0 18 18" fill="none" xmlns="http://www.w3.org/2000/svg">
<path d="M13.4 4.6H13.408M5 1H13C15.2091 1 17 2.79086 17 5V13C17 15.2091 15.2091 17 13 17H5C2.79086 17 1 15.2091 1 13V5C1 2.79086 2.79086 1 5 1ZM12.2 8.496C12.2987 9.1618 12.185 9.84177 11.875 10.4392C11.565 11.0367 11.0745 11.5211 10.4733 11.8237C9.87208 12.1263 9.19076 12.2317 8.52623 12.1247C7.8617 12.0178 7.24781 11.7041 6.77187 11.2281C6.29593 10.7522 5.98219 10.1383 5.87525 9.47377C5.76832 8.80924 5.87365 8.12792 6.17626 7.5267C6.47887 6.92548 6.96335 6.43499 7.56079 6.12499C8.15823 5.81499 8.8382 5.70127 9.504 5.8C10.1831 5.90071 10.8119 6.21717 11.2974 6.70265C11.7828 7.18812 12.0993 7.81686 12.2 8.496Z" stroke="white" stroke-linecap="round" stroke-linejoin="round"/>
</svg>
