<svg width="166" height="65" viewBox="0 0 166 65" fill="none" xmlns="http://www.w3.org/2000/svg">
<path fill-rule="evenodd" clip-rule="evenodd" d="M136.964 42.5073V39.9349H139.944V42.5073C139.944 42.6014 139.976 42.6014 140.07 42.6014H140.446C140.541 42.6014 140.572 42.5701 140.572 42.5073V37.1743C140.572 37.0802 140.541 37.0802 140.446 37.0802H140.07C139.976 37.0802 139.944 37.1116 139.944 37.1743V39.433H136.964V37.1743C136.964 37.0802 136.933 37.0802 136.839 37.0802H136.431C136.368 37.0802 136.305 37.1116 136.305 37.1743V42.5073C136.305 42.6014 136.337 42.6014 136.431 42.6014H136.839C136.933 42.6014 136.964 42.5701 136.964 42.5073ZM145.34 42.4446V42.1622C145.34 42.0681 145.309 42.0054 145.215 42.0054H143.019C142.517 42.0054 142.329 41.7544 142.329 41.3466V39.8722H144.901C144.995 39.8722 145.027 39.8094 145.027 39.7467V39.5271C145.027 39.433 144.995 39.4016 144.901 39.4016H142.329V38.2723C142.329 37.8331 142.548 37.5821 143.019 37.5821H145.152C145.246 37.5821 145.277 37.5508 145.277 37.4566V37.1743C145.277 37.0802 145.246 37.0175 145.152 37.0175H143.019C142.078 37.0175 141.733 37.6135 141.733 38.335V41.2839C141.733 42.0054 142.046 42.6014 143.019 42.6014H145.215C145.34 42.6014 145.34 42.5387 145.34 42.4446ZM148.854 39.6212V39.5898C149.23 39.4016 149.418 39.0565 149.544 38.586L149.92 37.1743C149.952 37.1116 149.952 37.0488 149.826 37.0488H149.45C149.387 37.0488 149.356 37.0488 149.324 37.1429L148.948 38.5546C148.76 39.2448 148.352 39.4016 147.944 39.4016H146.815V37.1743C146.815 37.0802 146.783 37.0802 146.721 37.0802H146.344C146.281 37.0802 146.219 37.1116 146.219 37.1743V42.5073C146.219 42.6014 146.25 42.6014 146.344 42.6014H146.721C146.815 42.6014 146.846 42.5701 146.846 42.5073V39.9349H148.069C148.603 39.9349 148.916 40.0918 149.105 40.7506L149.575 42.5387C149.607 42.6328 149.669 42.6328 149.732 42.6328H150.109C150.203 42.6328 150.234 42.5701 150.203 42.5073L149.701 40.6565C149.575 40.1232 149.387 39.7781 148.854 39.6212ZM152.838 42.5073V37.6135H154.469C154.563 37.6135 154.563 37.5821 154.563 37.5194V37.2057C154.563 37.1116 154.532 37.0802 154.469 37.0802H150.61C150.516 37.0802 150.516 37.1116 150.516 37.2057V37.5194C150.516 37.6135 150.516 37.6135 150.61 37.6135H152.21V42.5073C152.21 42.6014 152.242 42.6014 152.336 42.6014H152.744C152.806 42.6014 152.838 42.5701 152.838 42.5073ZM158.516 42.6014C158.422 42.6014 158.39 42.6014 158.359 42.5073L157.951 41.2839H155.598C155.536 41.4407 155.253 42.3505 155.191 42.5073C155.159 42.5701 155.128 42.6014 155.034 42.6014H154.595C154.5 42.6014 154.469 42.5387 154.5 42.4759L156.32 37.2998C156.414 37.0802 156.445 37.0175 156.665 37.0175H156.885C157.136 37.0175 157.167 37.0802 157.261 37.2998L159.081 42.4759C159.112 42.5387 159.081 42.6014 158.986 42.6014H158.516ZM157.167 38.8997L156.791 37.7076H156.759L156.383 38.8683L155.787 40.7192H157.794L157.167 38.8997ZM159.739 37.3939V42.5073C159.739 42.6014 159.771 42.6014 159.833 42.6014H160.21C160.304 42.6014 160.335 42.6014 160.335 42.5073V40.3114H161.873C163.284 40.3114 163.598 39.2448 163.598 38.6487C163.598 37.7076 162.939 37.0175 161.935 37.0175H160.116C159.833 37.0175 159.739 37.1429 159.739 37.3939ZM160.367 39.7781V37.5821H161.81C162.72 37.5821 162.971 38.2095 162.971 38.6801C162.971 39.3703 162.531 39.7781 161.81 39.7781H160.367ZM137.498 43.8563C138.156 43.8563 138.752 44.0759 138.752 44.7346C138.752 45.3307 138.219 45.7071 137.498 45.7071H137.09C136.933 45.7071 136.87 45.7699 136.87 45.9267V46.0836C136.87 46.2091 136.964 46.3032 137.121 46.3032H137.56C138.47 46.3032 138.972 46.7424 138.972 47.3384C138.972 48.0286 138.501 48.5305 137.341 48.5305C136.87 48.5305 136.305 48.405 135.929 48.2168C135.835 48.1854 135.804 48.2168 135.772 48.2795L135.647 48.5305C135.584 48.6246 135.615 48.656 135.678 48.7187C136.211 49.0324 136.964 49.0952 137.466 49.0952C138.878 49.0952 139.662 48.3736 139.662 47.4011C139.662 46.7424 139.192 46.1777 138.47 46.0522V46.0208C139.066 45.8012 139.474 45.3307 139.474 44.7346C139.474 43.8249 138.721 43.3543 137.623 43.3543C137.09 43.3543 136.494 43.4484 135.96 43.7308C135.898 43.7621 135.866 43.7935 135.929 43.8876L136.055 44.17C136.086 44.2327 136.117 44.2641 136.211 44.2327C136.556 43.9504 137.027 43.8563 137.498 43.8563ZM144.18 48.7814V48.4991C144.18 48.405 144.148 48.3423 144.054 48.3423H141.858C141.356 48.3423 141.168 48.0913 141.168 47.6835V46.2091H143.74C143.834 46.2091 143.866 46.1463 143.866 46.0836V45.8326C143.866 45.7385 143.834 45.7071 143.74 45.7071H141.168V44.5778C141.168 44.1386 141.388 43.8876 141.858 43.8876H143.991C144.085 43.8876 144.117 43.8563 144.117 43.7621V43.4798C144.117 43.3857 144.085 43.323 143.991 43.323H141.858C140.917 43.323 140.572 43.919 140.572 44.6405V47.5894C140.572 48.3109 140.886 48.9069 141.858 48.9069H144.054C144.148 48.9383 144.18 48.9069 144.18 48.7814ZM147.63 47.7148H147.599C147.505 47.5266 147.222 46.7424 147.128 46.5541C146.971 46.2091 145.999 43.8249 145.936 43.668C145.842 43.4171 145.779 43.3857 145.56 43.3857H145.372C145.089 43.3857 145.027 43.5112 145.027 43.7308V48.8442C145.027 48.9383 145.058 48.9383 145.152 48.9383H145.528C145.623 48.9383 145.654 48.9069 145.654 48.8442V44.515H145.717L146.093 45.3934C146.344 45.9267 146.971 47.4639 147.191 48.0286C147.285 48.2481 147.348 48.3109 147.568 48.3109H147.787C148.007 48.3109 148.069 48.2481 148.132 48.0286C148.383 47.4953 148.979 45.9581 149.23 45.4248L149.638 44.4523H149.669V48.8442C149.669 48.9383 149.701 48.9383 149.795 48.9383H150.171C150.234 48.9383 150.297 48.9069 150.297 48.8442V43.7308C150.297 43.5112 150.234 43.3857 149.952 43.3857H149.763C149.575 43.3857 149.481 43.4171 149.387 43.668C149.199 44.1386 148.477 45.9267 148.195 46.5855C148.038 46.7424 147.724 47.5266 147.63 47.7148ZM152.21 43.8249L152.148 44.7974C151.991 47.2129 151.991 48.0599 150.956 48.4991C150.893 48.5305 150.861 48.5305 150.893 48.656L150.956 48.9383C150.987 49.0324 151.05 49.0638 151.112 49.0324C152.524 48.5932 152.555 47.3384 152.744 44.8915L152.806 43.919H154.94V48.8128C154.94 48.9069 154.971 48.9069 155.065 48.9069H155.473C155.567 48.9069 155.598 48.8756 155.598 48.8128V43.7935C155.598 43.5112 155.442 43.3543 155.191 43.3543H152.712C152.367 43.3857 152.21 43.5112 152.21 43.8249ZM160.304 44.2013H160.335V48.8442C160.335 48.9383 160.367 48.9383 160.461 48.9383H160.837C160.931 48.9383 160.963 48.9069 160.963 48.8442V43.7308C160.963 43.5112 160.9 43.3857 160.618 43.3857H160.43C160.21 43.3857 160.179 43.4484 160.053 43.668L157.983 47.0561L157.355 48.0913H157.324V43.4798C157.324 43.3857 157.292 43.3857 157.198 43.3857H156.822C156.759 43.3857 156.696 43.4171 156.696 43.4798V48.5932C156.696 48.8128 156.791 48.9383 157.041 48.9383H157.23C157.418 48.9383 157.481 48.8442 157.606 48.656L159.614 45.3621L160.304 44.2013Z" fill="#535456"/>
<path d="M130.91 31.1198V53.8949" stroke="#535456" stroke-width="0.77763" stroke-miterlimit="22.9256"/>
<path fill-rule="evenodd" clip-rule="evenodd" d="M89.783 38.8054C90.63 42.2875 91.8534 45.5187 93.4533 48.4989C97.4688 47.5892 101.108 46.0834 104.308 44.1384C101.359 38.1466 100.167 31.245 100.355 24.218C97.7825 30.1157 94.269 34.9468 89.783 38.8054Z" fill="#836886"/>
<path fill-rule="evenodd" clip-rule="evenodd" d="M117.577 29.206C116.354 26.7277 114.911 24.3122 113.436 22.0221L104.998 8.97192C104.496 11.6384 103.868 14.2108 103.147 16.6264C102.237 25.4101 103.711 34.3508 108.009 41.4719C111.962 38.2721 115.162 34.0998 117.577 29.206Z" fill="#D36601"/>
<path fill-rule="evenodd" clip-rule="evenodd" d="M119.428 52.4516C122.628 45.9893 121.687 39.0563 119.052 32.4999C116.762 37.2368 113.781 41.315 110.142 44.6403C112.558 47.8088 115.664 50.4753 119.428 52.4516Z" fill="#FAB600"/>
<path fill-rule="evenodd" clip-rule="evenodd" d="M107.57 62.9609C110.864 61.8315 113.876 60.012 116.228 57.2828L116.322 57.1887C112.119 54.6476 108.825 51.4165 106.378 47.6833C103.272 49.7852 99.8215 51.3851 95.9629 52.4831C98.9118 56.624 102.802 60.1375 107.57 62.9609Z" fill="#005287"/>
<path fill-rule="evenodd" clip-rule="evenodd" d="M78.1444 45.8638C78.5522 49.6596 80.0267 53.4241 83.0382 57.0004C87.2105 61.9883 93.516 64.2156 99.8215 64.2156C100.229 64.2156 100.7 64.2156 101.108 64.1843C93.9552 58.3807 89.3437 50.4439 87.3046 40.8445C84.6068 42.7581 81.5638 44.4521 78.1444 45.8638Z" fill="#5AC0CA"/>
<path fill-rule="evenodd" clip-rule="evenodd" d="M86.3635 21.5829L86.0498 22.0221C82.0971 28.108 78.5836 34.9782 78.0817 41.9111C81.2501 40.6562 84.1048 39.0877 86.6772 37.1427C85.9871 32.343 85.8616 27.1355 86.3635 21.5829Z" fill="#A2C62D"/>
<path fill-rule="evenodd" clip-rule="evenodd" d="M99.7273 0.909668L88.9672 17.5361C88.1829 23.9357 88.2143 29.802 89.0613 35.1664C94.8962 29.8962 99.1313 22.4299 102.049 12.1404C102.268 11.2934 102.457 10.4777 102.708 9.63071C102.958 8.62685 103.178 7.62299 103.429 6.55639L99.7273 0.909668Z" fill="#535456"/>
<path fill-rule="evenodd" clip-rule="evenodd" d="M3.57634 39.0564V24.0612C3.57634 23.8103 3.5136 23.7475 3.26263 23.7475H2.16466C1.91369 23.7475 1.85095 23.7789 1.85095 24.0612V39.0878C1.85095 39.3388 1.91369 39.4015 2.16466 39.4015H3.294C3.5136 39.3701 3.57634 39.3074 3.57634 39.0564ZM16.5324 39.0564V33.0332C16.5324 28.9864 14.9953 27.4179 11.168 27.4179C10.4465 27.4179 8.97209 27.5434 8.25057 27.6375C7.43493 27.763 7.05848 28.2649 7.05848 29.1119V39.0878C7.05848 39.3388 7.18397 39.4015 7.37219 39.4015H8.37605C8.62702 39.4015 8.68976 39.3701 8.68976 39.0878V29.0805C9.75636 28.8609 10.6975 28.8609 11.0739 28.8609C14.1169 28.8609 14.8698 30.2726 14.8698 33.096V39.0564C14.8698 39.3074 14.9953 39.3701 15.1835 39.3701H16.2187C16.4697 39.3701 16.5324 39.3074 16.5324 39.0564ZM18.697 28.9551H20.3596V36.6095C20.3596 38.6172 21.1439 39.5583 23.4026 39.5583C23.8104 39.5583 24.8457 39.527 25.6613 39.2446C25.8809 39.1505 25.8495 39.0564 25.8181 38.8996L25.6299 38.0526C25.5985 37.8957 25.5985 37.8643 25.3162 37.8957C24.7829 38.0212 23.9673 38.0839 23.5908 38.0839C22.336 38.0839 21.9595 37.5506 21.9595 36.4213V28.9237H24.5947C24.8457 28.9237 24.877 28.8296 24.877 28.6414V27.8885C24.877 27.7002 24.8457 27.5748 24.5947 27.5748H21.9909V24.9082C21.9909 24.6886 21.8654 24.5945 21.6772 24.6573L21.0812 24.8769C20.8302 24.971 20.7675 25.0024 20.7361 25.2533L20.4224 27.4179L18.6656 27.7316C18.4147 27.7943 18.3833 27.8571 18.3833 28.0767V28.61C18.4147 28.8296 18.4147 28.9551 18.697 28.9551ZM32.0923 27.3865C29.1434 27.3865 27.0102 29.5511 27.0102 33.5352C27.0102 37.7388 28.9866 39.5583 32.2805 39.5583C33.4098 39.5583 34.6333 39.3701 35.6999 38.7427C35.8568 38.68 35.9195 38.5231 35.8254 38.3663L35.4489 37.582C35.3862 37.4251 35.2293 37.3938 35.0725 37.4879C34.4451 37.8643 33.4098 38.1153 32.4374 38.1153C30.3669 38.1153 28.7042 36.986 28.7042 33.8803H35.5117C36.3273 33.8803 37.0175 33.5665 37.0175 32.3431C36.9547 29.4884 35.4803 27.3865 32.0923 27.3865ZM35.3862 32.6254H28.7356C28.8611 30.5236 29.9904 28.7982 32.1236 28.7982C34.696 28.7982 35.3862 30.555 35.3862 32.6254ZM46.2718 30.1471L46.962 29.2374C47.0561 29.1119 47.0561 29.0178 46.9306 28.9237C45.7699 27.8885 44.2955 27.3865 42.5701 27.3865C42.0368 27.3865 41.4094 27.4179 40.7192 27.512C39.7467 27.6689 39.5585 28.0453 39.5585 28.9864V39.0564C39.5585 39.3074 39.6526 39.3701 39.8722 39.3701H40.8761C41.127 39.3701 41.1898 39.3388 41.1898 39.0564V29.0178C41.7231 28.8609 42.2564 28.8609 42.6642 28.8609C43.9818 28.8609 45.1111 29.3629 45.9267 30.1471C46.0522 30.2726 46.115 30.3354 46.2718 30.1471ZM57.7849 33.4411C57.7849 29.6138 55.9967 27.4179 52.7028 27.4179C49.6912 27.4179 47.558 29.5825 47.558 33.5352C47.558 37.5193 49.3461 39.6211 52.6401 39.6211C55.934 39.5897 57.7849 37.4251 57.7849 33.4411ZM56.1536 33.5038C56.1536 35.8252 55.3379 38.2408 52.6714 38.2408C50.0363 38.2408 49.2207 36.2331 49.2207 33.4411C49.2207 30.9314 50.2559 28.7668 52.7342 28.7668C55.4321 28.7982 56.1536 31.0883 56.1536 33.5038ZM62.6473 24.4377C62.6473 23.8103 62.1767 23.3083 61.518 23.3083C60.9219 23.3083 60.3886 23.8103 60.3886 24.4377C60.3886 25.0651 60.8905 25.5357 61.518 25.5357C62.1767 25.5357 62.6473 25.0651 62.6473 24.4377ZM62.3336 39.0564V27.9512C62.3336 27.7002 62.2709 27.6375 62.0199 27.6375H61.016C60.7964 27.6375 60.7023 27.6689 60.7023 27.9512V39.0564C60.7023 39.3074 60.8278 39.3701 61.016 39.3701H62.0199C62.2709 39.3701 62.3336 39.3074 62.3336 39.0564ZM69.6116 38.9623L69.4861 38.2408C69.4547 38.0839 69.3606 38.0212 69.2038 38.0526C68.9528 38.0839 68.7018 38.1153 68.3881 38.1153C67.7607 38.1153 67.5725 37.8016 67.5725 36.986V23.3711C67.5725 23.1201 67.5098 23.0574 67.2588 23.0574H66.2236C65.9726 23.0574 65.9099 23.0887 65.9099 23.3711V37.4565C65.9099 38.8682 66.3804 39.5583 67.8235 39.5583C68.2627 39.5583 68.8901 39.527 69.392 39.3074C69.6116 39.2446 69.643 39.2133 69.6116 38.9623Z" fill="#535456"/>
<path fill-rule="evenodd" clip-rule="evenodd" d="M14.3051 43.3857C13.8659 43.3857 13.4267 43.5425 13.113 43.7621C12.8307 43.5112 12.5483 43.3857 12.015 43.3857C11.8268 43.3857 11.5131 43.4171 11.2935 43.4484C11.0425 43.4798 10.9484 43.6367 10.9484 43.8562V46.6796C10.9484 46.7423 10.9798 46.7737 11.0425 46.7737H11.3249C11.3876 46.7737 11.419 46.7737 11.419 46.6796V43.8562C11.7327 43.7935 11.9209 43.7935 12.0464 43.7935C12.862 43.7935 13.0816 44.2013 13.0816 44.9542V46.6796C13.0816 46.7423 13.113 46.7737 13.1757 46.7737H13.4581C13.5208 46.7737 13.5522 46.7737 13.5522 46.6796V44.9542C13.5522 44.5778 13.5208 44.2641 13.3953 44.0131C13.6463 43.8562 14.0541 43.7621 14.3051 43.7621C15.0266 43.7621 15.2776 44.1386 15.2776 44.9542V46.6482C15.2776 46.711 15.3089 46.7423 15.3717 46.7423H15.654C15.7168 46.7423 15.7481 46.7423 15.7481 46.6482V44.8601C15.6227 44.0131 15.3089 43.3857 14.3051 43.3857ZM18.9793 46.4914V44.4837C18.9793 43.7935 18.6029 43.4171 17.7872 43.4171C17.4108 43.4171 17.003 43.4798 16.6893 43.6053C16.6579 43.6367 16.6265 43.668 16.6265 43.6994L16.6893 43.9504C16.7206 44.0131 16.752 44.0131 16.8147 43.9817C17.0657 43.8876 17.4108 43.8249 17.6931 43.8249C18.3519 43.8249 18.5088 44.1386 18.5088 44.5464V44.7346H17.6617C16.7206 44.7346 16.3128 45.2052 16.3128 45.864C16.3128 46.3973 16.5951 46.8992 17.6617 46.8992C18.0382 46.8992 18.5088 46.8365 18.8852 46.6796C18.9479 46.6169 18.9793 46.5541 18.9793 46.4914ZM18.5088 45.1111V46.3345C18.195 46.4286 17.8186 46.46 17.6617 46.46C17.2226 46.46 16.7834 46.3032 16.7834 45.8012C16.7834 45.1424 17.3794 45.0797 17.6931 45.0797L18.5088 45.1111ZM21.7713 44.17L21.9595 43.919C21.9909 43.8876 21.9909 43.8562 21.9595 43.8249C21.6144 43.5112 21.2066 43.4171 20.7361 43.4171C20.5792 43.4171 20.391 43.4171 20.2341 43.4484C19.9518 43.4798 19.8891 43.6053 19.8891 43.8562V46.711C19.8891 46.7737 19.9204 46.8051 19.9832 46.8051H20.2655C20.3282 46.8051 20.3596 46.8051 20.3596 46.711V43.8876C20.5478 43.8562 20.6733 43.8562 20.7674 43.8562C21.1439 43.8562 21.4576 44.0131 21.7086 44.2327C21.7086 44.2013 21.7399 44.2013 21.7713 44.17ZM22.8379 45.1738L22.8065 42.2563C22.8065 42.1936 22.8065 42.1622 22.7124 42.1622H22.3987C22.336 42.1622 22.3046 42.1622 22.3046 42.2563V46.711C22.3046 46.7737 22.336 46.8051 22.3987 46.8051H22.7124C22.7752 46.8051 22.8065 46.8051 22.8065 46.711V45.8326L23.5908 44.9228L24.4064 46.711C24.4378 46.7423 24.4692 46.7737 24.5319 46.7737H24.877C24.9397 46.7737 24.9397 46.7423 24.9084 46.711L23.9045 44.5464L24.7515 43.5112C24.7829 43.4798 24.7829 43.4484 24.7201 43.4484H24.3437C24.281 43.4484 24.2496 43.4798 24.2496 43.5112L22.8379 45.1738ZM26.7279 43.3857C25.8809 43.3857 25.2848 43.9817 25.2848 45.1424C25.2848 46.3345 25.8495 46.8678 26.7592 46.8678C27.1043 46.8678 27.418 46.8051 27.7317 46.6169C27.7631 46.5855 27.7945 46.5541 27.7631 46.4914L27.6376 46.2718C27.6062 46.2404 27.5749 46.209 27.5121 46.2404C27.3239 46.3345 27.0416 46.4286 26.7592 46.4286C26.1946 46.4286 25.6926 46.1149 25.6926 45.2366H27.6062C27.8572 45.2366 28.0141 45.1424 28.0141 44.8287C28.1082 44.0131 27.7004 43.3857 26.7279 43.3857ZM27.669 44.8601H25.7554C25.7867 44.2641 26.1318 43.7621 26.7279 43.7621C27.4494 43.7935 27.669 44.2954 27.669 44.8601ZM28.5787 43.8562H29.0493V46.0208C29.0493 46.5855 29.2689 46.8678 29.9277 46.8678C30.0532 46.8678 30.3355 46.8678 30.5551 46.7737C30.6178 46.7424 30.6178 46.711 30.5865 46.6796L30.5237 46.4286C30.5237 46.3973 30.5237 46.3659 30.4296 46.3973C30.2727 46.4286 30.0532 46.46 29.959 46.46C29.5826 46.46 29.5199 46.3032 29.5199 45.9895V43.8562H30.2727C30.3355 43.8562 30.3669 43.8249 30.3669 43.7621V43.5425C30.3669 43.4798 30.3669 43.4484 30.2727 43.4484H29.5512V42.6955C29.5512 42.6328 29.5199 42.6014 29.4571 42.6328L29.2689 42.6955C29.2061 42.7269 29.1748 42.7269 29.1748 42.821L29.0807 43.4171L28.5787 43.5112C28.516 43.5425 28.4846 43.5425 28.4846 43.6053V43.7621C28.516 43.8249 28.516 43.8562 28.5787 43.8562ZM31.7785 42.5387C31.7785 42.3505 31.6217 42.1936 31.4648 42.1936C31.2766 42.1936 31.1511 42.3505 31.1511 42.5387C31.1511 42.7269 31.308 42.8524 31.4648 42.8524C31.6217 42.8524 31.7785 42.7269 31.7785 42.5387ZM31.6844 46.711V43.5425C31.6844 43.4798 31.6531 43.4484 31.5903 43.4484H31.308C31.2452 43.4484 31.2139 43.4484 31.2139 43.5425V46.711C31.2139 46.7737 31.2452 46.8051 31.308 46.8051H31.5903C31.6531 46.7737 31.6844 46.7737 31.6844 46.711ZM35.3234 46.711V44.9856C35.3234 43.8562 34.9156 43.3857 33.8176 43.3857C33.598 43.3857 33.1902 43.4171 33.002 43.4484C32.751 43.4798 32.6569 43.6367 32.6569 43.8562V46.6796C32.6569 46.7423 32.6883 46.7737 32.751 46.7737H33.0334C33.0961 46.7737 33.1275 46.7737 33.1275 46.6796V43.8562C33.4412 43.7935 33.6921 43.7935 33.7863 43.7935C34.6646 43.7935 34.8842 44.17 34.8842 44.9856V46.6796C34.8842 46.7423 34.9156 46.7737 34.9783 46.7737H35.2921C35.2921 46.7737 35.3234 46.7737 35.3234 46.711ZM38.335 43.919V46.3032C37.9899 46.4286 37.6449 46.46 37.4566 46.46C36.8292 46.46 36.4528 46.0208 36.4528 45.1424C36.4528 44.2013 36.8606 43.7935 37.5194 43.7935C37.739 43.7935 38.0527 43.8249 38.335 43.919ZM37.5194 43.3857C36.4528 43.3857 36.0136 44.1386 36.0136 45.1424C36.0136 46.1149 36.4214 46.8365 37.4253 46.8365C37.6762 46.8365 38.0527 46.7737 38.335 46.6796V46.711C38.335 47.4325 37.9272 47.6207 37.1743 47.7462C37.1429 47.7462 37.1116 47.7776 37.1116 47.8089L37.1429 48.1227C37.1429 48.154 37.1743 48.1854 37.237 48.1854C38.2409 48.0599 38.8056 47.6835 38.8056 46.5541V43.7308C38.8056 43.6994 38.7742 43.6367 38.7428 43.6053C38.335 43.4484 37.8958 43.3857 37.5194 43.3857ZM43.4484 45.7385C43.1661 46.1777 42.7896 46.46 42.4132 46.46C42.0367 46.46 41.6917 46.2718 41.6917 45.7699C41.6917 45.2679 42.0681 44.8915 42.5387 44.6405C42.8838 45.017 43.1661 45.362 43.4484 45.7385ZM44.4523 46.7737H44.7974C44.8601 46.7737 44.8601 46.711 44.8287 46.6796C44.6719 46.5228 44.5464 46.3659 44.4523 46.2718C44.2327 46.0522 44.0445 45.8012 44.0131 45.7385C44.2641 45.2679 44.4523 44.766 45.1424 44.6405C45.1738 44.6405 45.2366 44.6091 45.2052 44.5464L45.1738 44.2954C45.1738 44.2641 45.1424 44.2327 45.0797 44.2327C44.9856 44.2327 44.8915 44.2641 44.7974 44.2954C44.2954 44.4837 44.0131 44.9229 43.7308 45.362C43.4484 45.017 43.2916 44.8287 42.9779 44.3895C43.4484 44.0758 43.8876 43.7308 43.8876 43.1661C43.8876 42.6328 43.4798 42.2563 42.8838 42.2563C42.3504 42.2563 41.8485 42.6328 41.8485 43.2288C41.8485 43.5739 42.0681 43.919 42.3505 44.2954C41.7858 44.6719 41.3152 45.2052 41.3152 45.8012C41.3152 46.46 41.6917 46.8678 42.4446 46.8678C43.0092 46.8678 43.4171 46.5541 43.7621 46.0836L44.2954 46.711C44.3268 46.7737 44.3582 46.7737 44.4523 46.7737ZM43.3857 43.2288C43.3857 43.6367 43.0092 43.919 42.6955 44.1072C42.4759 43.8563 42.2877 43.5425 42.2877 43.2288C42.2877 42.8838 42.5073 42.6955 42.8524 42.6955C43.2288 42.6642 43.3857 42.9779 43.3857 43.2288ZM49.6912 45.9267C49.6912 45.362 49.2206 45.1111 48.656 44.8915C48.0913 44.6719 47.8717 44.5464 47.8717 44.2641C47.8717 43.9817 48.1227 43.7935 48.4991 43.7935C48.7814 43.7935 49.001 43.8249 49.3461 43.9817C49.3775 44.0131 49.4088 44.0131 49.4402 43.9504L49.5343 43.6994C49.5657 43.6367 49.5343 43.6053 49.503 43.5739C49.1579 43.4484 48.8755 43.3857 48.5305 43.3857C47.8089 43.3857 47.4011 43.7621 47.4011 44.2954C47.4011 44.766 47.6835 44.9856 48.405 45.2679C48.9069 45.4562 49.2206 45.6444 49.2206 45.9581C49.2206 46.3345 48.9069 46.4914 48.4991 46.4914C48.1854 46.4914 47.8403 46.4286 47.4639 46.2404C47.4011 46.209 47.3698 46.2404 47.3384 46.2718L47.2443 46.4914C47.2129 46.5541 47.2443 46.5855 47.2756 46.6169C47.6207 46.8051 48.0913 46.8678 48.4677 46.8678C49.1893 46.8678 49.6912 46.5228 49.6912 45.9267ZM51.6362 43.3857C50.7892 43.3857 50.1931 43.9817 50.1931 45.1424C50.1931 46.3345 50.7578 46.8678 51.6675 46.8678C52.0126 46.8678 52.3263 46.8051 52.64 46.6169C52.6714 46.5855 52.7028 46.5541 52.6714 46.4914L52.5459 46.2718C52.5145 46.2404 52.4832 46.209 52.4204 46.2404C52.2322 46.3345 51.9499 46.4286 51.6675 46.4286C51.1029 46.4286 50.6009 46.1149 50.6009 45.2366H52.5145C52.7655 45.2366 52.9224 45.1424 52.9224 44.8287C53.0165 44.0131 52.5773 43.3857 51.6362 43.3857ZM52.5773 44.8601H50.695C50.7264 44.2641 51.0715 43.7621 51.6675 43.7621C52.3577 43.7935 52.5773 44.2954 52.5773 44.8601ZM55.6516 44.17L55.8398 43.919C55.8712 43.8876 55.8712 43.8562 55.8398 43.8249C55.4948 43.5112 55.0869 43.4171 54.6164 43.4171C54.4595 43.4171 54.2713 43.4171 54.1144 43.4484C53.8321 43.4798 53.7694 43.6053 53.7694 43.8562V46.711C53.7694 46.7737 53.8007 46.8051 53.8635 46.8051H54.1458C54.2086 46.8051 54.2399 46.8051 54.2399 46.711V43.8876C54.4282 43.8562 54.5536 43.8562 54.6477 43.8562C55.0242 43.8562 55.3379 44.0131 55.5889 44.2327C55.5889 44.2013 55.5889 44.2013 55.6516 44.17ZM57.7221 46.5541C57.6593 46.7423 57.628 46.8051 57.4084 46.7737H57.1888C57.0319 46.7737 56.9692 46.711 56.9064 46.5228L55.8398 43.4798C55.8085 43.4484 55.8398 43.4171 55.8712 43.4171H56.2477C56.3104 43.4171 56.3104 43.4484 56.3418 43.4798L57.0005 45.3934L57.3143 46.3659H57.3456L57.6593 45.4248L58.2867 43.5425C58.3181 43.5112 58.3495 43.4798 58.3809 43.4798H58.7573C58.7887 43.4798 58.7887 43.5112 58.7887 43.5425L57.7221 46.5541ZM59.9494 42.5387C59.9494 42.3505 59.7925 42.1936 59.6357 42.1936C59.4475 42.1936 59.322 42.3505 59.322 42.5387C59.322 42.7269 59.4788 42.8524 59.6357 42.8524C59.8239 42.8524 59.9494 42.7269 59.9494 42.5387ZM59.8866 46.711V43.5425C59.8866 43.4798 59.8553 43.4484 59.7925 43.4484H59.5102C59.4475 43.4484 59.4161 43.4484 59.4161 43.5425V46.711C59.4161 46.7737 59.4475 46.8051 59.5102 46.8051H59.7925C59.8553 46.7737 59.8866 46.7737 59.8866 46.711ZM62.2081 46.46C61.4238 46.46 61.1728 45.8953 61.1728 45.1738C61.1728 44.4837 61.4865 43.8249 62.2081 43.8249C62.4904 43.8249 62.71 43.919 62.9296 44.0131C62.9923 44.0445 63.0237 44.0131 63.0551 43.9817L63.1806 43.7621C63.2119 43.7308 63.2119 43.668 63.1492 43.6367C62.8355 43.4798 62.5532 43.4171 62.2081 43.4171C61.2983 43.4171 60.7337 44.0758 60.7337 45.1738C60.7337 46.3032 61.2042 46.8678 62.1767 46.8678C62.5532 46.8678 62.8982 46.8051 63.2433 46.6169C63.2747 46.5855 63.306 46.5541 63.2747 46.4914L63.1806 46.2718C63.1492 46.2404 63.1492 46.209 63.0551 46.2404C62.8041 46.3659 62.4904 46.46 62.2081 46.46ZM65.1255 43.3857C64.2785 43.3857 63.6825 43.9817 63.6825 45.1424C63.6825 46.3345 64.2472 46.8678 65.1569 46.8678C65.502 46.8678 65.8157 46.8051 66.1294 46.6169C66.1608 46.5855 66.1922 46.5541 66.1608 46.4914L66.0353 46.2718C66.0039 46.2404 65.9726 46.209 65.9098 46.2404C65.7216 46.3345 65.4392 46.4286 65.1569 46.4286C64.5922 46.4286 64.0903 46.1149 64.0903 45.2366H66.0039C66.2549 45.2366 66.4117 45.1424 66.4117 44.8287C66.5059 44.0131 66.0667 43.3857 65.1255 43.3857ZM66.0353 44.8601H64.1531C64.1844 44.2641 64.5295 43.7621 65.1255 43.7621C65.8784 43.7935 66.0353 44.2954 66.0353 44.8601ZM69.392 45.9267C69.392 45.362 68.9214 45.1111 68.3567 44.8915C67.7921 44.6719 67.5725 44.5464 67.5725 44.2641C67.5725 43.9817 67.8234 43.7935 68.1999 43.7935C68.4822 43.7935 68.7018 43.8249 69.0469 43.9817C69.0783 44.0131 69.1096 44.0131 69.141 43.9504L69.2351 43.6994C69.2665 43.6367 69.2351 43.6053 69.2037 43.5739C68.8587 43.4484 68.5763 43.3857 68.2312 43.3857C67.5097 43.3857 67.1019 43.7621 67.1019 44.2954C67.1019 44.766 67.3842 44.9856 68.1058 45.2679C68.6077 45.4562 68.9214 45.6444 68.9214 45.9581C68.9214 46.3345 68.6077 46.4914 68.1999 46.4914C67.8862 46.4914 67.5411 46.4286 67.1646 46.2404C67.1019 46.209 67.0705 46.2404 67.0392 46.2718L66.945 46.4914C66.9137 46.5541 66.945 46.5855 66.9764 46.6169C67.3215 46.8051 67.792 46.8678 68.1685 46.8678C68.9214 46.8678 69.392 46.5228 69.392 45.9267Z" fill="#535456"/>
<path fill-rule="evenodd" clip-rule="evenodd" d="M136.964 42.5073V39.9349H139.944V42.5073C139.944 42.6014 139.976 42.6014 140.07 42.6014H140.446C140.541 42.6014 140.572 42.5701 140.572 42.5073V37.1743C140.572 37.0802 140.541 37.0802 140.446 37.0802H140.07C139.976 37.0802 139.944 37.1116 139.944 37.1743V39.433H136.964V37.1743C136.964 37.0802 136.933 37.0802 136.839 37.0802H136.431C136.368 37.0802 136.305 37.1116 136.305 37.1743V42.5073C136.305 42.6014 136.337 42.6014 136.431 42.6014H136.839C136.933 42.6014 136.964 42.5701 136.964 42.5073ZM145.34 42.4446V42.1622C145.34 42.0681 145.309 42.0054 145.215 42.0054H143.019C142.517 42.0054 142.329 41.7544 142.329 41.3466V39.8722H144.901C144.995 39.8722 145.027 39.8094 145.027 39.7467V39.5271C145.027 39.433 144.995 39.4016 144.901 39.4016H142.329V38.2723C142.329 37.8331 142.548 37.5821 143.019 37.5821H145.152C145.246 37.5821 145.277 37.5508 145.277 37.4566V37.1743C145.277 37.0802 145.246 37.0175 145.152 37.0175H143.019C142.078 37.0175 141.733 37.6135 141.733 38.335V41.2839C141.733 42.0054 142.046 42.6014 143.019 42.6014H145.215C145.34 42.6014 145.34 42.5387 145.34 42.4446ZM148.854 39.6212V39.5898C149.23 39.4016 149.418 39.0565 149.544 38.586L149.92 37.1743C149.952 37.1116 149.952 37.0488 149.826 37.0488H149.45C149.387 37.0488 149.356 37.0488 149.324 37.1429L148.948 38.5546C148.76 39.2448 148.352 39.4016 147.944 39.4016H146.815V37.1743C146.815 37.0802 146.783 37.0802 146.721 37.0802H146.344C146.281 37.0802 146.219 37.1116 146.219 37.1743V42.5073C146.219 42.6014 146.25 42.6014 146.344 42.6014H146.721C146.815 42.6014 146.846 42.5701 146.846 42.5073V39.9349H148.069C148.603 39.9349 148.916 40.0918 149.105 40.7506L149.575 42.5387C149.607 42.6328 149.669 42.6328 149.732 42.6328H150.109C150.203 42.6328 150.234 42.5701 150.203 42.5073L149.701 40.6565C149.575 40.1232 149.387 39.7781 148.854 39.6212ZM152.838 42.5073V37.6135H154.469C154.563 37.6135 154.563 37.5821 154.563 37.5194V37.2057C154.563 37.1116 154.532 37.0802 154.469 37.0802H150.61C150.516 37.0802 150.516 37.1116 150.516 37.2057V37.5194C150.516 37.6135 150.516 37.6135 150.61 37.6135H152.21V42.5073C152.21 42.6014 152.242 42.6014 152.336 42.6014H152.744C152.806 42.6014 152.838 42.5701 152.838 42.5073ZM158.516 42.6014C158.422 42.6014 158.39 42.6014 158.359 42.5073L157.951 41.2839H155.598C155.536 41.4407 155.253 42.3505 155.191 42.5073C155.159 42.5701 155.128 42.6014 155.034 42.6014H154.595C154.5 42.6014 154.469 42.5387 154.5 42.4759L156.32 37.2998C156.414 37.0802 156.445 37.0175 156.665 37.0175H156.885C157.136 37.0175 157.167 37.0802 157.261 37.2998L159.081 42.4759C159.112 42.5387 159.081 42.6014 158.986 42.6014H158.516ZM157.167 38.8997L156.791 37.7076H156.759L156.383 38.8683L155.787 40.7192H157.794L157.167 38.8997ZM159.739 37.3939V42.5073C159.739 42.6014 159.771 42.6014 159.833 42.6014H160.21C160.304 42.6014 160.335 42.6014 160.335 42.5073V40.3114H161.873C163.284 40.3114 163.598 39.2448 163.598 38.6487C163.598 37.7076 162.939 37.0175 161.935 37.0175H160.116C159.833 37.0175 159.739 37.1429 159.739 37.3939ZM160.367 39.7781V37.5821H161.81C162.72 37.5821 162.971 38.2095 162.971 38.6801C162.971 39.3703 162.531 39.7781 161.81 39.7781H160.367ZM137.498 43.8563C138.156 43.8563 138.752 44.0759 138.752 44.7346C138.752 45.3307 138.219 45.7071 137.498 45.7071H137.09C136.933 45.7071 136.87 45.7699 136.87 45.9267V46.0836C136.87 46.2091 136.964 46.3032 137.121 46.3032H137.56C138.47 46.3032 138.972 46.7424 138.972 47.3384C138.972 48.0286 138.501 48.5305 137.341 48.5305C136.87 48.5305 136.305 48.405 135.929 48.2168C135.835 48.1854 135.804 48.2168 135.772 48.2795L135.647 48.5305C135.584 48.6246 135.615 48.656 135.678 48.7187C136.211 49.0324 136.964 49.0952 137.466 49.0952C138.878 49.0952 139.662 48.3736 139.662 47.4011C139.662 46.7424 139.192 46.1777 138.47 46.0522V46.0208C139.066 45.8012 139.474 45.3307 139.474 44.7346C139.474 43.8249 138.721 43.3543 137.623 43.3543C137.09 43.3543 136.494 43.4484 135.96 43.7308C135.898 43.7621 135.866 43.7935 135.929 43.8876L136.055 44.17C136.086 44.2327 136.117 44.2641 136.211 44.2327C136.556 43.9504 137.027 43.8563 137.498 43.8563ZM144.18 48.7814V48.4991C144.18 48.405 144.148 48.3423 144.054 48.3423H141.858C141.356 48.3423 141.168 48.0913 141.168 47.6835V46.2091H143.74C143.834 46.2091 143.866 46.1463 143.866 46.0836V45.8326C143.866 45.7385 143.834 45.7071 143.74 45.7071H141.168V44.5778C141.168 44.1386 141.388 43.8876 141.858 43.8876H143.991C144.085 43.8876 144.117 43.8563 144.117 43.7621V43.4798C144.117 43.3857 144.085 43.323 143.991 43.323H141.858C140.917 43.323 140.572 43.919 140.572 44.6405V47.5894C140.572 48.3109 140.886 48.9069 141.858 48.9069H144.054C144.148 48.9383 144.18 48.9069 144.18 48.7814ZM147.63 47.7148H147.599C147.505 47.5266 147.222 46.7424 147.128 46.5541C146.971 46.2091 145.999 43.8249 145.936 43.668C145.842 43.4171 145.779 43.3857 145.56 43.3857H145.372C145.089 43.3857 145.027 43.5112 145.027 43.7308V48.8442C145.027 48.9383 145.058 48.9383 145.152 48.9383H145.528C145.623 48.9383 145.654 48.9069 145.654 48.8442V44.515H145.717L146.093 45.3934C146.344 45.9267 146.971 47.4639 147.191 48.0286C147.285 48.2481 147.348 48.3109 147.568 48.3109H147.787C148.007 48.3109 148.069 48.2481 148.132 48.0286C148.383 47.4953 148.979 45.9581 149.23 45.4248L149.638 44.4523H149.669V48.8442C149.669 48.9383 149.701 48.9383 149.795 48.9383H150.171C150.234 48.9383 150.297 48.9069 150.297 48.8442V43.7308C150.297 43.5112 150.234 43.3857 149.952 43.3857H149.763C149.575 43.3857 149.481 43.4171 149.387 43.668C149.199 44.1386 148.477 45.9267 148.195 46.5855C148.038 46.7424 147.724 47.5266 147.63 47.7148ZM152.21 43.8249L152.148 44.7974C151.991 47.2129 151.991 48.0599 150.956 48.4991C150.893 48.5305 150.861 48.5305 150.893 48.656L150.956 48.9383C150.987 49.0324 151.05 49.0638 151.112 49.0324C152.524 48.5932 152.555 47.3384 152.744 44.8915L152.806 43.919H154.94V48.8128C154.94 48.9069 154.971 48.9069 155.065 48.9069H155.473C155.567 48.9069 155.598 48.8756 155.598 48.8128V43.7935C155.598 43.5112 155.442 43.3543 155.191 43.3543H152.712C152.367 43.3857 152.21 43.5112 152.21 43.8249ZM160.304 44.2013H160.335V48.8442C160.335 48.9383 160.367 48.9383 160.461 48.9383H160.837C160.931 48.9383 160.963 48.9069 160.963 48.8442V43.7308C160.963 43.5112 160.9 43.3857 160.618 43.3857H160.43C160.21 43.3857 160.179 43.4484 160.053 43.668L157.983 47.0561L157.355 48.0913H157.324V43.4798C157.324 43.3857 157.292 43.3857 157.198 43.3857H156.822C156.759 43.3857 156.696 43.4171 156.696 43.4798V48.5932C156.696 48.8128 156.791 48.9383 157.041 48.9383H157.23C157.418 48.9383 157.481 48.8442 157.606 48.656L159.614 45.3621L160.304 44.2013Z" fill="#535456"/>
<path d="M130.91 31.1196V53.8947" stroke="#535456" stroke-width="0.77763" stroke-miterlimit="22.9256"/>
<path fill-rule="evenodd" clip-rule="evenodd" d="M89.783 38.8054C90.63 42.2875 91.8534 45.5187 93.4534 48.4989C97.4688 47.5892 101.108 46.0834 104.308 44.1384C101.359 38.1466 100.167 31.245 100.355 24.218C97.7825 30.1157 94.269 34.9468 89.783 38.8054Z" fill="#836886"/>
<path fill-rule="evenodd" clip-rule="evenodd" d="M117.577 29.206C116.354 26.7277 114.911 24.3122 113.436 22.0221L104.998 8.97192C104.496 11.6384 103.868 14.2108 103.147 16.6264C102.237 25.4101 103.712 34.3508 108.009 41.4719C111.962 38.2721 115.162 34.0998 117.577 29.206Z" fill="#D36601"/>
<path fill-rule="evenodd" clip-rule="evenodd" d="M119.428 52.4516C122.628 45.9893 121.687 39.0563 119.052 32.4999C116.762 37.2368 113.782 41.315 110.143 44.6403C112.558 47.8088 115.664 50.4753 119.428 52.4516Z" fill="#FAB600"/>
<path fill-rule="evenodd" clip-rule="evenodd" d="M107.57 62.9609C110.864 61.8315 113.876 60.012 116.228 57.2828L116.323 57.1887C112.119 54.6476 108.825 51.4165 106.378 47.6833C103.272 49.7852 99.8215 51.3851 95.963 52.4831C98.9118 56.624 102.802 60.1375 107.57 62.9609Z" fill="#005287"/>
<path fill-rule="evenodd" clip-rule="evenodd" d="M78.1445 45.8638C78.5523 49.6596 80.0267 53.4241 83.0383 57.0004C87.2106 61.9883 93.5161 64.2156 99.8216 64.2156C100.229 64.2156 100.7 64.2156 101.108 64.1843C93.9553 58.3807 89.3438 50.4439 87.3047 40.8445C84.6068 42.7581 81.5639 44.4521 78.1445 45.8638Z" fill="#5AC0CA"/>
<path fill-rule="evenodd" clip-rule="evenodd" d="M86.3636 21.5829L86.0499 22.0221C82.0972 28.108 78.5837 34.9782 78.0817 41.9111C81.2502 40.6562 84.1049 39.0877 86.6773 37.1427C85.9871 32.343 85.8616 27.1355 86.3636 21.5829Z" fill="#A2C62D"/>
<path fill-rule="evenodd" clip-rule="evenodd" d="M99.7274 0.909668L88.9673 17.5361C88.183 23.9357 88.2144 29.802 89.0614 35.1664C94.8963 29.8962 99.1313 22.4299 102.049 12.1404C102.268 11.2934 102.457 10.4777 102.708 9.63071C102.959 8.62685 103.178 7.62299 103.429 6.55639L99.7274 0.909668Z" fill="#535456"/>
<path fill-rule="evenodd" clip-rule="evenodd" d="M3.5764 39.0564V24.0612C3.5764 23.8103 3.51366 23.7475 3.26269 23.7475H2.16472C1.91375 23.7475 1.85101 23.7789 1.85101 24.0612V39.0878C1.85101 39.3388 1.91375 39.4015 2.16472 39.4015H3.29406C3.51366 39.3701 3.5764 39.3074 3.5764 39.0564ZM16.5325 39.0564V33.0332C16.5325 28.9864 14.9953 27.4179 11.1681 27.4179C10.4466 27.4179 8.97215 27.5434 8.25063 27.6375C7.43499 27.763 7.05854 28.2649 7.05854 29.1119V39.0878C7.05854 39.3388 7.18403 39.4015 7.37225 39.4015H8.37611C8.62708 39.4015 8.68982 39.3701 8.68982 39.0878V29.0805C9.75642 28.8609 10.6975 28.8609 11.074 28.8609C14.1169 28.8609 14.8698 30.2726 14.8698 33.096V39.0564C14.8698 39.3074 14.9953 39.3701 15.1835 39.3701H16.2188C16.4697 39.3701 16.5325 39.3074 16.5325 39.0564ZM18.6971 28.9551H20.3597V36.6095C20.3597 38.6172 21.144 39.5583 23.4027 39.5583C23.8105 39.5583 24.8457 39.527 25.6614 39.2446C25.8809 39.1505 25.8496 39.0564 25.8182 38.8996L25.63 38.0526C25.5986 37.8957 25.5986 37.8643 25.3163 37.8957C24.783 38.0212 23.9673 38.0839 23.5909 38.0839C22.3361 38.0839 21.9596 37.5506 21.9596 36.4213V28.9237H24.5947C24.8457 28.9237 24.8771 28.8296 24.8771 28.6414V27.8885C24.8771 27.7002 24.8457 27.5748 24.5947 27.5748H21.991V24.9082C21.991 24.6886 21.8655 24.5945 21.6773 24.6573L21.0812 24.8769C20.8303 24.971 20.7675 25.0024 20.7362 25.2533L20.4224 27.4179L18.6657 27.7316C18.4147 27.7943 18.3834 27.8571 18.3834 28.0767V28.61C18.4147 28.8296 18.4147 28.9551 18.6971 28.9551ZM32.0923 27.3865C29.1435 27.3865 27.0103 29.5511 27.0103 33.5352C27.0103 37.7388 28.9866 39.5583 32.2806 39.5583C33.4099 39.5583 34.6334 39.3701 35.7 38.7427C35.8568 38.68 35.9196 38.5231 35.8254 38.3663L35.449 37.582C35.3863 37.4251 35.2294 37.3938 35.0725 37.4879C34.4451 37.8643 33.4099 38.1153 32.4374 38.1153C30.3669 38.1153 28.7043 36.986 28.7043 33.8803H35.5117C36.3274 33.8803 37.0175 33.5665 37.0175 32.3431C36.9548 29.4884 35.4804 27.3865 32.0923 27.3865ZM35.3863 32.6254H28.7357C28.8612 30.5236 29.9905 28.7982 32.1237 28.7982C34.6961 28.7982 35.3863 30.555 35.3863 32.6254ZM46.2719 30.1471L46.962 29.2374C47.0561 29.1119 47.0561 29.0178 46.9307 28.9237C45.77 27.8885 44.2955 27.3865 42.5701 27.3865C42.0368 27.3865 41.4094 27.4179 40.7193 27.512C39.7468 27.6689 39.5586 28.0453 39.5586 28.9864V39.0564C39.5586 39.3074 39.6527 39.3701 39.8723 39.3701H40.8761C41.1271 39.3701 41.1898 39.3388 41.1898 39.0564V29.0178C41.7231 28.8609 42.2564 28.8609 42.6643 28.8609C43.9818 28.8609 45.1112 29.3629 45.9268 30.1471C46.0523 30.2726 46.115 30.3354 46.2719 30.1471ZM57.7849 33.4411C57.7849 29.6138 55.9968 27.4179 52.7029 27.4179C49.6913 27.4179 47.5581 29.5825 47.5581 33.5352C47.5581 37.5193 49.3462 39.6211 52.6401 39.6211C55.934 39.5897 57.7849 37.4251 57.7849 33.4411ZM56.1536 33.5038C56.1536 35.8252 55.338 38.2408 52.6715 38.2408C50.0364 38.2408 49.2207 36.2331 49.2207 33.4411C49.2207 30.9314 50.256 28.7668 52.7342 28.7668C55.4321 28.7982 56.1536 31.0883 56.1536 33.5038ZM62.6474 24.4377C62.6474 23.8103 62.1768 23.3083 61.518 23.3083C60.922 23.3083 60.3887 23.8103 60.3887 24.4377C60.3887 25.0651 60.8906 25.5357 61.518 25.5357C62.1768 25.5357 62.6474 25.0651 62.6474 24.4377ZM62.3337 39.0564V27.9512C62.3337 27.7002 62.2709 27.6375 62.02 27.6375H61.0161C60.7965 27.6375 60.7024 27.6689 60.7024 27.9512V39.0564C60.7024 39.3074 60.8279 39.3701 61.0161 39.3701H62.02C62.2709 39.3701 62.3337 39.3074 62.3337 39.0564ZM69.6117 38.9623L69.4862 38.2408C69.4548 38.0839 69.3607 38.0212 69.2038 38.0526C68.9529 38.0839 68.7019 38.1153 68.3882 38.1153C67.7608 38.1153 67.5726 37.8016 67.5726 36.986V23.3711C67.5726 23.1201 67.5098 23.0574 67.2589 23.0574H66.2236C65.9727 23.0574 65.9099 23.0887 65.9099 23.3711V37.4565C65.9099 38.8682 66.3805 39.5583 67.8235 39.5583C68.2627 39.5583 68.8901 39.527 69.3921 39.3074C69.6117 39.2446 69.643 39.2133 69.6117 38.9623Z" fill="#535456"/>
<path fill-rule="evenodd" clip-rule="evenodd" d="M14.3051 43.3857C13.8659 43.3857 13.4267 43.5425 13.113 43.7621C12.8307 43.5112 12.5483 43.3857 12.015 43.3857C11.8268 43.3857 11.5131 43.4171 11.2935 43.4484C11.0425 43.4798 10.9484 43.6367 10.9484 43.8562V46.6796C10.9484 46.7423 10.9798 46.7737 11.0425 46.7737H11.3249C11.3876 46.7737 11.419 46.7737 11.419 46.6796V43.8562C11.7327 43.7935 11.9209 43.7935 12.0464 43.7935C12.862 43.7935 13.0816 44.2013 13.0816 44.9542V46.6796C13.0816 46.7423 13.113 46.7737 13.1757 46.7737H13.4581C13.5208 46.7737 13.5522 46.7737 13.5522 46.6796V44.9542C13.5522 44.5778 13.5208 44.2641 13.3953 44.0131C13.6463 43.8562 14.0541 43.7621 14.3051 43.7621C15.0266 43.7621 15.2776 44.1386 15.2776 44.9542V46.6482C15.2776 46.711 15.3089 46.7423 15.3717 46.7423H15.654C15.7168 46.7423 15.7481 46.7423 15.7481 46.6482V44.8601C15.6227 44.0131 15.3089 43.3857 14.3051 43.3857ZM18.9793 46.4914V44.4837C18.9793 43.7935 18.6029 43.4171 17.7872 43.4171C17.4108 43.4171 17.003 43.4798 16.6893 43.6053C16.6579 43.6367 16.6265 43.668 16.6265 43.6994L16.6893 43.9504C16.7206 44.0131 16.752 44.0131 16.8147 43.9817C17.0657 43.8876 17.4108 43.8249 17.6931 43.8249C18.3519 43.8249 18.5088 44.1386 18.5088 44.5464V44.7346H17.6617C16.7206 44.7346 16.3128 45.2052 16.3128 45.864C16.3128 46.3973 16.5951 46.8992 17.6617 46.8992C18.0382 46.8992 18.5088 46.8365 18.8852 46.6796C18.9479 46.6169 18.9793 46.5541 18.9793 46.4914ZM18.5088 45.1111V46.3345C18.195 46.4286 17.8186 46.46 17.6617 46.46C17.2226 46.46 16.7834 46.3032 16.7834 45.8012C16.7834 45.1424 17.3794 45.0797 17.6931 45.0797L18.5088 45.1111ZM21.7713 44.17L21.9595 43.919C21.9909 43.8876 21.9909 43.8562 21.9595 43.8249C21.6144 43.5112 21.2066 43.4171 20.7361 43.4171C20.5792 43.4171 20.391 43.4171 20.2341 43.4484C19.9518 43.4798 19.8891 43.6053 19.8891 43.8562V46.711C19.8891 46.7737 19.9204 46.8051 19.9832 46.8051H20.2655C20.3282 46.8051 20.3596 46.8051 20.3596 46.711V43.8876C20.5478 43.8562 20.6733 43.8562 20.7674 43.8562C21.1439 43.8562 21.4576 44.0131 21.7086 44.2327C21.7086 44.2013 21.7399 44.2013 21.7713 44.17ZM22.8379 45.1738L22.8065 42.2563C22.8065 42.1936 22.8065 42.1622 22.7124 42.1622H22.3987C22.336 42.1622 22.3046 42.1622 22.3046 42.2563V46.711C22.3046 46.7737 22.336 46.8051 22.3987 46.8051H22.7124C22.7752 46.8051 22.8065 46.8051 22.8065 46.711V45.8326L23.5908 44.9228L24.4064 46.711C24.4378 46.7423 24.4692 46.7737 24.5319 46.7737H24.877C24.9397 46.7737 24.9397 46.7423 24.9084 46.711L23.9045 44.5464L24.7515 43.5112C24.7829 43.4798 24.7829 43.4484 24.7201 43.4484H24.3437C24.281 43.4484 24.2496 43.4798 24.2496 43.5112L22.8379 45.1738ZM26.7279 43.3857C25.8809 43.3857 25.2848 43.9817 25.2848 45.1424C25.2848 46.3345 25.8495 46.8678 26.7592 46.8678C27.1043 46.8678 27.418 46.8051 27.7317 46.6169C27.7631 46.5855 27.7945 46.5541 27.7631 46.4914L27.6376 46.2718C27.6062 46.2404 27.5749 46.209 27.5121 46.2404C27.3239 46.3345 27.0416 46.4286 26.7592 46.4286C26.1946 46.4286 25.6926 46.1149 25.6926 45.2366H27.6062C27.8572 45.2366 28.0141 45.1424 28.0141 44.8287C28.1082 44.0131 27.7004 43.3857 26.7279 43.3857ZM27.669 44.8601H25.7554C25.7867 44.2641 26.1318 43.7621 26.7279 43.7621C27.4494 43.7935 27.669 44.2954 27.669 44.8601ZM28.5787 43.8562H29.0493V46.0208C29.0493 46.5855 29.2689 46.8678 29.9277 46.8678C30.0532 46.8678 30.3355 46.8678 30.5551 46.7737C30.6178 46.7424 30.6178 46.711 30.5865 46.6796L30.5237 46.4286C30.5237 46.3973 30.5237 46.3659 30.4296 46.3973C30.2727 46.4286 30.0532 46.46 29.959 46.46C29.5826 46.46 29.5199 46.3032 29.5199 45.9895V43.8562H30.2727C30.3355 43.8562 30.3669 43.8249 30.3669 43.7621V43.5425C30.3669 43.4798 30.3669 43.4484 30.2727 43.4484H29.5512V42.6955C29.5512 42.6328 29.5199 42.6014 29.4571 42.6328L29.2689 42.6955C29.2061 42.7269 29.1748 42.7269 29.1748 42.821L29.0807 43.4171L28.5787 43.5112C28.516 43.5425 28.4846 43.5425 28.4846 43.6053V43.7621C28.516 43.8249 28.516 43.8562 28.5787 43.8562ZM31.7785 42.5387C31.7785 42.3505 31.6217 42.1936 31.4648 42.1936C31.2766 42.1936 31.1511 42.3505 31.1511 42.5387C31.1511 42.7269 31.308 42.8524 31.4648 42.8524C31.6217 42.8524 31.7785 42.7269 31.7785 42.5387ZM31.6844 46.711V43.5425C31.6844 43.4798 31.6531 43.4484 31.5903 43.4484H31.308C31.2452 43.4484 31.2139 43.4484 31.2139 43.5425V46.711C31.2139 46.7737 31.2452 46.8051 31.308 46.8051H31.5903C31.6531 46.7737 31.6844 46.7737 31.6844 46.711ZM35.3234 46.711V44.9856C35.3234 43.8562 34.9156 43.3857 33.8176 43.3857C33.598 43.3857 33.1902 43.4171 33.002 43.4484C32.751 43.4798 32.6569 43.6367 32.6569 43.8562V46.6796C32.6569 46.7423 32.6883 46.7737 32.751 46.7737H33.0334C33.0961 46.7737 33.1275 46.7737 33.1275 46.6796V43.8562C33.4412 43.7935 33.6921 43.7935 33.7863 43.7935C34.6646 43.7935 34.8842 44.17 34.8842 44.9856V46.6796C34.8842 46.7423 34.9156 46.7737 34.9783 46.7737H35.2921C35.2921 46.7737 35.3234 46.7737 35.3234 46.711ZM38.335 43.919V46.3032C37.9899 46.4286 37.6449 46.46 37.4566 46.46C36.8292 46.46 36.4528 46.0208 36.4528 45.1424C36.4528 44.2013 36.8606 43.7935 37.5194 43.7935C37.739 43.7935 38.0527 43.8249 38.335 43.919ZM37.5194 43.3857C36.4528 43.3857 36.0136 44.1386 36.0136 45.1424C36.0136 46.1149 36.4214 46.8365 37.4253 46.8365C37.6762 46.8365 38.0527 46.7737 38.335 46.6796V46.711C38.335 47.4325 37.9272 47.6207 37.1743 47.7462C37.1429 47.7462 37.1116 47.7776 37.1116 47.8089L37.1429 48.1227C37.1429 48.154 37.1743 48.1854 37.237 48.1854C38.2409 48.0599 38.8056 47.6835 38.8056 46.5541V43.7308C38.8056 43.6994 38.7742 43.6367 38.7428 43.6053C38.335 43.4484 37.8958 43.3857 37.5194 43.3857ZM43.4484 45.7385C43.1661 46.1777 42.7896 46.46 42.4132 46.46C42.0367 46.46 41.6917 46.2718 41.6917 45.7699C41.6917 45.2679 42.0681 44.8915 42.5387 44.6405C42.8838 45.017 43.1661 45.362 43.4484 45.7385ZM44.4523 46.7737H44.7974C44.8601 46.7737 44.8601 46.711 44.8287 46.6796C44.6719 46.5228 44.5464 46.3659 44.4523 46.2718C44.2327 46.0522 44.0445 45.8012 44.0131 45.7385C44.2641 45.2679 44.4523 44.766 45.1424 44.6405C45.1738 44.6405 45.2366 44.6091 45.2052 44.5464L45.1738 44.2954C45.1738 44.2641 45.1424 44.2327 45.0797 44.2327C44.9856 44.2327 44.8915 44.2641 44.7974 44.2954C44.2954 44.4837 44.0131 44.9229 43.7308 45.362C43.4484 45.017 43.2916 44.8287 42.9779 44.3895C43.4484 44.0758 43.8876 43.7308 43.8876 43.1661C43.8876 42.6328 43.4798 42.2563 42.8838 42.2563C42.3504 42.2563 41.8485 42.6328 41.8485 43.2288C41.8485 43.5739 42.0681 43.919 42.3505 44.2954C41.7858 44.6719 41.3152 45.2052 41.3152 45.8012C41.3152 46.46 41.6917 46.8678 42.4446 46.8678C43.0092 46.8678 43.4171 46.5541 43.7621 46.0836L44.2954 46.711C44.3268 46.7737 44.3582 46.7737 44.4523 46.7737ZM43.3857 43.2288C43.3857 43.6367 43.0092 43.919 42.6955 44.1072C42.4759 43.8563 42.2877 43.5425 42.2877 43.2288C42.2877 42.8838 42.5073 42.6955 42.8524 42.6955C43.2288 42.6642 43.3857 42.9779 43.3857 43.2288ZM49.6912 45.9267C49.6912 45.362 49.2206 45.1111 48.656 44.8915C48.0913 44.6719 47.8717 44.5464 47.8717 44.2641C47.8717 43.9817 48.1227 43.7935 48.4991 43.7935C48.7814 43.7935 49.001 43.8249 49.3461 43.9817C49.3775 44.0131 49.4088 44.0131 49.4402 43.9504L49.5343 43.6994C49.5657 43.6367 49.5343 43.6053 49.503 43.5739C49.1579 43.4484 48.8755 43.3857 48.5305 43.3857C47.8089 43.3857 47.4011 43.7621 47.4011 44.2954C47.4011 44.766 47.6835 44.9856 48.405 45.2679C48.9069 45.4562 49.2206 45.6444 49.2206 45.9581C49.2206 46.3345 48.9069 46.4914 48.4991 46.4914C48.1854 46.4914 47.8403 46.4286 47.4639 46.2404C47.4011 46.209 47.3698 46.2404 47.3384 46.2718L47.2443 46.4914C47.2129 46.5541 47.2443 46.5855 47.2756 46.6169C47.6207 46.8051 48.0913 46.8678 48.4677 46.8678C49.1893 46.8678 49.6912 46.5228 49.6912 45.9267ZM51.6362 43.3857C50.7892 43.3857 50.1931 43.9817 50.1931 45.1424C50.1931 46.3345 50.7578 46.8678 51.6675 46.8678C52.0126 46.8678 52.3263 46.8051 52.64 46.6169C52.6714 46.5855 52.7028 46.5541 52.6714 46.4914L52.5459 46.2718C52.5145 46.2404 52.4832 46.209 52.4204 46.2404C52.2322 46.3345 51.9499 46.4286 51.6675 46.4286C51.1029 46.4286 50.6009 46.1149 50.6009 45.2366H52.5145C52.7655 45.2366 52.9224 45.1424 52.9224 44.8287C53.0165 44.0131 52.5773 43.3857 51.6362 43.3857ZM52.5773 44.8601H50.695C50.7264 44.2641 51.0715 43.7621 51.6675 43.7621C52.3577 43.7935 52.5773 44.2954 52.5773 44.8601ZM55.6516 44.17L55.8398 43.919C55.8712 43.8876 55.8712 43.8562 55.8398 43.8249C55.4948 43.5112 55.0869 43.4171 54.6164 43.4171C54.4595 43.4171 54.2713 43.4171 54.1144 43.4484C53.8321 43.4798 53.7694 43.6053 53.7694 43.8562V46.711C53.7694 46.7737 53.8007 46.8051 53.8635 46.8051H54.1458C54.2086 46.8051 54.2399 46.8051 54.2399 46.711V43.8876C54.4282 43.8562 54.5536 43.8562 54.6477 43.8562C55.0242 43.8562 55.3379 44.0131 55.5889 44.2327C55.5889 44.2013 55.5889 44.2013 55.6516 44.17ZM57.7221 46.5541C57.6593 46.7423 57.628 46.8051 57.4084 46.7737H57.1888C57.0319 46.7737 56.9692 46.711 56.9064 46.5228L55.8398 43.4798C55.8085 43.4484 55.8398 43.4171 55.8712 43.4171H56.2477C56.3104 43.4171 56.3104 43.4484 56.3418 43.4798L57.0005 45.3934L57.3143 46.3659H57.3456L57.6593 45.4248L58.2867 43.5425C58.3181 43.5112 58.3495 43.4798 58.3809 43.4798H58.7573C58.7887 43.4798 58.7887 43.5112 58.7887 43.5425L57.7221 46.5541ZM59.9494 42.5387C59.9494 42.3505 59.7925 42.1936 59.6357 42.1936C59.4475 42.1936 59.322 42.3505 59.322 42.5387C59.322 42.7269 59.4788 42.8524 59.6357 42.8524C59.8239 42.8524 59.9494 42.7269 59.9494 42.5387ZM59.8866 46.711V43.5425C59.8866 43.4798 59.8553 43.4484 59.7925 43.4484H59.5102C59.4475 43.4484 59.4161 43.4484 59.4161 43.5425V46.711C59.4161 46.7737 59.4475 46.8051 59.5102 46.8051H59.7925C59.8553 46.7737 59.8866 46.7737 59.8866 46.711ZM62.2081 46.46C61.4238 46.46 61.1728 45.8953 61.1728 45.1738C61.1728 44.4837 61.4865 43.8249 62.2081 43.8249C62.4904 43.8249 62.71 43.919 62.9296 44.0131C62.9923 44.0445 63.0237 44.0131 63.0551 43.9817L63.1806 43.7621C63.2119 43.7308 63.2119 43.668 63.1492 43.6367C62.8355 43.4798 62.5532 43.4171 62.2081 43.4171C61.2983 43.4171 60.7337 44.0758 60.7337 45.1738C60.7337 46.3032 61.2042 46.8678 62.1767 46.8678C62.5532 46.8678 62.8982 46.8051 63.2433 46.6169C63.2747 46.5855 63.306 46.5541 63.2747 46.4914L63.1806 46.2718C63.1492 46.2404 63.1492 46.209 63.0551 46.2404C62.8041 46.3659 62.4904 46.46 62.2081 46.46ZM65.1255 43.3857C64.2785 43.3857 63.6825 43.9817 63.6825 45.1424C63.6825 46.3345 64.2472 46.8678 65.1569 46.8678C65.502 46.8678 65.8157 46.8051 66.1294 46.6169C66.1608 46.5855 66.1922 46.5541 66.1608 46.4914L66.0353 46.2718C66.0039 46.2404 65.9726 46.209 65.9098 46.2404C65.7216 46.3345 65.4392 46.4286 65.1569 46.4286C64.5922 46.4286 64.0903 46.1149 64.0903 45.2366H66.0039C66.2549 45.2366 66.4117 45.1424 66.4117 44.8287C66.5059 44.0131 66.0667 43.3857 65.1255 43.3857ZM66.0353 44.8601H64.1531C64.1844 44.2641 64.5295 43.7621 65.1255 43.7621C65.8784 43.7935 66.0353 44.2954 66.0353 44.8601ZM69.392 45.9267C69.392 45.362 68.9214 45.1111 68.3567 44.8915C67.7921 44.6719 67.5725 44.5464 67.5725 44.2641C67.5725 43.9817 67.8234 43.7935 68.1999 43.7935C68.4822 43.7935 68.7018 43.8249 69.0469 43.9817C69.0783 44.0131 69.1096 44.0131 69.141 43.9504L69.2351 43.6994C69.2665 43.6367 69.2351 43.6053 69.2037 43.5739C68.8587 43.4484 68.5763 43.3857 68.2312 43.3857C67.5097 43.3857 67.1019 43.7621 67.1019 44.2954C67.1019 44.766 67.3842 44.9856 68.1058 45.2679C68.6077 45.4562 68.9214 45.6444 68.9214 45.9581C68.9214 46.3345 68.6077 46.4914 68.1999 46.4914C67.8862 46.4914 67.5411 46.4286 67.1646 46.2404C67.1019 46.209 67.0705 46.2404 67.0392 46.2718L66.945 46.4914C66.9137 46.5541 66.945 46.5855 66.9764 46.6169C67.3215 46.8051 67.792 46.8678 68.1685 46.8678C68.9214 46.8678 69.392 46.5228 69.392 45.9267Z" fill="#535456"/>
<path fill-rule="evenodd" clip-rule="evenodd" d="M41.9425 50.7891L41.9112 48.6559C41.9112 48.5931 41.8798 48.5931 41.8171 48.5931H41.5347C41.472 48.5931 41.4406 48.5931 41.4406 48.6559V52.5145C41.4406 52.5772 41.472 52.5772 41.5347 52.5772H41.8171C41.8798 52.5772 41.9112 52.5772 41.9112 52.5145V51.5106L42.8523 50.3813L44.013 52.5145C44.0757 52.6086 44.1071 52.6086 44.2012 52.6086H44.5149C44.5777 52.6086 44.5777 52.5772 44.5777 52.5145L43.1974 50.0048L44.2953 48.6872C44.3267 48.6559 44.3267 48.6245 44.264 48.6245H43.8875C43.8248 48.6245 43.762 48.6559 43.7307 48.6872L42.57 50.1303L41.9425 50.7891ZM47.2442 52.2949V50.444C47.2442 49.8166 46.8677 49.4715 46.1462 49.4715C45.8325 49.4715 45.4561 49.5342 45.1737 49.6284C45.1423 49.6597 45.111 49.6911 45.111 49.7225L45.1737 49.9421C45.2051 50.0048 45.2365 50.0048 45.2678 49.9734C45.4874 49.9107 45.8011 49.848 46.0835 49.848C46.6795 49.848 46.805 50.1303 46.805 50.5067V50.6636H46.0521C45.2051 50.6636 44.8286 51.1028 44.8286 51.6988C44.8286 52.1694 45.0796 52.6399 46.0207 52.6399C46.3972 52.6399 46.7736 52.5772 47.1501 52.4517C47.2128 52.389 47.2442 52.3576 47.2442 52.2949ZM46.8364 51.0087V52.138C46.554 52.2321 46.209 52.2635 46.0835 52.2635C45.6756 52.2635 45.2992 52.138 45.2992 51.6674C45.2992 51.0714 45.8325 51.04 46.1148 51.04L46.8364 51.0087ZM49.9107 49.5342H47.9971C47.9343 49.5342 47.9343 49.5656 47.9343 49.597V49.8166C47.9343 49.8793 47.9343 49.8793 47.9971 49.8793H49.6911V49.9107L47.8716 52.0439C47.8089 52.138 47.7775 52.2008 47.7775 52.2949V52.3576C47.7775 52.4517 47.8402 52.5458 47.9657 52.5458H50.0675C50.1303 52.5458 50.1617 52.5145 50.1617 52.4831V52.2635C50.1617 52.2321 50.1617 52.2007 50.0675 52.2007H48.2167L50.0675 50.0362C50.1303 49.9734 50.1617 49.8793 50.1617 49.8166V49.7538C50.0989 49.597 50.0362 49.5342 49.9107 49.5342ZM52.8595 52.2949V50.444C52.8595 49.8166 52.4831 49.4715 51.7616 49.4715C51.4479 49.4715 51.0714 49.5342 50.7891 49.6284C50.7577 49.6597 50.7263 49.6911 50.7263 49.7225L50.7891 49.9421C50.8204 50.0048 50.8518 50.0048 50.8832 49.9734C51.1028 49.9107 51.4165 49.848 51.6988 49.848C52.2949 49.848 52.4203 50.1303 52.4203 50.5067V50.6636H51.6674C50.8204 50.6636 50.444 51.1028 50.444 51.6988C50.444 52.1694 50.695 52.6399 51.6361 52.6399C52.0125 52.6399 52.389 52.5772 52.7654 52.4517C52.8282 52.389 52.8595 52.3576 52.8595 52.2949ZM52.4203 51.0087V52.138C52.138 52.2321 51.7929 52.2635 51.6674 52.2635C51.2596 52.2635 50.8832 52.138 50.8832 51.6674C50.8832 51.0714 51.4165 51.04 51.6988 51.04L52.4203 51.0087ZM54.0202 51.0714L53.9889 48.4049C53.9889 48.3422 53.9889 48.3422 53.9261 48.3422H53.6438C53.5811 48.3422 53.5497 48.3422 53.5497 48.4049V52.4517C53.5497 52.5145 53.5811 52.5145 53.6438 52.5145H53.9261C53.9889 52.5145 53.9889 52.5145 53.9889 52.4517V51.6674L54.679 50.8518L55.4006 52.4831C55.4319 52.5145 55.4633 52.5458 55.4947 52.5458H55.8084C55.8711 52.5458 55.8711 52.5145 55.8397 52.4831L54.93 50.5381L55.7143 49.597C55.7456 49.5656 55.7456 49.5342 55.6829 49.5342H55.3064C55.2437 49.5342 55.2437 49.5656 55.2123 49.597L54.0202 51.0714ZM58.7886 52.4517V50.8204C58.7886 50.0048 58.4435 49.5029 57.6279 49.5029C57.4083 49.5029 57.0946 49.5342 56.8122 49.6597V48.499C56.8122 48.4363 56.7809 48.4363 56.7181 48.4363H56.4358C56.373 48.4363 56.3417 48.4363 56.3417 48.499V52.5458C56.3417 52.6086 56.373 52.6086 56.4358 52.6086H56.7181C56.7809 52.6086 56.8122 52.6086 56.8122 52.5458V50.0675C57.0318 49.9734 57.3455 49.9107 57.5651 49.9107C58.1298 49.9107 58.3808 50.2244 58.3808 50.8518V52.5458C58.3808 52.6086 58.4121 52.6086 58.4749 52.6086H58.7572C58.7572 52.5458 58.7886 52.5145 58.7886 52.4517ZM61.5178 51.7302C61.5178 51.2283 61.11 51.0087 60.5767 50.8204C60.0748 50.6322 59.8552 50.5067 59.8552 50.2558C59.8552 50.0048 60.1062 49.848 60.4199 49.848C60.7022 49.848 60.8904 49.8793 61.1728 50.0048C61.2041 50.0362 61.2355 50.0362 61.2669 49.9734L61.361 49.7538C61.3924 49.6911 61.361 49.6597 61.3296 49.6597C61.0159 49.5342 60.7649 49.5029 60.4512 49.5029C59.8238 49.5029 59.4474 49.848 59.4474 50.3185C59.4474 50.7263 59.6983 50.9459 60.3571 51.1969C60.8277 51.3851 61.11 51.542 61.11 51.8243C61.11 52.1694 60.8277 52.2949 60.4512 52.2949C60.1689 52.2949 59.8552 52.2321 59.5415 52.0753C59.4787 52.0439 59.4474 52.0753 59.416 52.1066L59.3219 52.2949C59.2905 52.3576 59.3219 52.389 59.3533 52.389C59.667 52.5458 60.0748 52.6086 60.4512 52.6086C61.0786 52.6086 61.5178 52.3262 61.5178 51.7302ZM61.9257 49.8793H62.3335V51.8243C62.3335 52.3262 62.5531 52.5772 63.1177 52.5772C63.2432 52.5772 63.4942 52.5772 63.6824 52.5145C63.7452 52.4831 63.7452 52.4517 63.7138 52.4203L63.651 52.2007C63.651 52.1694 63.651 52.138 63.5883 52.1694C63.4314 52.2008 63.2119 52.2321 63.1491 52.2321C62.804 52.2321 62.7413 52.0753 62.7413 51.8243V49.9107H63.4001C63.4628 49.9107 63.4628 49.8793 63.4628 49.848V49.6597C63.4628 49.597 63.4628 49.597 63.4001 49.597H62.7413V48.9068C62.7413 48.8441 62.7099 48.8441 62.6472 48.8441L62.4903 48.9068C62.4276 48.9382 62.3962 48.9382 62.3962 49.0009L62.3648 49.5029L61.9257 49.5656C61.8629 49.597 61.8629 49.597 61.8629 49.6597V49.8166C61.8629 49.848 61.8629 49.8793 61.9257 49.8793ZM66.4744 52.2949V50.444C66.4744 49.8166 66.098 49.4715 65.3764 49.4715C65.0627 49.4715 64.6863 49.5342 64.4039 49.6284C64.3726 49.6597 64.3412 49.6911 64.3412 49.7225L64.4039 49.9421C64.4353 50.0048 64.4667 50.0048 64.4981 49.9734C64.7176 49.9107 65.0314 49.848 65.3137 49.848C65.9097 49.848 66.0352 50.1303 66.0352 50.5067V50.6636H65.2823C64.4353 50.6636 64.0589 51.1028 64.0589 51.6988C64.0589 52.1694 64.3098 52.6399 65.2509 52.6399C65.6274 52.6399 66.0038 52.5772 66.3803 52.4517C66.443 52.389 66.4744 52.3576 66.4744 52.2949ZM66.0038 51.0087V52.138C65.7215 52.2321 65.3764 52.2635 65.2509 52.2635C64.8431 52.2635 64.4667 52.138 64.4667 51.6674C64.4667 51.0714 65 51.04 65.2823 51.04L66.0038 51.0087ZM69.6428 52.4517V50.9146C69.6428 49.8793 69.2664 49.4715 68.2939 49.4715C68.1057 49.4715 67.7292 49.5029 67.541 49.5342C67.3214 49.5656 67.2273 49.6911 67.2273 49.9107V52.4831C67.2273 52.5458 67.2587 52.5458 67.3214 52.5458H67.6037C67.6665 52.5458 67.6979 52.5458 67.6979 52.4831V49.9107C67.9802 49.848 68.1998 49.848 68.2939 49.848C69.0782 49.848 69.2664 50.2244 69.2664 50.9459V52.4831C69.2664 52.5458 69.2978 52.5458 69.3605 52.5458H69.6428C69.6115 52.5458 69.6428 52.5145 69.6428 52.4517Z" fill="#535456"/>
</svg>
