<svg width="87" height="86" viewBox="0 0 87 86" fill="none" xmlns="http://www.w3.org/2000/svg">
<path d="M13.5728 5.08326C6.97517 7.59992 1.34677 9.76659 1.05769 9.91659C0.309508 10.2999 -0.0985937 11.0499 0.0204359 11.8666C0.0714486 12.2333 0.173474 12.5999 0.258495 12.6833C0.343516 12.7666 6.312 10.5666 13.9129 7.64992C21.3437 4.79992 27.6013 2.39992 27.8224 2.31659C28.1964 2.18326 28.1964 2.14992 27.9414 1.66659C27.6013 1.03326 26.7511 0.499922 26.0709 0.516589C25.7988 0.516589 20.1704 2.56659 13.5728 5.08326Z" fill="#005287"/>
<path d="M59.8762 0.833276C59.5702 0.999942 59.2131 1.38328 59.06 1.66661C58.805 2.13328 58.822 2.18328 59.094 2.28327C59.2641 2.34994 65.5216 4.74994 73.0035 7.61661C80.6554 10.5499 86.6579 12.7666 86.7429 12.6833C86.828 12.5999 86.93 12.2333 86.981 11.8666C87.1 10.9833 86.6579 10.2666 85.7567 9.83327C84.0393 9.03327 61.3046 0.499942 60.8965 0.499942C60.6414 0.499942 60.1823 0.649942 59.8762 0.833276Z" fill="#005287"/>
<path d="M15.528 10.1833C7.96112 13.0833 1.65255 15.5333 1.53352 15.6166C1.36347 15.7166 2.07765 17.8666 4.61128 24.8833C7.46799 32.8 7.99513 34.1 8.47124 34.5833C9.20243 35.3333 10.2907 35.7333 11.2429 35.6333C12.2972 35.5166 35.2699 26.75 36.0011 26.1833C36.8513 25.5333 37.2934 24.6 37.2934 23.5C37.2934 22.6666 36.9193 21.7666 33.4845 14.0833C31.393 9.39995 29.6075 5.43329 29.4885 5.23329C29.3014 4.89995 28.8423 5.06662 15.528 10.1833ZM26.1556 11.1C27.0909 11.5666 27.567 12.35 29.4035 16.5C30.4237 18.8166 31.2909 20.95 31.3589 21.25C31.512 22.0666 31.1379 23.1333 30.4407 23.85C29.8626 24.4666 29.3184 24.6833 22.5848 27.0833C18.6058 28.5 15.0519 29.7166 14.6778 29.7666C13.6575 29.9166 12.5693 29.5666 11.8721 28.8666C11.396 28.3833 10.8348 27.2666 9.35546 23.8833C8.09715 21.0166 7.45099 19.3166 7.45099 18.9333C7.45099 17.8 8.18217 16.5833 9.16842 16.0833C9.8826 15.7166 23.2819 10.95 23.9451 10.8333C24.6593 10.7 25.5775 10.8 26.1556 11.1Z" fill="#005287"/>
<path d="M17.6376 13.9835C15.6311 14.6168 14.1687 16.1502 13.6416 18.1668C13.2845 19.5502 13.4205 20.7668 14.0837 22.1168C15.0869 24.1168 17.0594 25.3335 19.321 25.3335C20.7323 25.3335 21.3955 25.1502 22.5858 24.4668C25.6125 22.6835 26.2757 18.3835 23.9121 15.7502C23.0109 14.7502 22.1607 14.2335 20.9364 13.9168C19.6781 13.6002 18.8109 13.6168 17.6376 13.9835ZM20.6303 18.7168C21.2595 19.6002 20.4773 21.0002 19.355 21.0002C17.7226 21.0002 17.4845 18.4502 19.0999 18.1335C19.5931 18.0335 20.3412 18.3168 20.6303 18.7168Z" fill="#005287"/>
<path d="M53.7028 13.7C51.5263 18.5667 49.7238 22.8167 49.6728 23.1667C49.5028 24.4167 50.319 25.9167 51.4753 26.4834C52.7166 27.1167 75.0091 35.5334 75.6213 35.6167C76.6415 35.75 77.6788 35.3834 78.444 34.6C79.0901 33.95 79.3282 33.3667 82.406 24.8334C84.1914 19.85 85.6028 15.7167 85.5347 15.6334C85.4497 15.55 67.7143 8.70002 58.8551 5.33335L57.6478 4.86668L53.7028 13.7ZM70.401 13.35C74.1929 14.7 77.5257 15.9167 77.7978 16.05C78.8181 16.5834 79.5492 17.7833 79.5492 18.9334C79.5492 19.3167 78.9031 21.0167 77.6448 23.8834C76.1654 27.2667 75.6043 28.3834 75.1281 28.8667C74.448 29.5334 73.3597 29.9167 72.4075 29.7834C72.0674 29.75 68.5475 28.55 64.5855 27.15C57.9879 24.8 57.3077 24.5334 56.6616 23.9167C55.8794 23.1834 55.4713 22.1334 55.6413 21.25C55.7773 20.55 59.2122 12.75 59.6883 12.0667C60.3515 11.1167 61.5928 10.6334 62.8851 10.8C63.2082 10.85 66.592 12 70.401 13.35Z" fill="#005287"/>
<path d="M66.235 13.85C64.4156 14.2667 62.6812 15.75 62.035 17.45C61.5929 18.6 61.5589 20.35 61.933 21.4667C62.4941 23.1 64.2285 24.7 65.946 25.1667C66.9662 25.45 68.7347 25.3667 69.7549 24.9834C71.6764 24.2834 73.2918 22.2167 73.5299 20.1667C73.972 16.2667 70.146 12.95 66.235 13.85ZM68.6156 18.5334C69.1598 19.0334 69.1598 20.0334 68.5816 20.5834C67.6804 21.4834 66.133 20.8167 66.116 19.5334C66.116 18.3334 67.7144 17.7 68.6156 18.5334Z" fill="#005287"/>
<path d="M27.6693 32.6999L26.377 33.1999L31.8183 45.6332C34.794 52.4832 37.2767 58.1165 37.3107 58.1499C37.3447 58.1832 37.5147 58.0999 37.6678 57.9665C38.0759 57.6165 39.3172 57.0165 40.2864 56.6832L41.0856 56.4165L35.2532 44.3332C32.0394 37.6832 29.3017 32.2332 29.1827 32.2165C29.0636 32.1999 28.3835 32.4165 27.6693 32.6999Z" fill="#005287"/>
<path d="M57.0534 33.3668C56.7303 34.0335 54.1286 39.4168 51.2719 45.3335C48.4152 51.2502 46.0516 56.1835 46.0176 56.3002C45.9836 56.4168 46.3917 56.6835 46.9698 56.9168C47.531 57.1335 48.3472 57.5502 48.8063 57.8335L49.6395 58.3335L49.8776 57.7835C49.9966 57.5002 52.4792 51.8335 55.3699 45.2168L60.6242 33.2002L59.2809 32.6835C58.5327 32.4002 57.8696 32.1668 57.7845 32.1668C57.6995 32.1668 57.3594 32.7168 57.0534 33.3668Z" fill="#005287"/>
<path d="M21.736 34.9834C20.8518 35.3334 20.1376 35.7001 20.1546 35.8001C20.2396 36.1834 31.9725 66.7501 32.0916 66.8668C32.1426 66.9334 32.5677 66.0001 33.0268 64.7834C33.4859 63.5834 34.1151 62.1001 34.4382 61.5001L35.0163 60.4168L29.3369 47.4334C26.2251 40.2834 23.5894 34.4168 23.5044 34.4001C23.4194 34.3668 22.6202 34.6334 21.736 34.9834Z" fill="#005287"/>
<path d="M63.1404 34.8668C63.0214 35.1668 60.4197 41.1002 57.376 48.0668L51.8496 60.7168L52.3257 61.6502C52.5978 62.1668 53.2099 63.6502 53.7031 64.9502C54.1962 66.2668 54.6553 67.3335 54.7063 67.3335C54.7913 67.3335 66.7793 36.1835 66.8473 35.7668C66.8814 35.6168 63.8716 34.3335 63.5315 34.3335C63.4465 34.3335 63.2765 34.5835 63.1404 34.8668Z" fill="#005287"/>
<path d="M41.3744 59.3833C39.759 59.9167 38.3817 60.8833 37.5144 62.1333C37.2084 62.5667 36.4092 64.3333 35.729 66.0667C34.4707 69.3167 34.1986 69.8167 33.3994 70.4C32.9573 70.7333 32.6682 70.75 28.6042 70.8C25.7985 70.8333 24.2852 70.9167 24.2852 71.0167C24.2852 71.4333 25.1864 73.7833 25.7985 74.9667C29.1314 81.4167 35.9161 85.5 43.3299 85.5C50.6417 85.5 57.3244 81.5667 60.6742 75.3C61.4734 73.8 62.3746 71.5667 62.3746 71.0667C62.3746 70.9 61.4224 70.8333 58.0726 70.8L53.7535 70.75L53.1413 70.2833C52.3591 69.7 52.2401 69.4833 50.9648 66.1333C50.4037 64.65 49.7405 63.0667 49.5024 62.6167C48.8903 61.5167 47.615 60.4167 46.2546 59.7833C45.2854 59.3333 44.8943 59.25 43.585 59.2167C42.6497 59.1833 41.7995 59.25 41.3744 59.3833ZM44.0271 62.25C44.9623 62.7333 45.0813 64.0167 44.2311 64.6667C43.0238 65.5833 41.4084 64.35 41.9866 62.95C42.1056 62.6667 42.4287 62.3667 42.7177 62.2333C43.3979 61.95 43.4149 61.95 44.0271 62.25ZM44.7753 69.5833C47.4789 70.2833 49.2814 72.5333 49.2814 75.25C49.2814 78 47.4789 80.2333 44.6902 80.9333C42.0546 81.6 39.1128 80.2 37.9226 77.7C37.5315 76.8833 37.4634 76.5333 37.4634 75.25C37.4634 73.9667 37.5315 73.6167 37.9226 72.8C38.6877 71.2 40.0991 70.0667 41.9696 69.5667C43.0068 69.2833 43.585 69.2833 44.7753 69.5833Z" fill="#005287"/>
<path d="M42.3102 74.2498C41.426 75.1832 42.0552 76.6665 43.3475 76.6665C43.8406 76.6665 44.0787 76.5498 44.4188 76.1498C44.6568 75.8665 44.8609 75.4665 44.8609 75.2498C44.8609 75.0332 44.6568 74.6332 44.4188 74.3498C43.8406 73.6665 42.9054 73.6332 42.3102 74.2498Z" fill="#005287"/>
</svg>
