<svg width="89" height="93" viewBox="0 0 89 93" fill="none" xmlns="http://www.w3.org/2000/svg">
<path d="M87.2264 33.1375L82.7452 30.4913C83.0639 28.3821 83.0639 26.2344 82.7452 24.1252L87.2264 21.479C88.1264 20.9421 88.4264 19.7725 87.9202 18.8521L82.2952 8.88089C81.7701 7.96048 80.6265 7.65361 79.7265 8.17134L79.7077 8.19058L75.4327 10.8175C74.1015 9.78207 72.414 8.76584 70.4453 7.74943V2.38048C70.3328 1.32578 69.489 0.462891 68.4577 0.462891H57.114C56.0827 0.462891 55.2389 1.32578 55.2389 2.38048V7.53856C52.6326 8.34392 51.0953 9.49444 49.5951 10.8558L45.0201 8.20963C44.1201 7.6919 42.9951 7.99877 42.47 8.91918L36.7888 18.8904C36.2637 19.8108 36.5638 20.9805 37.4638 21.5173L41.9075 24.1635C41.5888 26.2727 41.57 28.4204 41.8887 30.5296L37.4262 33.1375C36.545 33.6745 36.2261 34.825 36.7323 35.7454L42.3573 45.7166C42.676 46.2726 43.2573 46.6178 43.8761 46.637L39.6948 49.2065C38.3636 48.171 36.6761 47.1548 34.5948 46.1384V40.7309C34.5948 39.6762 33.7511 38.8133 32.7198 38.8133H21.5452C20.5139 38.8133 19.6701 39.6762 19.5953 40.7309V45.889C17.064 46.6944 15.5264 47.8449 14.0265 49.2063L9.45145 46.5601C8.55145 46.0424 7.42645 46.3492 6.90139 47.2696L1.25758 57.2216C0.732525 58.142 1.03258 59.3118 1.93258 59.8485L6.37633 62.4947C6.05764 64.6039 6.03883 66.7516 6.35753 68.8609L1.87633 71.4878C0.97651 72.025 0.676451 73.1947 1.1827 74.0959L6.8077 84.0671C7.31395 84.9682 8.43895 85.2943 9.33895 84.7957L14.0265 82.1303C15.5078 83.4726 17.0452 84.6231 19.7828 85.4475V90.5865C19.6701 91.6412 20.5139 92.5041 21.5452 92.5041H32.7389C33.7703 92.5041 34.614 91.6412 34.614 90.5865V85.1791C36.6953 84.1629 38.3828 83.1657 39.7328 82.111L44.0078 84.738C44.8889 85.2749 46.0516 84.9873 46.5764 84.0859C46.5764 84.0859 46.5765 84.0667 46.5953 84.0667L52.2203 74.0955C52.7453 73.1751 52.4264 72.0054 51.5264 71.4686L47.0453 68.8224C47.364 66.7132 47.364 64.5655 47.0453 62.4563L51.5264 59.8101C52.4264 59.2731 52.7265 58.1035 52.2203 57.2022L46.5953 47.231C46.314 46.6365 45.7141 46.2723 45.0765 46.3106L49.5953 43.7411C51.0766 45.0835 52.614 46.234 55.2391 47.0584V52.2361C55.2391 53.2908 56.0829 54.1537 57.1142 54.1537H68.4392C69.4705 54.1537 70.3143 53.2908 70.2392 52.2361V46.8287C72.3955 45.8124 74.083 44.8153 75.433 43.7606L79.7077 46.3877C80.5889 46.9437 81.7515 46.637 82.2764 45.7357C82.2764 45.7357 82.2764 45.7164 82.2952 45.7164L87.9202 35.7452C88.4264 34.825 88.1078 33.6553 87.2264 33.1375ZM48.0952 57.4709L44.1014 59.8295C43.389 60.2514 43.0327 61.0951 43.2014 61.9004C43.7451 64.374 43.7451 66.9244 43.2014 69.398C43.0327 70.2226 43.389 71.047 44.1014 71.4689L48.0952 73.8275L44.3639 80.4622L40.5951 78.1419C39.8827 77.7009 38.9827 77.7968 38.3639 78.372C37.0139 79.6376 34.8953 80.9224 32.0639 82.207C31.3889 82.5139 30.9578 83.2042 31.0703 83.952V88.6691H23.3828V83.952C23.4579 83.0508 22.8391 82.2838 21.9766 82.0729C18.7703 81.3443 17.5328 80.1938 15.5829 78.353C14.9829 77.7969 14.1204 77.6819 13.4079 78.0846L9.17038 80.5007L5.40163 73.8277L9.41419 71.4691C10.1266 71.0472 10.4829 70.2035 10.3142 69.3982C9.77049 66.9246 9.77049 64.3742 10.333 61.9006C10.5017 61.076 10.1454 60.2516 9.43299 59.8297L5.4577 57.4709L9.26389 50.7979L13.4076 53.1948C14.1388 53.5782 15.0388 53.4632 15.6576 52.8879C17.5326 51.1239 18.7701 49.9541 21.995 49.2255C22.8576 49.0337 23.4575 48.2476 23.5888 47.3464V42.6485H30.9013V47.3656C30.9764 48.1327 31.4076 48.8038 32.0826 49.1106C34.9139 50.3954 37.0326 51.6801 38.3826 52.9456C39.0013 53.5209 39.9013 53.6167 40.6138 53.1757L44.4013 50.8555L48.0952 57.4709ZM79.9889 42.1115L76.2202 39.7913C75.5078 39.3503 74.6078 39.4461 73.989 40.0214C72.639 41.287 70.5203 42.5718 67.689 43.8564C67.014 44.1632 66.5828 44.8536 66.6953 45.6014V50.3185H59.0077V45.6014C59.0828 44.7002 58.464 43.9331 57.6014 43.7223C54.3952 42.9937 53.1577 41.8432 51.2078 40.0023C50.6078 39.4463 49.7453 39.3313 49.0328 39.7339L44.7953 42.15L41.0265 35.477L45.0391 33.1185C45.7515 32.6966 46.1078 31.8529 45.9391 31.0475C45.3954 28.5739 45.3954 26.0236 45.9579 23.55C46.1266 22.7254 45.7703 21.9009 45.0579 21.479L41.0829 19.1205L44.8891 12.4475L49.0326 14.8443C49.7639 15.2278 50.6639 15.1127 51.2826 14.5375C53.1577 12.7734 54.3952 11.6037 57.6203 10.8751C58.4828 10.6832 59.0828 9.89712 59.2141 8.99594V4.29788H66.5266V9.015C66.6016 9.78207 67.0328 10.4531 67.7078 10.76C70.5391 12.0448 72.6766 13.3487 74.0078 14.595C74.6266 15.1703 75.5266 15.2661 76.239 14.8251L79.9889 12.505L83.7203 19.1205L79.7077 21.479C78.9953 21.9009 78.6389 22.7446 78.8077 23.55C79.3514 26.0236 79.3514 28.5739 78.8077 31.0475C78.6389 31.8721 78.9953 32.6966 79.7077 33.1185L83.7014 35.477L79.9889 42.1115Z" fill="#005287"/>
<path d="M62.3632 17.7207C57.1882 17.7207 52.9883 22.0159 52.9883 27.3083C52.9883 32.6006 57.1882 36.8958 62.3632 36.8958C67.5382 36.8958 71.7382 32.6006 71.7382 27.3083C71.7383 22.0159 67.5382 17.7207 62.3632 17.7207ZM62.3632 33.0608C59.2507 33.0608 56.7382 30.4914 56.7382 27.3083C56.7382 24.1251 59.2507 21.5557 62.3632 21.5557C65.4758 21.5557 67.9882 24.1251 67.9882 27.3083C67.9882 30.4914 65.4758 33.0608 62.3632 33.0608Z" fill="#005287"/>
<path d="M26.7382 56.0713C21.5632 56.0713 17.3633 60.3665 17.3633 65.6589C17.3633 70.9512 21.5632 75.2466 26.7382 75.2466C31.9132 75.2466 36.1132 70.9514 36.1132 65.659C36.1132 60.3667 31.9132 56.0713 26.7382 56.0713ZM26.7382 71.4116C23.6257 71.4116 21.1132 68.8422 21.1132 65.659C21.1132 62.4759 23.6257 59.9065 26.7382 59.9065C29.8508 59.9065 32.3632 62.4759 32.3632 65.659C32.3632 68.8422 29.8506 71.4116 26.7382 71.4116Z" fill="#005287"/>
</svg>
