<svg width="81" height="86" viewBox="0 0 81 86" fill="none" xmlns="http://www.w3.org/2000/svg">
<g clip-path="url(#clip0_423_1716)">
<path d="M0 0.000113462V44.0079H0.158203C0.474333 41.5175 2.03013 39.1718 3.95508 37.7551C4.66747 37.2309 6.12026 36.9134 6.61852 36.1957C7.15936 35.4167 7.20674 33.9995 7.57361 33.09C8.55282 30.6621 10.0364 28.4826 12.0234 26.8751C11.4929 25.6599 10.4742 24.7644 9.94544 23.5157C8.40144 19.8695 9.06798 15.7205 11.5946 12.7724C12.6054 11.5929 14.6961 11.1109 15.4995 9.96081C16.0662 9.14964 15.5707 7.54384 16.0383 6.55089C17.5257 3.39249 21.1249 4.03136 23.8887 4.03136C24.2816 2.27082 25.1844 0.706184 26.8945 0.168082C24.8187 -0.7567 21.0885 0.000113462 18.8262 0.000113462H0Z" fill="white"/>
<path d="M23.8877 4.0312C21.2875 4.0312 17.6207 3.33047 16.1208 6.2148C15.5773 7.26 16.1026 9.17258 15.4075 9.96065C14.4263 11.0731 12.6579 11.4045 11.5937 12.6126C8.97762 15.5824 8.38398 19.9983 9.94451 23.6835C10.4579 24.8959 11.3186 25.8013 12.0225 26.875C9.8683 28.0615 8.28896 30.9165 7.44487 33.2578C7.13862 34.1072 7.08246 35.3162 6.61759 36.0665C6.17119 36.7871 4.80172 37.0787 4.11235 37.5349C2.84056 38.3766 1.82608 39.6085 1.08635 40.9843C-2.34646 47.369 2.19977 55.4483 9.01665 55.5976V63.8281H15.0284C15.1768 65.6326 16.9947 67.715 16.8869 69.371C16.7953 70.7785 13.8906 72.9306 12.9717 73.9062V74.0742L18.1924 79.6171C18.7298 80.1877 19.6044 81.5454 20.4073 81.646C21.8213 81.8231 23.3063 78.5198 24.5206 77.9067C25.2136 77.5568 26.2663 78.4299 26.8936 78.7254C27.6642 79.0885 29.0561 79.2684 29.6459 79.9074C30.0263 80.3196 29.8995 81.1087 29.8995 81.6328V86H40.4991V79.7851C41.69 79.599 42.8977 79.1203 43.9795 78.566C44.4959 78.3014 45.2763 77.6585 45.878 77.8397C47.341 78.2806 48.5764 81.8431 50.1495 81.646C50.9523 81.5454 51.8269 80.1877 52.3643 79.6171L57.585 74.0742V73.9062C56.663 72.9273 53.7658 70.7827 53.6698 69.371C53.6299 68.7855 54.158 68.0397 54.3839 67.5234C54.8997 66.3446 55.364 65.1224 55.5284 63.8281H61.5401V52.5742H55.5284C55.3423 51.237 54.8011 49.9386 54.2847 48.7109C54.0849 48.2359 53.5953 47.5764 53.7131 47.0312C53.9484 45.9431 56.5758 43.3219 57.585 43.0534C59.1006 42.6499 61.0854 43 62.6475 43H73.2471V22.3398C75.4211 22.3398 78.3655 22.8508 80.0162 20.9786C81.1696 19.6703 80.9991 17.9429 80.9991 16.2929V5.71089C80.9991 3.88942 81.1068 2.02787 79.5689 0.804419C78.3438 -0.17026 76.9048 -4.56194e-05 75.462 -4.56194e-05H67.5518H35.5948C31.6868 -4.56194e-05 24.6867 -1.63225 23.8877 4.0312Z" fill="#005287"/>
<path d="M78.1529 0V0.167969C79.4856 0.584343 80.4501 1.60845 80.8423 3.02344H81.0005V0H78.1529ZM18.3521 9.57422C21.7285 10.0272 24.6541 11.4624 26.3709 14.7813C29.6516 21.1238 25.117 29.0782 18.3521 29.2266V36.7852L20.4087 34.6016H20.5669L23.4146 37.7928L24.8384 38.8083L29.9009 36.7852V30.4023H40.5005V34.7695C40.5005 35.285 40.3673 36.0844 40.6632 36.5315C41.0535 37.1216 42.2675 37.2689 42.8736 37.5242C43.6595 37.8553 45.0378 38.9382 45.8794 38.8018C47.1615 38.5942 49.2691 35.6922 49.9927 34.6016H50.1509C51.1976 36.1791 53.6493 39.3689 55.3716 40.0433C56.6333 40.5371 58.62 40.1445 59.9595 40.1445H70.4009V25.0273H49.5181C49.2408 26.4354 48.6045 27.6204 47.6054 28.6002C46.7586 29.4305 45.8837 29.9977 44.772 30.3305C43.8347 30.611 42.879 30.636 41.9244 30.4346C34.7592 28.9227 34.9843 17.0005 42.5572 16.6355C44.2841 16.5523 45.4232 17.2005 46.9869 17.8047V2.85547C45.801 2.85547 42.8174 2.27734 41.8552 3.02811C41.3107 3.453 41.0607 4.76081 40.6519 5.375C39.5635 7.01038 37.9164 8.01864 36.0708 8.32468C33.844 8.69396 31.5193 7.56204 30.1411 5.7108C29.6725 5.08154 29.1607 3.11323 28.4415 2.91145C26.2903 2.30786 26.7503 6.10711 25.5855 6.88205C23.1884 8.47683 18.3551 4.79077 18.3521 9.57422ZM31.7994 2.85547C32.8177 6.24091 37.7158 6.19825 38.7603 2.85547H31.7994ZM49.6763 2.85547V22.1719H62.649V12.5977C58.4359 14.9513 52.9581 13.4707 52.2533 7.72656C52.0285 5.8936 52.7491 4.5091 53.315 2.85547H49.6763ZM58.0611 2.94256C53.1758 4.06589 54.7379 11.95 59.6431 10.8687C64.4253 9.81455 62.7808 1.85733 58.0611 2.94256ZM64.231 2.85547C66.26 8.77501 65.3384 15.8664 65.3384 22.1719H70.4009V16.6289H73.2486V19.3164C74.4068 19.3164 77.0293 19.8353 77.8914 18.8842C78.5811 18.1237 78.3111 16.5835 78.3111 15.6211V6.88672C78.3111 5.8753 78.6314 4.08685 77.8914 3.30106C76.9906 2.34458 74.4315 2.85547 73.2486 2.85547V13.9414H70.4009V2.85547H64.231ZM17.2447 12.6757C8.96603 14.2576 11.1989 27.6131 19.4595 26.1484C27.606 24.704 25.3146 11.1336 17.2447 12.6757Z" fill="white"/>
<path d="M18.0353 15.2042C12.7939 15.62 13.4653 24.1887 18.6681 23.6539C23.727 23.1337 23.1345 14.7996 18.0353 15.2042Z" fill="#005287"/>
<path d="M17.8834 18.2678C16.5087 18.8137 17.2859 21.0934 18.6645 20.5579C20.0697 20.012 19.275 17.715 17.8834 18.2678ZM80.8413 19.1483C79.8451 22.8114 76.0887 22.3397 73.2476 22.3397V42.9999H62.4898C60.9277 42.9999 58.9429 42.6498 57.4273 43.0533C56.4281 43.3192 53.7921 45.9351 53.6111 47.0311C53.5187 47.5905 54.0041 48.2281 54.2143 48.7108C54.7535 49.9492 55.2388 51.2429 55.5288 52.5741H61.5405V63.828H55.5288C55.1982 65.5243 53.5429 67.7516 53.5847 69.371C53.6198 70.7265 56.5927 73.1637 57.5855 73.9061V74.0741L52.3648 79.4491L50.1499 81.5267L48.8843 80.6247L45.8784 77.7385L43.98 78.4823L40.4995 79.785V85.9999H80.9995V38.6327V25.0272L80.8413 19.1483ZM42.5562 19.5624C37.6989 20.4739 38.8281 28.4775 43.6636 27.5765C48.5351 26.6689 47.397 18.654 42.5562 19.5624ZM15.6616 38.8007V28.7225C13.2909 28.1753 11.3154 31.4186 10.4068 33.4257C10.1526 33.987 9.53004 35.084 9.76016 35.7238C9.95894 36.2766 11.089 36.2361 11.5484 36.3614C13.1516 36.7991 14.3289 37.834 15.6616 38.8007ZM32.7476 33.4257V39.1366C30.6406 39.3146 28.597 40.1756 26.7359 41.1956C26.1491 41.5172 24.9387 42.6774 24.2717 42.5413C23.0875 42.2996 21.4174 39.7047 20.5659 38.8007H20.4077L16.9273 42.496V42.6639C17.792 43.5821 20.2181 45.3405 20.4505 46.624C20.5754 47.3142 19.4799 48.604 19.1829 49.2147C18.2394 51.1556 17.4126 53.4008 17.2437 55.5975H11.8648V60.9725H17.2437C17.4971 63.0569 18.1223 65.1503 19.0249 67.0194C19.3753 67.745 20.5226 69.0486 20.4281 69.8749C20.2801 71.1709 17.7803 73.0004 16.9273 73.9061V74.0741L20.4077 77.7694H20.5659C21.4218 76.8607 23.1388 74.2142 24.3628 74.0523C25.1704 73.9456 26.3511 75.1504 27.0523 75.5237C28.8017 76.4545 30.8063 77.156 32.7476 77.4335V83.1444H37.8101C37.8101 81.8341 37.2708 78.7641 37.9727 77.6742C38.3543 77.0816 39.5748 77.0345 40.1831 76.8662C41.6661 76.4557 43.1395 75.7785 44.4546 74.9474C44.9457 74.637 45.7429 73.8698 46.353 74.0931C47.6484 74.5671 49.0279 76.7461 49.9917 77.7694H50.1499L53.6304 74.0741V73.9061C52.7745 72.9974 50.2819 71.1745 50.1294 69.8749C50.0297 69.0241 51.1615 67.7494 51.5231 67.0194C52.4383 65.1718 53.0624 63.0406 53.314 60.9725H58.6929V55.5975H53.314C53.0764 53.6436 52.5223 51.6488 51.6927 49.8866C51.2865 49.0241 50.1365 47.702 50.099 46.7431C50.0433 45.32 52.852 44.1703 53.2861 42.8319C53.6472 41.7191 50.8354 39.5285 50.1499 38.8007H49.9917C49.127 39.7188 47.4708 42.2946 46.2619 42.5413C45.6119 42.674 44.397 41.5108 43.8218 41.1956C41.9711 40.1814 39.9052 39.3136 37.8101 39.1366V33.4257H32.7476ZM15.0288 52.5741C15.3038 51.312 15.739 50.05 16.2598 48.8788C16.4914 48.3577 17.0151 47.6351 16.9282 47.0311C16.7327 45.6699 13.9995 43.4322 12.9722 42.6639V42.496L14.0796 41.4882C9.91615 35.2654 0.581926 41.3447 3.12575 48.2069C3.46019 49.1091 3.97727 49.9771 4.63321 50.6527C5.47608 51.5209 6.47194 52.0601 7.59328 52.3994C9.8183 53.0726 12.7212 52.5741 15.0288 52.5741Z" fill="white"/>
<path d="M8.70046 41.5629C3.57585 42.355 4.50194 50.7953 9.64968 49.9803C14.7324 49.1758 13.7762 40.7783 8.70046 41.5629ZM42.3977 70.0432L40.9739 67.5236C37.2808 68.7644 34.3175 70.1692 30.5325 67.9751C23.3738 63.8253 23.1493 52.8889 30.3743 48.6297C36.4863 45.0264 44.414 49.2905 45.4923 56.6057C46.0187 60.1767 44.7338 63.3568 42.5559 66.0119C42.9541 66.6121 43.7051 67.7769 44.452 67.8729C45.564 68.0156 46.8741 65.0513 47.2343 64.1643C48.6866 60.5882 48.7614 56.7271 47.5085 53.0783C46.9035 51.3168 45.8546 49.6951 44.6119 48.3759C43.3833 47.0713 41.9459 46.0601 40.3411 45.3538C29.3816 40.5294 18.1272 53.1569 23.4561 64.5002C24.3365 66.3742 25.6203 68.0996 27.2102 69.3451C29.1648 70.8763 31.3115 71.7329 33.6966 72.1277C36.6801 72.6213 39.8404 71.6295 42.3977 70.0432Z" fill="#005287"/>
<path d="M8.71777 44.6374C7.40329 45.2006 8.12199 47.4396 9.48913 46.9275C10.8925 46.4019 10.1057 44.0426 8.71777 44.6374ZM0 47.5354V86.0002H29.9004V81.633L29.7378 79.9077L26.8945 78.6481L24.5215 77.7921L21.6738 80.6251L20.4082 81.527L18.1934 79.4494L12.9727 74.0744V73.9065C13.9641 73.1651 16.9399 70.7255 16.9735 69.3713C17.0149 67.6886 15.2778 65.6152 15.0293 63.8283H9.01758V55.5979C5.98166 55.4595 3.08914 53.7961 1.43811 51.0627C0.761549 49.9427 0.530681 48.6984 0 47.5354Z" fill="white"/>
<path d="M34.0129 49.9602C32.8952 50.147 31.794 50.5834 30.8489 51.2477C24.1841 55.9322 28.1274 67.9529 36.2278 66.6096C37.6044 66.3814 38.8932 65.8941 40.0246 65.0159C46.6029 59.9104 41.9329 48.6366 34.0129 49.9602Z" fill="#005287"/>
<path d="M34.9638 52.8206C28.0745 53.5501 29.2135 64.5124 36.0712 63.6291C42.3407 62.8213 41.2214 52.158 34.9638 52.8206Z" fill="white"/>
</g>
<defs>
<clipPath id="clip0_423_1716">
<rect width="81" height="86" fill="white"/>
</clipPath>
</defs>
</svg>
