<svg width="107" height="81" viewBox="0 0 107 81" fill="none" xmlns="http://www.w3.org/2000/svg">
<path d="M28.4844 0.595897C28.1717 0.768846 27.7651 1.19336 27.5775 1.50781C27.2648 2.07383 27.2492 2.32539 27.2492 5.97305V9.84082H25.8264C24.1378 9.84082 23.4185 10.1553 22.8869 11.0986L22.5586 11.6961V45.2954V78.8947L22.8869 79.4922C23.0746 79.8224 23.4811 80.2312 23.8094 80.4198L24.4036 80.75H53.0317C81.2065 80.75 81.6755 80.75 82.2697 80.4355C82.6918 80.2312 82.9889 79.9167 83.2078 79.445L83.5518 78.7532L83.4892 55.8139C83.4423 30.6891 83.4892 32.0255 82.5198 28.6294C80.0338 20.0134 73.1387 13.1426 64.5862 10.7842C61.7249 9.99805 61.334 9.9666 53.4851 9.88799L46.0115 9.80937V5.9416C46.0115 1.53926 45.9489 1.25625 44.8232 0.611619C44.2134 0.249998 44.1978 0.249998 36.6303 0.249998C29.2036 0.249998 29.0316 0.265721 28.4844 0.595897ZM41.3209 7.40381V9.84082H36.6303H31.9398V7.40381V4.9668H36.6303H41.3209V7.40381ZM62.0376 14.9821C66.3999 16.0355 69.6364 17.8279 72.6071 20.831C75.6559 23.9283 77.3133 26.9471 78.4078 31.4595L78.7517 32.8745L78.7986 54.446L78.8612 76.0332H53.0474H27.2492V59.4615V42.8741L31.1267 42.827L35.0199 42.7798L35.5984 42.3238C36.9899 41.2704 36.9274 39.3365 35.489 38.4561C35.0355 38.173 34.6759 38.1416 31.1267 38.1416H27.2492V35.7832V33.4405L31.1424 33.3934C35.4421 33.3462 35.4264 33.3462 36.2238 32.2613C36.6929 31.6324 36.6772 30.3746 36.1769 29.6671C35.5359 28.7709 35.1919 28.708 31.0016 28.708H27.2492V26.3496V23.9912H30.9547C34.3789 23.9912 34.7072 23.9598 35.317 23.661C36.0362 23.3151 36.6303 22.3718 36.6303 21.5699C36.6303 20.8467 36.0518 19.9348 35.3795 19.5889C34.8166 19.3059 34.4727 19.2744 31.0016 19.2744H27.2492V16.916V14.5419L43.9476 14.6048C60.3647 14.652 60.6461 14.652 62.0376 14.9821Z" fill="#005287"/>
<path d="M56.6434 19.5731C56.3463 19.7304 55.9398 20.1392 55.7522 20.4693C55.3926 21.0825 55.3926 21.114 55.3926 28.6923C55.3926 36.2077 55.3926 36.3021 55.7366 36.8995C55.9554 37.2926 56.3151 37.6228 56.7216 37.8271C57.347 38.1259 57.691 38.1416 64.7737 38.1416C71.8565 38.1416 72.2005 38.1259 72.8259 37.8271C73.248 37.6228 73.592 37.2926 73.8422 36.8681C74.1705 36.2549 74.1861 36.0977 74.0923 34.6983C73.6702 28.0162 69.1516 22.1831 62.7881 20.0763C60.474 19.3059 57.5815 19.0543 56.6434 19.5731ZM62.2721 24.9188C65.1646 26.1295 67.7444 28.8652 68.7764 31.8054C69.4018 33.582 69.8083 33.4248 64.6174 33.4248H60.0832V28.8495V24.2742L60.6773 24.3843C60.99 24.4314 61.7092 24.683 62.2721 24.9188Z" fill="#005287"/>
<path d="M47.3091 44.7294C46.8401 44.9495 46.5586 45.2168 46.3397 45.6727C45.6205 47.0878 45.9489 47.7796 48.6537 50.4839L50.702 52.5278V53.5812V54.6504H49.6388H48.5912L46.5586 52.5907C43.9319 49.9336 43.2596 49.5877 41.8368 50.2323C40.7267 50.7512 40.2264 52.1662 40.7892 53.2825C40.9299 53.5655 41.7586 54.5089 42.6185 55.3893L44.2133 57.0088L42.6185 58.6125C40.9456 60.3263 40.5391 60.9394 40.5391 61.7256C40.5391 62.5117 41.0863 63.4079 41.7899 63.7695C43.1814 64.477 43.8694 64.1469 46.5586 61.4269L48.5912 59.3672H49.6388H50.702V60.4363V61.4897L48.6537 63.5337C47.528 64.6657 46.4805 65.8449 46.3085 66.1594C45.2922 68.1404 47.3717 70.3259 49.3417 69.3354C49.6231 69.1938 50.5612 68.3605 51.4525 67.4958L53.0472 65.8921L54.6577 67.4958C56.3463 69.1781 56.9561 69.5869 57.7378 69.5869C58.5196 69.5869 59.4108 69.0366 59.7704 68.3291C60.474 66.9298 60.1456 66.238 57.4407 63.5337L55.3925 61.4897V60.4363V59.3672H56.4401H57.4877L59.6922 61.5526C60.8961 62.7633 62.0844 63.8167 62.3189 63.911C64.289 64.6657 66.2278 62.5903 65.3053 60.7351C65.1646 60.452 64.3359 59.5087 63.4759 58.6125L61.8812 57.0088L63.4759 55.3893C64.3359 54.5089 65.1646 53.5655 65.3053 53.2825C65.8681 52.1662 65.3678 50.7512 64.2577 50.2323C62.8349 49.5877 62.1626 49.9336 59.5359 52.5907L57.5033 54.6504H56.4557H55.3925V53.5812V52.5278L57.4407 50.4839C60.1456 47.7796 60.474 47.0878 59.7548 45.6727C59.5359 45.2168 59.2544 44.9495 58.7854 44.7294C57.4407 44.1162 56.7372 44.4149 54.6577 46.5218L53.0472 48.1255L51.4525 46.5218C49.3573 44.4149 48.6537 44.1162 47.3091 44.7294Z" fill="#005287"/>
</svg>
