<svg width="100" height="92" viewBox="0 0 100 92" fill="none" xmlns="http://www.w3.org/2000/svg">
<g clip-path="url(#clip0_423_1744)">
<path d="M71.9201 66.7946L61.9201 10.0842C61.9126 10.0416 61.9022 10.0001 61.8908 9.95903C61.1504 4.61188 56.1026 0.460938 50.0007 0.460938C43.899 0.460938 38.851 4.61188 38.1106 9.95863C38.0992 9.99971 38.0888 10.0414 38.0813 10.084L28.0813 66.7944C27.7968 68.0818 27.6465 69.4125 27.6465 70.7744C27.6465 81.9365 37.6746 91.0176 50.0007 91.0176C62.3268 91.0176 72.3549 81.9365 72.3549 70.7744C72.3549 69.4125 72.2046 68.0818 71.9201 66.7946ZM50.0007 3.39474C54.824 3.39474 58.748 6.94816 58.748 11.316C58.748 15.6839 54.824 19.2373 50.0007 19.2373C45.1774 19.2373 41.2534 15.6839 41.2534 11.316C41.2534 6.94816 45.1774 3.39474 50.0007 3.39474ZM40.0733 17.3933C42.2307 20.2743 45.8756 22.1711 50.0007 22.1711C54.1258 22.1711 57.7707 20.2743 59.9281 17.3933L67.0318 57.6779C62.9281 53.3085 56.8162 50.5312 50.0007 50.5312C43.1851 50.5312 37.0733 53.3085 32.9698 57.6779L40.0733 17.3933ZM50.0007 88.0838C39.461 88.0838 30.8862 80.3188 30.8862 70.7744C30.8862 70.0773 30.9333 69.3902 31.0221 68.7145C31.024 68.7049 31.0268 68.6959 31.0286 68.6861L31.2722 67.3043C33.0517 59.4171 40.7728 53.465 50.0007 53.465C59.2286 53.465 66.9497 59.4171 68.7292 67.3045L68.9728 68.6863C68.9746 68.6959 68.9774 68.7051 68.9793 68.7147C69.0681 69.3904 69.1152 70.0775 69.1152 70.7746C69.1152 80.3188 60.5404 88.0838 50.0007 88.0838Z" fill="#005287"/>
<path d="M60.921 60.886C60.8761 60.8453 60.8288 60.8084 60.7804 60.7736C57.9953 58.3113 54.1916 56.79 50.0014 56.79C45.8111 56.79 42.0074 58.3115 39.2223 60.7736C39.1737 60.8084 39.1264 60.8453 39.0817 60.886C39.0368 60.9267 38.996 60.9695 38.9575 61.0135C36.2385 63.5354 34.5586 66.9799 34.5586 70.7745C34.5586 74.5691 36.2385 78.0136 38.9575 80.5355C38.996 80.5795 39.0368 80.6223 39.0817 80.663C39.1266 80.7037 39.1739 80.7406 39.2223 80.7754C42.0074 83.2375 45.8111 84.759 50.0014 84.759C54.1916 84.759 57.9953 83.2377 60.7804 80.7754C60.829 80.7406 60.8763 80.7037 60.921 80.663C60.9659 80.6223 61.0068 80.5795 61.0452 80.5355C63.7642 78.0136 65.4441 74.5691 65.4441 70.7745C65.4441 66.9799 63.7642 63.5354 61.0452 61.0135C61.0068 60.9695 60.9659 60.9267 60.921 60.886ZM60.3685 72.2414H62.0936C61.8063 74.1928 60.9562 75.9843 59.694 77.4774L58.4774 76.3757C57.8448 75.8028 56.8191 75.8028 56.1867 76.3757C55.5541 76.9486 55.5541 77.8774 56.1867 78.4501L57.4033 79.5518C55.7545 80.6949 53.7761 81.4647 51.6212 81.7248V80.1627C51.6212 79.3525 50.896 78.6958 50.0014 78.6958C49.1068 78.6958 48.3815 79.3525 48.3815 80.1627V81.7248C46.2266 81.4647 44.2482 80.6949 42.5994 79.5518L43.816 78.4501C44.4487 77.8772 44.4487 76.9484 43.816 76.3757C43.1834 75.8028 42.1577 75.8028 41.5253 76.3757L40.3087 77.4774C39.0465 75.9843 38.1964 74.1928 37.9091 72.2414H39.6342C40.5288 72.2414 41.2541 71.5846 41.2541 70.7745C41.2541 69.9644 40.5288 69.3076 39.6342 69.3076H37.9091C38.1964 67.3562 39.0465 65.5647 40.3087 64.0715L41.5253 65.1733C41.8415 65.4596 42.2562 65.603 42.6707 65.603C43.0852 65.603 43.4998 65.4598 43.816 65.1733C44.4487 64.6004 44.4487 63.6716 43.816 63.0989L42.5994 61.9971C44.2482 60.8541 46.2266 60.0843 48.3815 59.8242V61.3863C48.3815 62.1964 49.1068 62.8532 50.0014 62.8532C50.896 62.8532 51.6212 62.1964 51.6212 61.3863V59.8242C53.7761 60.0843 55.7545 60.8541 57.4033 61.9971L56.1867 63.0989C55.5541 63.6718 55.5541 64.6006 56.1867 65.1733C56.5029 65.4596 56.9176 65.603 57.332 65.603C57.7465 65.603 58.1612 65.4598 58.4774 65.1733L59.694 64.0715C60.9562 65.5647 61.8063 67.3562 62.0936 69.3076H60.3685C59.4739 69.3076 58.7487 69.9644 58.7487 70.7745C58.7487 71.5846 59.4739 72.2414 60.3685 72.2414Z" fill="#005287"/>
<path d="M50.0014 66.1782C47.2027 66.1782 44.9258 68.2401 44.9258 70.7745C44.9258 73.3089 47.2027 75.3708 50.0014 75.3708C52.8001 75.3708 55.077 73.3089 55.077 70.7745C55.077 68.2401 52.8001 66.1782 50.0014 66.1782ZM50.0014 72.437C48.9891 72.437 48.1655 71.6912 48.1655 70.7745C48.1655 69.8578 48.9891 69.112 50.0014 69.112C51.0137 69.112 51.8372 69.8578 51.8372 70.7745C51.8372 71.6912 51.0137 72.437 50.0014 72.437Z" fill="#005287"/>
<path d="M50.0014 15.9123C52.8001 15.9123 55.077 13.8504 55.077 11.316C55.077 8.7816 52.8001 6.71973 50.0014 6.71973C47.2027 6.71973 44.9258 8.7816 44.9258 11.316C44.9258 13.8504 47.2027 15.9123 50.0014 15.9123ZM50.0014 9.65353C51.0137 9.65353 51.8372 10.3993 51.8372 11.316C51.8372 12.2327 51.0137 12.9785 50.0014 12.9785C48.9891 12.9785 48.1655 12.2327 48.1655 11.316C48.1655 10.3993 48.9891 9.65353 50.0014 9.65353Z" fill="#005287"/>
</g>
<defs>
<clipPath id="clip0_423_1744">
<rect width="100" height="90.5567" fill="white" transform="translate(0 0.460938)"/>
</clipPath>
</defs>
</svg>
