<svg width="86" height="83" viewBox="0 0 86 83" fill="none" xmlns="http://www.w3.org/2000/svg">
<g clip-path="url(#clip0_423_1757)">
<path d="M32.6704 67.8604C33.7447 68.0789 34.432 69.0965 34.2054 70.1329C34.008 71.0359 33.1821 71.6559 32.2622 71.6559C32.1264 71.6559 31.9885 71.6425 31.8503 71.6143C20.2563 69.2559 11.1856 60.5033 8.74192 49.3162C8.51553 48.2796 9.20288 47.2621 10.2772 47.0437C11.3506 46.8254 12.4057 47.4884 12.6323 48.5249C14.7511 58.2257 22.6168 65.8153 32.6704 67.8604ZM40.0499 43.3258C40.0499 42.2664 39.16 41.4077 38.062 41.4077H38.0552C36.9572 41.4077 36.0709 42.2664 36.0709 43.3258C36.0709 44.3852 36.9641 45.2439 38.062 45.2439C39.16 45.2439 40.0499 44.385 40.0499 43.3258ZM85.4584 5.07873V28.4367C85.4584 29.4962 84.5685 30.3548 83.4706 30.3548C82.3726 30.3548 81.4827 29.4962 81.4827 28.4367V26.1033H50.6594L43.92 37.3671C45.0945 38.4434 45.9526 39.8391 46.3427 41.4079H55.9068V32.2725C55.9068 31.2131 56.7967 30.3544 57.8946 30.3544C58.9926 30.3544 59.8825 31.2131 59.8825 32.2725V43.2691C59.8829 43.2881 59.8834 43.307 59.8834 43.3262C59.8834 49.6254 57.0023 55.2874 52.4447 59.1498C52.3983 59.1971 52.3488 59.2427 52.2967 59.2862C50.4977 60.7818 48.4712 61.9717 46.3045 62.8246C43.7863 63.8197 41.0343 64.3733 38.1519 64.3849C38.1475 64.3855 38.1435 64.3849 38.1396 64.3849C38.1343 64.3849 38.1298 64.3849 38.1248 64.3851C38.1192 64.3853 38.1142 64.3853 38.1091 64.3851C38.1036 64.3849 38.0978 64.3849 38.0927 64.3851C38.0872 64.3851 38.0812 64.3851 38.0759 64.3851C38.0698 64.3851 38.0585 64.3836 38.0587 64.3851C34.1338 64.3851 30.4464 63.3796 27.2604 61.6222C27.2224 61.6038 27.1844 61.5842 27.1471 61.5636C27.1075 61.5416 27.0691 61.5184 27.0318 61.4943C20.5764 57.8322 16.2341 51.0593 16.2341 43.3264C16.2341 35.5935 20.5766 28.8206 27.032 25.1585C27.0693 25.1344 27.1077 25.111 27.1473 25.0893C27.1846 25.0684 27.2224 25.049 27.2606 25.0307C30.4471 23.2728 34.1334 22.2678 38.0596 22.2678C38.2184 22.2678 38.373 22.2857 38.521 22.3198C38.6692 22.2857 38.8236 22.2678 38.9824 22.2678H49.4775C49.5016 22.2671 49.5261 22.2671 49.5502 22.2678H81.4832V11.2488H38.982C38.8236 11.2488 38.6694 11.2309 38.5219 11.1972C38.3743 11.2309 38.2202 11.2488 38.0618 11.2488C19.7285 11.2488 4.81551 25.6385 4.81551 43.3258C4.81551 61.0131 19.7285 75.4028 38.0592 75.4028C50.8557 75.4028 62.6595 68.1844 68.1309 57.013C68.2228 56.8259 68.3416 56.6597 68.4812 56.5167C70.3539 52.527 71.4044 48.105 71.4232 43.4522C71.4227 43.4362 71.4225 43.4204 71.4225 43.4042V32.2723C71.4225 31.2129 72.3124 30.3542 73.4104 30.3542C74.5083 30.3542 75.3982 31.2129 75.3982 32.2723V43.2689C75.3986 43.2878 75.3991 43.3068 75.3991 43.326C75.3991 63.1285 58.7026 79.2392 38.1798 79.2392C38.1396 79.2392 38.0996 79.2392 38.0592 79.2392C17.5363 79.2387 0.839844 63.1283 0.839844 43.3258C0.839844 23.5233 17.5363 7.41261 38.0592 7.41261C38.218 7.41261 38.3726 7.43052 38.5206 7.46461C38.6688 7.43052 38.8232 7.41261 38.982 7.41261H81.4827V5.07873C81.4827 4.01931 82.3726 3.16064 83.4706 3.16064C84.5685 3.16064 85.4584 4.01931 85.4584 5.07873ZM20.3195 41.4077H29.775C30.1653 39.8387 31.0231 38.4432 32.1981 37.3667L27.4722 29.4678C23.5723 32.249 20.8827 36.5232 20.3195 41.4077ZM27.4717 57.1837L32.1979 49.2848C31.0231 48.2084 30.165 46.8129 29.7748 45.2439H20.3193C20.8827 50.129 23.5718 54.4027 27.4717 57.1837ZM45.2063 59.1069L40.4797 51.207C39.7122 51.4269 38.8998 51.545 38.0594 51.545C37.2187 51.545 36.4066 51.4269 35.6389 51.207L30.912 59.1071C33.1015 60.0338 35.5194 60.5485 38.0594 60.5485C38.0638 60.5485 38.0684 60.5485 38.0733 60.5485H38.0737C38.0795 60.5485 38.0841 60.5485 38.0894 60.5485C38.0941 60.5485 38.1 60.5485 38.104 60.5485C38.1091 60.5485 38.1137 60.5483 38.119 60.5485C38.1232 60.548 38.1285 60.5483 38.1329 60.5483C38.1347 60.5483 38.1351 60.5483 38.1371 60.5483C40.4011 60.5387 42.6241 60.1141 44.6937 59.3147C44.8662 59.2478 45.0365 59.1785 45.2063 59.1069ZM38.0592 47.7086C40.5636 47.7086 42.6011 45.7424 42.6011 43.3258C42.6011 40.9092 40.5636 38.943 38.0592 38.943C35.5543 38.943 33.5165 40.9092 33.5165 43.3258C33.5165 45.7424 35.5543 47.7086 38.0592 47.7086ZM43.92 49.2846L48.6461 57.1835C52.5454 54.4025 55.2347 50.1284 55.7977 45.2441H46.3427C45.9526 46.8126 45.0945 48.2084 43.92 49.2846ZM46.0686 26.1031H38.982C38.8236 26.1031 38.6694 26.0852 38.5219 26.0515C38.3743 26.0852 38.2202 26.1031 38.0618 26.1031C35.5207 26.1031 33.1019 26.6178 30.9118 27.5448L35.6384 35.4446C36.4062 35.2246 37.2183 35.1066 38.0589 35.1066C38.8994 35.1066 39.7117 35.2246 40.4792 35.4446L46.0686 26.1031Z" fill="#005287"/>
</g>
<defs>
<clipPath id="clip0_423_1757">
<rect width="84.6186" height="81.6495" fill="white" transform="translate(0.839844 0.375)"/>
</clipPath>
</defs>
</svg>
