<?xml version="1.0" standalone="no"?>
<!DOCTYPE svg PUBLIC "-//W3C//DTD SVG 20010904//EN"
 "http://www.w3.org/TR/2001/REC-SVG-20010904/DTD/svg10.dtd">
<svg version="1.0" xmlns="http://www.w3.org/2000/svg"
 width="80.000000pt" height="80.000000pt" viewBox="0 0 128.000000 128.000000"
 preserveAspectRatio="xMidYMid meet">

<g transform="translate(0.000000,128.000000) scale(0.100000,-0.100000)"
fill="#000000" stroke="none">
<path d="M326 1218 c-17 -25 -21 -88 -7 -103 6 -6 -10 -120 -40 -290 -27 -154
-49 -285 -49 -290 0 -6 -10 -15 -23 -20 -19 -9 -22 -19 -25 -70 -4 -79 5 -85
125 -85 l94 0 -4 -127 c-3 -71 -7 -141 -9 -158 l-3 -30 255 0 255 0 -2 25 c-1
14 -5 41 -9 61 -5 33 -4 37 23 46 22 8 34 7 48 -3 49 -36 125 4 125 66 0 62
-76 102 -125 66 -28 -20 -75 -2 -75 30 0 24 1 24 94 24 112 0 126 8 126 76 0
51 -14 84 -35 84 -8 0 -15 6 -15 13 0 6 -22 138 -49 292 -30 170 -46 284 -40
290 14 15 10 78 -7 103 -15 22 -16 22 -314 22 -298 0 -299 0 -314 -22z m602
-50 l3 -28 -290 0 -291 0 0 23 c0 13 3 27 7 30 4 4 133 6 287 5 l281 -3 3 -27z
m-589 -358 c-21 -157 -38 -286 -38 -287 -2 -6 -31 -2 -31 4 0 12 91 548 96
562 13 42 7 -22 -27 -279z m117 258 c-3 -18 -15 -134 -26 -258 -28 -305 -25
-290 -61 -290 -25 0 -29 3 -24 23 2 12 18 132 35 267 37 299 35 290 61 290 17
0 19 -5 15 -32z m80 -25 c-3 -32 -10 -137 -16 -233 -6 -96 -13 -201 -16 -232
-6 -56 -7 -58 -35 -58 -28 0 -30 2 -25 33 3 17 15 133 26 257 27 293 26 290
51 290 19 0 21 -4 15 -57z m84 -233 l0 -290 -41 0 -41 0 6 58 c3 31 10 136 16
232 16 270 19 290 41 290 18 0 19 -12 19 -290z m84 233 c3 -32 10 -137 16
-233 6 -96 13 -201 16 -232 l6 -58 -41 0 -41 0 0 290 c0 278 1 290 19 290 16
0 20 -10 25 -57z m80 25 c3 -18 15 -134 26 -258 11 -124 23 -240 26 -257 5
-31 3 -33 -25 -33 -28 0 -29 2 -35 58 -3 31 -10 136 -16 232 -6 96 -13 201
-16 233 -6 53 -4 57 15 57 15 0 21 -8 25 -32z m80 10 c3 -13 19 -133 36 -268
17 -135 33 -255 35 -267 5 -20 1 -23 -24 -23 -36 0 -33 -15 -61 290 -11 124
-23 240 -26 258 -4 27 -2 32 15 32 13 0 22 -8 25 -22z m101 -278 c25 -146 45
-269 45 -273 0 -4 -7 -7 -15 -7 -19 0 -19 0 -55 290 -17 135 -33 256 -35 270
-4 22 -3 23 5 5 5 -11 30 -139 55 -285z m95 -360 l0 -40 -420 0 -420 0 0 40 0
40 420 0 420 0 0 -40z m-220 -100 c0 -19 -7 -20 -200 -20 -193 0 -200 1 -200
20 0 19 7 20 200 20 193 0 200 -1 200 -20z m-380 -100 c0 -22 -4 -40 -10 -40
-5 0 -10 18 -10 40 0 22 5 40 10 40 6 0 10 -18 10 -40z m80 0 c0 -33 -3 -40
-20 -40 -17 0 -20 7 -20 40 0 33 3 40 20 40 17 0 20 -7 20 -40z m80 0 c0 -33
-3 -40 -20 -40 -17 0 -20 7 -20 40 0 33 3 40 20 40 17 0 20 -7 20 -40z m80 0
c0 -33 -3 -40 -20 -40 -17 0 -20 7 -20 40 0 33 3 40 20 40 17 0 20 -7 20 -40z
m80 0 c0 -33 -3 -40 -20 -40 -17 0 -20 7 -20 40 0 33 3 40 20 40 17 0 20 -7
20 -40z m60 0 c0 -22 -4 -40 -10 -40 -5 0 -10 18 -10 40 0 22 5 40 10 40 6 0
10 -18 10 -40z m190 25 c15 -18 10 -45 -12 -59 -35 -22 -74 27 -48 59 16 19
44 19 60 0z m-110 -25 c0 -10 -9 -20 -20 -23 -16 -4 -20 0 -20 23 0 23 4 27
20 23 11 -3 20 -13 20 -23z m-80 -104 c0 -13 3 -31 6 -40 5 -14 -17 -16 -206
-16 -189 0 -211 2 -206 16 3 9 6 27 6 40 l0 24 200 0 200 0 0 -24z"/>
</g>
</svg>
