<svg width="22" height="23" viewBox="0 0 22 23" fill="none" xmlns="http://www.w3.org/2000/svg">
<g clip-path="url(#clip0_591_371)">
<path d="M2.75 19.1826L3.94167 15.6076C2.91174 14.0843 2.53916 12.2804 2.8932 10.5313C3.24724 8.78224 4.30381 7.20693 5.86645 6.09832C7.4291 4.9897 9.39149 4.42322 11.3887 4.5042C13.386 4.58518 15.2822 5.30812 16.7248 6.53858C18.1675 7.76905 19.0583 9.42331 19.2317 11.1938C19.4052 12.9643 18.8494 14.7305 17.6677 16.1641C16.4861 17.5977 14.7589 18.601 12.8075 18.9876C10.856 19.3742 8.81302 19.1178 7.05833 18.2659L2.75 19.1826" stroke="#535456" stroke-width="2.0625" stroke-linecap="round" stroke-linejoin="round"/>
<path d="M11 11.8491V11.8583" stroke="#535456" stroke-width="2.0625" stroke-linecap="round" stroke-linejoin="round"/>
<path d="M7.33325 11.8491V11.8583" stroke="#535456" stroke-width="2.0625" stroke-linecap="round" stroke-linejoin="round"/>
<path d="M14.6667 11.8491V11.8583" stroke="#535456" stroke-width="2.0625" stroke-linecap="round" stroke-linejoin="round"/>
</g>
<defs>
<clipPath id="clip0_591_371">
<rect width="22" height="22" fill="white" transform="translate(0 0.849121)"/>
</clipPath>
</defs>
</svg>
