<svg width="27" height="28" viewBox="0 0 27 28" fill="none" xmlns="http://www.w3.org/2000/svg">
<g clip-path="url(#clip0_591_390)">
<path d="M11.6156 5.70575C12.0949 3.73025 14.9051 3.73025 15.3844 5.70575C15.4563 6.00252 15.5972 6.27812 15.7958 6.51012C15.9944 6.74212 16.2449 6.92396 16.527 7.04084C16.8091 7.15771 17.1148 7.20633 17.4193 7.18272C17.7237 7.15912 18.0183 7.06396 18.279 6.905C20.0149 5.8475 22.0028 7.83425 20.9453 9.57125C20.7865 9.83186 20.6915 10.1263 20.668 10.4305C20.6444 10.7347 20.693 11.0402 20.8097 11.3222C20.9265 11.6041 21.1081 11.8545 21.3398 12.0531C21.5716 12.2516 21.8469 12.3926 22.1434 12.4647C24.1189 12.944 24.1189 15.7542 22.1434 16.2335C21.8466 16.3054 21.571 16.4464 21.339 16.6449C21.107 16.8435 20.9252 17.094 20.8083 17.3761C20.6914 17.6582 20.6428 17.9639 20.6664 18.2684C20.69 18.5728 20.7852 18.8674 20.9441 19.1281C22.0016 20.864 20.0149 22.8519 18.2779 21.7944C18.0173 21.6356 17.7229 21.5406 17.4186 21.5171C17.1144 21.4935 16.8089 21.5421 16.5269 21.6588C16.245 21.7756 15.9946 21.9572 15.7961 22.1889C15.5975 22.4207 15.4565 22.696 15.3844 22.9925C14.9051 24.968 12.0949 24.968 11.6156 22.9925C11.5437 22.6957 11.4028 22.4201 11.2042 22.1881C11.0056 21.9561 10.7551 21.7743 10.473 21.6574C10.1909 21.5405 9.88519 21.4919 9.58074 21.5155C9.27629 21.5391 8.98172 21.6343 8.721 21.7932C6.98512 22.8507 4.99725 20.864 6.05475 19.127C6.21349 18.8664 6.30849 18.572 6.33204 18.2678C6.35559 17.9635 6.30702 17.658 6.19028 17.3761C6.07354 17.0941 5.89192 16.8437 5.66018 16.6452C5.42845 16.4467 5.15313 16.3056 4.85663 16.2335C2.88112 15.7542 2.88112 12.944 4.85663 12.4647C5.1534 12.3928 5.429 12.2519 5.661 12.0533C5.893 11.8548 6.07484 11.6042 6.19171 11.3221C6.30859 11.04 6.35721 10.7343 6.3336 10.4299C6.31 10.1254 6.21484 9.83084 6.05587 9.57012C4.99837 7.83425 6.98512 5.84637 8.72212 6.90387C9.84712 7.58787 11.3051 6.98262 11.6156 5.70575Z" stroke="#535456" stroke-width="2.38235" stroke-linecap="round" stroke-linejoin="round"/>
<path d="M13.5 17.7241C15.364 17.7241 16.875 16.2131 16.875 14.3491C16.875 12.4852 15.364 10.9741 13.5 10.9741C11.636 10.9741 10.125 12.4852 10.125 14.3491C10.125 16.2131 11.636 17.7241 13.5 17.7241Z" stroke="#535456" stroke-width="2.38235" stroke-linecap="round" stroke-linejoin="round"/>
</g>
<defs>
<clipPath id="clip0_591_390">
<rect width="27" height="27" fill="white" transform="translate(0 0.849121)"/>
</clipPath>
</defs>
</svg>
