<svg width="324" height="59" viewBox="0 0 324 59" fill="none" xmlns="http://www.w3.org/2000/svg">
<g clip-path="url(#clip0_557_477)">
<path d="M309.288 16.4048L296.774 30.3557L293.392 16.4048H280.625L286.628 38.8109L282.401 48.7034H295.421L299.649 38.8109L320.533 16.4048H309.288Z" fill="#D2D2D2"/>
<path d="M152.193 16.405L143.738 35.5982L138.664 18.6879C138.157 16.4896 137.65 16.1514 135.282 16.1514H126.827C123.783 16.1514 123.783 16.9969 122.6 19.618L110.34 48.7036H119.556L128.011 29.4259L133.169 45.8289C133.676 47.6044 134.099 48.6191 137.143 48.6191H144.837C147.965 48.6191 148.219 47.5199 149.487 44.8143L161.578 16.3205L152.193 16.405Z" fill="#D2D2D2"/>
<path d="M255.598 16.4049C252.898 16.2684 250.229 17.0217 247.999 18.5491C245.769 20.0765 244.101 22.2936 243.253 24.8601L238.518 35.8517C234.798 44.3069 240.463 49.1263 247.819 49.1263H263.968C265.499 49.1854 267.011 48.7705 268.298 47.9381C269.584 47.1058 270.582 45.8967 271.155 44.476L277.666 29.2567H262.108L259.149 36.2745H265.068L263.546 39.7411C263.282 40.5198 262.762 41.1861 262.071 41.6314C261.38 42.0767 260.559 42.2747 259.741 42.1931H253.653C251.455 42.1931 250.271 40.6712 251.37 38.1346L255.598 28.1576C257.035 24.8601 257.796 23.93 262.193 24.0145H275.214L278.173 16.9968L255.598 16.4049Z" fill="#D2D2D2"/>
<path d="M174.344 16.4047C172.799 16.2013 171.229 16.4825 169.851 17.2095C168.473 17.9365 167.354 19.0733 166.65 20.4632L157.096 42.7847C155.489 46.0822 158.11 48.4496 161.577 48.4496H184.236L187.196 41.4319H173.076C172.484 41.4319 172.23 41.4319 172.146 41.4319C172.064 41.2905 172.021 41.1301 172.021 40.9668C172.021 40.8036 172.064 40.6432 172.146 40.5018L174.09 35.8515H189.648L192.607 28.8337H177.134L178.994 24.6062C178.994 24.6062 179.417 23.5916 181.023 23.5916H194.974L198.018 16.4893L174.344 16.4047Z" fill="#D2D2D2"/>
<path d="M204.951 16.4893L191.254 48.7032H205.289L215.943 23.3379H220.931C222.961 23.3379 223.975 23.9298 224.313 24.6907C226.089 29.7638 211.377 36.0206 211.377 36.0206L233.107 58.0039H235.39L224.482 37.2888C226.258 36.3588 237.419 32.8076 236.996 24.0143C236.996 19.7022 233.191 16.4893 223.299 16.4893H204.951Z" fill="#D2D2D2"/>
<path d="M93.0059 0.509252C90.1109 0.0546344 87.1491 0.659392 84.6641 2.21252C82.1791 3.76565 80.3376 6.16294 79.4777 8.96437L69.5007 32.9769C64.4276 45.0677 71.7835 48.6189 77.9558 48.6189H103.744L107.633 39.4028H84.5508C82.7752 39.4028 82.0988 38.3036 82.8598 36.5281L86.2418 28.0729H109.916L113.552 19.6178H89.8775L93.0059 12.6001C93.3647 11.6277 94.0496 10.8098 94.9437 10.2856C95.8379 9.76145 96.8861 9.56345 97.9099 9.72533H113.214L126.235 0.509252H93.0059Z" fill="#D2D2D2"/>
<path d="M61.2156 16.4048L56.7344 27.2273H66.6269L71.2772 16.4048H61.2156Z" fill="#D2D2D2"/>
<path d="M30.6918 0.509277C17.9246 0.509277 12.3443 4.65229 9.38498 10.9936L3.04365 25.8746C-5.41146 44.2222 6.08749 48.7034 14.5426 48.7034H41.8526L55.5499 16.4049H40.2461L24.7733 27.2275H36.4413L31.1992 39.4874H16.91C16.91 39.4874 11.7524 39.4874 14.2044 33.907L22.6595 13.9529C23.2444 12.5332 24.284 11.3477 25.6153 10.5826C26.9466 9.81749 28.4943 9.51597 30.0154 9.72536H49.8849L63.1595 0.509277H30.6918Z" fill="#E9530E"/>
<path d="M204.783 9.72536L208.673 0.509277H218.142L217.466 2.11575H210.194L209.349 4.14498H213.577L212.9 5.6669H208.673L207.658 7.94979H215.014L214.337 9.72536H204.783Z" fill="#D2D2D2"/>
<path d="M218.227 9.72536L222.2 0.509277H223.638L227.781 5.92056L228.288 6.42786V6.93517V5.836V5.3287L231.078 0.509277H233.023L229.134 9.72536H227.696L223.3 4.06043V4.82139V5.4978L219.833 9.72536H218.227Z" fill="#D2D2D2"/>
<path d="M245.622 2.11568H238.942L236.744 7.94972H243.423L244.269 5.92049H240.802L241.479 4.31401H247.059L245.199 7.52696C244.964 8.18696 244.555 8.77121 244.015 9.21799C243.394 9.55282 242.689 9.69971 241.986 9.64074H235.898C234.968 9.64074 234.461 9.64074 234.292 9.21799C234.123 8.79523 234.292 8.37247 234.292 7.52696L236.744 2.70754C236.979 2.04754 237.388 1.46329 237.928 1.01652C238.487 0.674918 239.132 0.499011 239.788 0.509209H246.129C246.975 0.509209 247.566 0.509209 247.736 0.931965C247.905 1.35472 247.736 1.77748 247.736 2.53844L245.199 3.21485L245.622 2.11568Z" fill="#D2D2D2"/>
<path d="M249.002 9.72536L252.891 0.509277H255.09L251.116 9.72536H249.002Z" fill="#D2D2D2"/>
<path d="M255.852 9.72536L259.741 0.509277H261.178L265.321 5.92055V6.42786V6.93517V5.836V5.32869L268.619 0.509277H270.563L266.674 9.72536H265.237L260.84 4.06043V4.82139V5.4978L258.726 10.4863L255.852 9.72536Z" fill="#D2D2D2"/>
<path d="M271.324 9.72536L275.298 0.509277H284.683L284.007 2.11575H276.735L275.89 4.14498H280.118L279.441 5.6669H275.214L274.283 7.94979H281.639L280.878 9.72536H271.324Z" fill="#D2D2D2"/>
<path d="M294.492 2.70736C294.782 1.98496 295.283 1.36642 295.929 0.931784C296.474 0.638574 297.086 0.492841 297.705 0.509028H304.384C305.23 0.509028 305.821 0.509028 305.991 0.931784C306.16 1.35454 305.991 1.7773 305.991 2.62281L303.961 7.44223C303.723 8.10033 303.314 8.68369 302.778 9.13326C302.158 9.47284 301.452 9.62003 300.748 9.55601H293.984C293.139 9.55601 292.547 9.55601 292.378 9.13326C292.209 8.7105 292.378 8.28774 292.378 7.44223L294.492 2.70736ZM294.492 8.03409H301.509L303.961 2.20005H296.944L294.492 8.03409Z" fill="#D2D2D2"/>
<path d="M307.344 9.72536L311.318 0.509277H313.431L309.542 9.72536H307.344Z" fill="#D2D2D2"/>
<path d="M314.191 9.72536L318.165 0.509277H320.279L317.151 7.94979H323.999L323.238 9.72536H314.191Z" fill="#D2D2D2"/>
</g>
<defs>
<clipPath id="clip0_557_477">
<rect width="324" height="57.4948" fill="white" transform="translate(0 0.509277)"/>
</clipPath>
</defs>
</svg>
