<svg width="24" height="25" viewBox="0 0 24 25" fill="none" xmlns="http://www.w3.org/2000/svg">
<path fill-rule="evenodd" clip-rule="evenodd" d="M12 0.399902C11.3387 0.399902 10.6845 0.535063 10.0748 0.797058C9.46519 1.05903 8.91275 1.44238 8.44842 1.92411C7.98414 2.40579 7.61697 2.97644 7.36684 3.60294C7.19222 4.04029 7.0769 4.4992 7.02318 4.96672H4C2.89543 4.96672 2 5.86215 2 6.96672V22.4956C2 23.6002 2.89543 24.4956 4 24.4956H20C21.1046 24.4956 22 23.6002 22 22.4956V6.96672C22 5.86215 21.1046 4.96672 20 4.96672H16.9768C16.9231 4.4992 16.8078 4.04029 16.6332 3.60294C16.383 2.97644 16.0159 2.40579 15.5516 1.92411C15.0873 1.44238 14.5348 1.05903 13.9252 0.797058C13.3155 0.535062 12.6613 0.399902 12 0.399902ZM15.7666 4.96672C15.7197 4.65176 15.6366 4.34322 15.5187 4.04789C15.3254 3.56375 15.0427 3.12525 14.6876 2.75689C14.3326 2.38858 13.9123 2.09764 13.4514 1.89957C12.9906 1.70152 12.4974 1.5999 12 1.5999C11.5026 1.5999 11.0094 1.70152 10.5486 1.89957C10.0877 2.09764 9.66742 2.38858 9.31241 2.75689C8.95735 3.12526 8.67459 3.56375 8.4813 4.04789C8.36338 4.34322 8.28028 4.65176 8.23339 4.96672H15.7666ZM4 6.16672H20C20.4418 6.16672 20.8 6.52489 20.8 6.96672V22.4956C20.8 22.9375 20.4418 23.2956 20 23.2956H4C3.55817 23.2956 3.2 22.9375 3.2 22.4956V6.96672C3.2 6.52489 3.55817 6.16672 4 6.16672Z" fill="#fff"/>
</svg>
