<svg width="35" height="35" viewBox="0 0 35 35" fill="none" xmlns="http://www.w3.org/2000/svg">
<rect width="35" height="35" rx="10" fill="#E7EDF0"/>
<g clip-path="url(#clip0_591_1976)">
<path d="M13.4166 15.1665L18 9.6665L22.5833 15.1665" stroke="#9DACB4" stroke-width="2.0625" stroke-linecap="round" stroke-linejoin="round"/>
<path d="M26.25 15.1665L24.4167 22.4998C24.331 23.0253 24.1006 23.4965 23.7656 23.8315C23.4306 24.1664 23.0122 24.344 22.5833 24.3332H13.4167C12.9878 24.344 12.5694 24.1664 12.2344 23.8315C11.8994 23.4965 11.669 23.0253 11.5833 22.4998L9.75 15.1665H26.25Z" fill="#9DACB4"/>
<path d="M18 21.5832C19.0125 21.5832 19.8333 20.7624 19.8333 19.7498C19.8333 18.7373 19.0125 17.9165 18 17.9165C16.9874 17.9165 16.1666 18.7373 16.1666 19.7498C16.1666 20.7624 16.9874 21.5832 18 21.5832Z" fill="#E7EDF0"/>
</g>
<defs>
<clipPath id="clip0_591_1976">
<rect width="22" height="22" fill="white" transform="translate(7 6)"/>
</clipPath>
</defs>
</svg>
