<svg width="24" height="23" viewBox="0 0 24 23" fill="none" xmlns="http://www.w3.org/2000/svg">
<g clip-path="url(#clip0_460_8432)">
<path d="M21.4247 3.55027C20.8802 2.99532 20.2336 2.5551 19.522 2.25475C18.8104 1.9544 18.0477 1.7998 17.2774 1.7998C16.5071 1.7998 15.7444 1.9544 15.0328 2.25475C14.3212 2.5551 13.6746 2.99532 13.1301 3.55027L12 4.70144L10.8699 3.55027C9.76995 2.42984 8.27812 1.80039 6.72259 1.80039C5.16705 1.80039 3.67522 2.42984 2.57529 3.55027C1.47536 4.6707 0.857422 6.19033 0.857422 7.77486C0.857422 9.35939 1.47536 10.879 2.57529 11.9995L3.7054 13.1506L12 21.5998L20.2946 13.1506L21.4247 11.9995C21.9695 11.4448 22.4017 10.7862 22.6965 10.0613C22.9914 9.33643 23.1431 8.55949 23.1431 7.77486C23.1431 6.99023 22.9914 6.21329 22.6965 5.48842C22.4017 4.76355 21.9695 4.10496 21.4247 3.55027V3.55027Z" stroke="black" stroke-width="1.2" stroke-linecap="round" stroke-linejoin="round"/>
</g>
<defs>
<clipPath id="clip0_460_8432">
<rect width="24" height="21.6" fill="white" transform="translate(0 0.899902)"/>
</clipPath>
</defs>
</svg>
