<svg width="25" height="25" viewBox="0 0 25 25" fill="none" xmlns="http://www.w3.org/2000/svg">
<path fill-rule="evenodd" clip-rule="evenodd" d="M12.2939 0.400024C11.6327 0.400024 10.9784 0.535185 10.3687 0.79718C9.75913 1.05915 9.20669 1.44251 8.74237 1.92423C8.27808 2.40591 7.91091 2.97657 7.66078 3.60306C7.48617 4.04041 7.37084 4.49932 7.31712 4.96684H4.29395C3.18938 4.96684 2.29395 5.86227 2.29395 6.96684V22.4958C2.29395 23.6003 3.18938 24.4958 4.29395 24.4958H20.2939C21.3985 24.4958 22.2939 23.6003 22.2939 22.4958V6.96684C22.2939 5.86227 21.3985 4.96684 20.2939 4.96684H17.2708C17.2171 4.49932 17.1017 4.04041 16.9271 3.60306C16.677 2.97657 16.3098 2.40591 15.8455 1.92423C15.3812 1.44251 14.8288 1.05915 14.2192 0.79718C13.6095 0.535184 12.9552 0.400024 12.2939 0.400024ZM16.0606 4.96684C16.0137 4.65188 15.9306 4.34335 15.8127 4.04801C15.6194 3.56387 15.3366 3.12538 14.9815 2.75701C14.6265 2.3887 14.2063 2.09776 13.7454 1.89969C13.2845 1.70164 12.7914 1.60002 12.2939 1.60002C11.7965 1.60002 11.3034 1.70164 10.8425 1.89969C10.3816 2.09776 9.96137 2.3887 9.60636 2.75701C9.2513 3.12538 8.96853 3.56388 8.77524 4.04801C8.65733 4.34335 8.57423 4.65188 8.52734 4.96684H16.0606ZM4.29395 6.16684H20.2939C20.7358 6.16684 21.0939 6.52501 21.0939 6.96684V22.4958C21.0939 22.9376 20.7358 23.2958 20.2939 23.2958H4.29395C3.85212 23.2958 3.49395 22.9376 3.49395 22.4958V6.96684C3.49395 6.52501 3.85212 6.16684 4.29395 6.16684Z" fill="black"/>
</svg>
